SplineFontDB: 3.0
FontName: Caslon-Black
FullName: Caslon-Black
FamilyName: Caslon
Weight: Black
Copyright: 
Version: 001.000
ItalicAngle: 0
UnderlinePosition: -133
UnderlineWidth: 20
Ascent: 787
Descent: 213
InvalidEm: 0
LayerCount: 2
Layer: 0 0 "Back" 1
Layer: 1 0 "Fore" 0
FSType: 12
OS2Version: 0
OS2_WeightWidthSlopeOnly: 0
OS2_UseTypoMetrics: 0
CreationTime: 1400309090
ModificationTime: 1400309090
PfmFamily: 17
TTFWeight: 800
TTFWidth: 5
LineGap: 90
VLineGap: 0
Panose: 2 0 10 2 0 0 0 0 0 0
OS2TypoAscent: 0
OS2TypoAOffset: 1
OS2TypoDescent: 0
OS2TypoDOffset: 1
OS2TypoLinegap: 0
OS2WinAscent: 0
OS2WinAOffset: 1
OS2WinDescent: 0
OS2WinDOffset: 1
HheadAscent: 0
HheadAOffset: 1
HheadDescent: 0
HheadDOffset: 1
OS2CapHeight: 0
OS2XHeight: 0
OS2Vendor: 'PfEd'
Lookup: 4 0 1 "'liga' Standard Ligatures in Latin lookup 0" { "'liga' Standard Ligatures in Latin lookup 0 subtable"  } ['liga' ('latn' <'dflt' > ) ]
DEI: 91125
LangName: 1049 "" "" "+BCcEUQRABD0ESwQ5"
LangName: 1033 "" "" "Black"
Encoding: UnicodeBmp
UnicodeInterp: none
NameList: AGL For New Fonts
DisplaySize: 15
AntiAlias: 1
FitToEm: 1
WinInfo: 56 28 19
BeginPrivate: 10
BlueValues 47 [-21.000 0.000 463.000 478.659 661.000 671.000]
OtherBlues 19 [-165.000 -147.000]
BlueScale 11 0.363636364
UniqueID 7 4666506
StdHW 8 [22.235]
StdVW 9 [105.342]
StemSnapH 15 [22.235 30.172]
StemSnapV 17 [105.342 115.551]
ForceBoldThreshold 2 .5
ForceBold 5 false
EndPrivate
BeginChars: 65602 1568

StartChar: .notdef
Encoding: 0 -1 0
Width: 303
Flags: W
LayerCount: 2
Back
Fore
SplineSet
213 583 m 0
 213 523 123 523 123 583 c 0
 123 644 213 644 213 583 c 0
237 -35 m 2
 237 -118 140 -151 85 -150 c 0
 -35 -147 2 -34 53 -33 c 0
 87 -32 117 -96 84 -117 c 0
 76 -122 70 -128 62 -132 c 1
 73 -132 91 -130 101 -125 c 0
 123 -113 131 -94 131 -69 c 2
 131 383 l 1
 91 396 l 1
 91 417 l 1
 237 474 l 1
 237 -35 l 2
EndSplineSet
EndChar

StartChar: exclam
Encoding: 33 33 2
Width: 280
Flags: MW
HStem: -30 119
VStem: 71 119<612.583 657>
LayerCount: 2
Back
Fore
SplineSet
195 657 m 1
 166 124 l 1
 92 124 l 1
 67 657 l 1
 195 657 l 1
162 78 m 0
 228 35 163 -62 98 -19 c 0
 33 24 97 121 162 78 c 0
EndSplineSet
EndChar

StartChar: quotedbl
Encoding: 34 34 3
Width: 297
Flags: MW
HStem: 539 122<52 90 52 52 155 193 155 155>
LayerCount: 2
Back
Fore
SplineSet
207 661 m 1
 193 539 l 1
 155 539 l 1
 141 661 l 1
 207 661 l 1
104 661 m 1
 90 539 l 1
 52 539 l 1
 38 661 l 1
 104 661 l 1
EndSplineSet
EndChar

StartChar: numbersign
Encoding: 35 35 4
Width: 540
Flags: MW
HStem: 43 228<83 113 83 83 280 310 280 280> 422 58<43 139 202 337 399 515>
LayerCount: 2
Back
Fore
SplineSet
515 422 m 1
 395 422 l 1
 368 271 l 1
 472 271 l 1
 472 213 l 1
 363 213 l 1
 338 43 l 1
 280 43 l 1
 305 213 l 1
 166 213 l 1
 141 43 l 1
 83 43 l 1
 108 213 l 1
 0 213 l 1
 0 271 l 1
 113 271 l 1
 139 422 l 1
 43 422 l 1
 43 480 l 1
 144 480 l 1
 170 625 l 1
 228 625 l 1
 202 480 l 1
 341 480 l 1
 367 625 l 1
 425 625 l 1
 399 480 l 1
 515 480 l 1
 515 422 l 1
337 422 m 1
 197 422 l 1
 171 271 l 1
 310 271 l 1
 337 422 l 1
EndSplineSet
EndChar

StartChar: dollar
Encoding: 36 36 5
Width: 524
Flags: MW
VStem: 11 97<481.301 556.33> 210 63<-120 -7 -7 -7 33 266 435 617 617 617 661 750> 393 96<100.369 202.201>
LayerCount: 2
Back
Fore
SplineSet
489 172 m 0
 489 72 378 9 273 -5 c 1
 273 -120 l 1
 210 -120 l 1
 210 -7 l 1
 164 -6 131 11 83 27 c 0
 65 33 55 37 38 44 c 1
 38 195 l 1
 41 195 l 1
 45 174 49 161 58 143 c 0
 91 75 142 32 210 30 c 1
 210 288 l 1
 119 332 9 385 11 486 c 0
 12 585 112 644 210 658 c 1
 210 750 l 1
 273 750 l 1
 273 661 l 1
 313 660 343 645 385 631 c 0
 402 625 412 622 428 616 c 1
 428 464 l 1
 424 464 l 1
 420 485 415 498 406 517 c 0
 377 577 337 617 273 619 c 1
 273 620 273 412 273 412 c 1
 367 368 489 309 489 172 c 0
210 435 m 1
 210 617 l 1
 157 608 110 590 108 537 c 0
 106 480 151 463 210 435 c 1
393 144 m 0
 392 209 337 232 273 266 c 1
 273 33 l 1
 339 46 395 77 393 144 c 0
EndSplineSet
EndChar

StartChar: percent
Encoding: 37 37 6
Width: 775
Flags: MW
HStem: 4 41 336 28 584 51 642 28
VStem: 39 79 302 70 409 77 670 70
LayerCount: 2
Back
Fore
SplineSet
711 328 m 0
 757 263 751 154 683 86 c 0
 610 14 527 -18 462 20 c 0
 391 61 397 190 453 272 c 0
 506 349 658 403 711 328 c 0
726 710 m 1
 206 -1 l 1
 113 0 l 1
 558 603 l 1
 454 571 413 586 359 602 c 1
 380 547 383 454 320 386 c 0
 250 311 159 287 94 324 c 0
 23 365 26 488 75 572 c 0
 114 639 216 677 281 669 c 0
 318 664 364 635 473 635 c 0
 543 635 586 664 638 710 c 1
 726 710 l 1
637 333 m 0
 553 367 441 107 506 51 c 0
 567 -2 744 291 637 333 c 0
269 639 m 0
 185 672 72 412 138 356 c 0
 199 303 376 596 269 639 c 0
EndSplineSet
EndChar

StartChar: ampersand
Encoding: 38 38 7
Width: 722
Flags: MW
HStem: -6 85<181.085 297.5> 313 34<434 465 642.5 659 659 678> 616 14<305 305>
VStem: 131 110 364 105<462.105 578.3>
LayerCount: 2
Back
Fore
SplineSet
678 313 m 1
 659 313 l 2
 626 313 613 287 592 262 c 0
 552 215 497 204 460 158 c 1
 477 134 550 25 590 29 c 0
 605 31 630 51 641 62 c 1
 667 39 l 1
 641 -1 549 -13 500 -9 c 0
 441 -4 409 32 383 76 c 1
 331 25 272 -9 188 -6 c 0
 113 -4 53 57 50 127 c 0
 47 223 120 290 197 348 c 1
 168 391 131 432 131 487 c 0
 132 569 224 633 305 630 c 0
 373 628 470 602 469 519 c 0
 468 448 393 415 316 372 c 1
 446 176 l 1
 486 222 533 232 522 276 c 0
 515 301 491 313 465 313 c 2
 434 313 l 1
 434 347 l 1
 678 347 l 1
 678 313 l 1
364 529 m 0
 364 587 351 615 305 616 c 0
 261 617 258 585 245 543 c 0
 227 484 274 435 304 390 c 1
 366 435 364 477 364 529 c 0
369 95 m 1
 206 335 l 1
 148 296 164 245 165 156 c 0
 166 99 190 80 243 79 c 0
 283 79 329 64 369 95 c 1
EndSplineSet
EndChar

StartChar: quotesingle
Encoding: 39 39 8
Width: 242
Flags: MW
VStem: 45 129
LayerCount: 2
Back
Fore
SplineSet
161 543 m 1
 141 490 96 448 39 436 c 1
 23 454 l 1
 50 461 95 500 74 530 c 1
 25 560 41 653 115 649 c 0
 175 645 188 579 161 543 c 1
EndSplineSet
EndChar

StartChar: parenleft
Encoding: 40 40 9
Width: 290
Flags: MW
VStem: 17 147<61.3628 392.592>
LayerCount: 2
Back
Fore
SplineSet
254 -204 m 1
 244 -198 l 2
 84 -102 17 35 17 220 c 0
 17 408 74 561 244 646 c 2
 254 651 l 1
 254 633 l 1
 245 626 l 2
 181 576 163 389 164 223 c 0
 165 68 194 -139 245 -179 c 2
 254 -186 l 1
 254 -204 l 1
EndSplineSet
EndChar

StartChar: parenright
Encoding: 41 41 10
Width: 327
Flags: W
LayerCount: 2
Back
Fore
SplineSet
18 -204 m 1
 28 -198 l 2
 188 -102 255 35 255 220 c 0
 255 408 198 561 28 646 c 2
 18 651 l 1
 18 633 l 1
 27 626 l 2
 91 576 109 389 108 223 c 0
 107 68 78 -139 27 -179 c 2
 18 -186 l 1
 18 -204 l 1
EndSplineSet
EndChar

StartChar: asterisk
Encoding: 42 42 11
Width: 469
Flags: MW
HStem: 177 239
VStem: 173 106<160.5 194 398 436.5>
LayerCount: 2
Back
Fore
SplineSet
389 388 m 0
 399 371 398 335 361 314 c 0
 319 290 281 312 255 296 c 1
 284 279 324 300 361 279 c 0
 398 258 395 218 385 201 c 0
 376 185 351 166 313 187 c 0
 272 211 268 257 241 272 c 1
 241 238 279 215 279 173 c 0
 279 130 243 120 225 120 c 0
 207 120 173 139 173 182 c 0
 173 230 213 241 212 272 c 1
 185 257 191 211 149 187 c 0
 112 165 74 185 65 201 c 0
 55 219 49 259 87 281 c 0
 123 302 168 278 197 295 c 1
 171 311 140 287 98 311 c 0
 61 332 56 371 66 388 c 0
 74 402 110 430 148 409 c 0
 184 388 184 338 213 321 c 1
 214 352 173 374 173 422 c 0
 173 465 205 470 225 470 c 0
 245 470 279 458 279 415 c 0
 279 373 241 354 241 320 c 1
 270 337 277 382 313 403 c 0
 351 424 380 404 389 388 c 0
EndSplineSet
EndChar

StartChar: plus
Encoding: 43 43 12
Width: 363
Flags: MW
HStem: 230 63<33 156 217 340>
VStem: 156 61<105 230 293 413>
LayerCount: 2
Back
Fore
SplineSet
340 230 m 1
 217 230 l 1
 217 105 l 1
 156 105 l 1
 156 230 l 1
 33 230 l 1
 33 293 l 1
 156 293 l 1
 156 413 l 1
 217 413 l 1
 217 293 l 1
 340 293 l 1
 340 230 l 1
EndSplineSet
EndChar

StartChar: comma
Encoding: 44 44 13
Width: 251
Flags: MW
VStem: 40 129
LayerCount: 2
Back
Fore
SplineSet
156 5 m 1
 141 -49 89 -92 34 -103 c 1
 18 -84 l 1
 45 -77 89 -36 69 -8 c 1
 20 22 36 114 110 110 c 0
 170 106 184 41 156 5 c 1
EndSplineSet
EndChar

StartChar: hyphen
Encoding: 45 45 14
Width: 276
Flags: MW
HStem: 183 71<33 252>
VStem: 33 219<183 254>
LayerCount: 2
Back
Fore
SplineSet
252 183 m 1
 33 183 l 1
 33 254 l 1
 252 254 l 1
 252 183 l 1
EndSplineSet
EndChar

StartChar: period
Encoding: 46 46 15
Width: 255
Flags: MW
HStem: -17 132
VStem: 42 132
LayerCount: 2
Back
Fore
SplineSet
144 103 m 0
 216 55 144 -53 72 -5 c 0
 0 43 72 152 144 103 c 0
EndSplineSet
EndChar

StartChar: slash
Encoding: 47 47 16
Width: 442
Flags: W
LayerCount: 2
Back
Fore
SplineSet
447 615 m 1
 117 -20 l 1
 30 -20 l 1
 360 615 l 1
 447 615 l 1
EndSplineSet
EndChar

StartChar: zero
Encoding: 48 48 17
Width: 580
Flags: MW
HStem: 0 19<230 347.5> 562 19<230 347.5>
VStem: 81 119 376 122
LayerCount: 2
Back
Fore
SplineSet
289 0 m 0
 12 0 12 581 289 581 c 0
 570 581 566 0 289 0 c 0
289 19 m 0
 406 19 406 562 289 562 c 0
 171 562 171 19 289 19 c 0
EndSplineSet
EndChar

StartChar: one
Encoding: 49 49 18
Width: 580
Flags: MW
HStem: 0 22<165 212 212 219 368 415>
VStem: 237 105<49 529 529 529>
LayerCount: 2
Back
Fore
SplineSet
415 0 m 1
 165 0 l 1
 165 22 l 1
 212 22 l 2
 226 22 237 35 237 49 c 2
 237 529 l 1
 197 529 l 1
 197 547 l 1
 342 581 l 1
 342 49 l 2
 342 36 355 22 368 22 c 2
 415 22 l 1
 415 0 l 1
EndSplineSet
EndChar

StartChar: two
Encoding: 50 50 19
Width: 580
Flags: MW
HStem: 0 124<198 449> 539 42
VStem: 332 130<364.267 505.252>
LayerCount: 2
Back
Fore
SplineSet
477 162 m 1
 454 0 l 1
 119 0 l 1
 119 84 l 2
 119 221 324 278 332 439 c 0
 334 492 302 536 245 539 c 0
 181 543 137 491 126 434 c 1
 103 434 l 1
 109 522 180 578 267 581 c 0
 363 584 463 547 462 450 c 0
 460 278 276 241 217 168 c 0
 193 139 205 141 198 124 c 1
 449 124 l 1
 459 162 l 1
 477 162 l 1
EndSplineSet
EndChar

StartChar: three
Encoding: 51 51 20
Width: 580
Flags: MW
HStem: -6 26 523 52
VStem: 105 103<73.6514 131.295> 296 112
LayerCount: 2
Back
Fore
SplineSet
359 143 m 0
 364 224 271 299 220 299 c 2
 197 299 l 1
 197 328 l 1
 212 331 218 333 232 340 c 0
 278 365 301 409 297 462 c 0
 289 547 128 541 128 457 c 1
 107 457 l 1
 107 539 188 578 262 575 c 0
 380 570 469 480 358 389 c 0
 346 380 342 373 329 367 c 1
 331 354 l 1
 336 350 337 345 343 343 c 0
 573 254 480 2 224 -6 c 0
 163 -8 102 43 106 104 c 0
 112 199 212 184 209 113 c 0
 207 78 191 67 158 68 c 1
 168 49 176 43 193 30 c 0
 232 -1 352 39 359 143 c 0
EndSplineSet
EndChar

StartChar: four
Encoding: 52 52 21
Width: 580
Flags: MW
HStem: 109 107<192 366 477 535>
VStem: 366 111<216 454 454 454>
LayerCount: 2
Back
Fore
SplineSet
535 109 m 1
 477 109 l 1
 477 0 l 1
 368 0 l 1
 368 109 l 1
 45 109 l 1
 392 581 l 1
 477 581 l 1
 477 216 l 1
 535 216 l 1
 535 109 l 1
366 216 m 1
 366 454 l 1
 192 216 l 1
 366 216 l 1
EndSplineSet
EndChar

StartChar: five
Encoding: 53 53 22
Width: 580
Flags: MW
HStem: 299 102 515 65<186 383 383 389 186 186>
VStem: 99 105<72.6562 151.921> 374 106<107.349 233.54>
LayerCount: 2
Back
Fore
SplineSet
480 172 m 0
 476 70 336 -23 224 -12 c 0
 162 -6 100 37 99 93 c 0
 99 154 132 165 165 161 c 0
 188 158 209 138 203 102 c 0
 199 77 173 60 148 60 c 1
 168 35 192 25 223 22 c 0
 304 13 374 84 374 165 c 0
 374 289 217 328 125 276 c 1
 125 580 l 1
 383 580 l 2
 395 580 419 581 426 594 c 2
 431 603 l 1
 438 603 l 1
 431 515 l 1
 186 515 l 1
 186 381 l 1
 321 451 486 322 480 172 c 0
EndSplineSet
EndChar

StartChar: six
Encoding: 54 54 23
Width: 580
Flags: MW
HStem: 0 17<291 291> 356 20<269 291>
VStem: 50 130 401 128
LayerCount: 2
Back
Fore
SplineSet
316 581 m 1
 321 541 l 1
 264 493 235 508 202 413 c 0
 189 375 183 349 183 311 c 1
 210 350 247 376 291 376 c 0
 613 373 604 -1 291 0 c 0
 -95 1 58 510 234 552 c 0
 272 561 283 573 316 581 c 1
291 17 m 0
 435 17 441 354 291 356 c 0
 139 358 148 17 291 17 c 0
EndSplineSet
EndChar

StartChar: seven
Encoding: 55 55 24
Width: 580
Flags: MW
HStem: 475 106<168.5 182 182 376>
VStem: 82 39<423 423>
LayerCount: 2
Back
Fore
SplineSet
499 581 m 1
 333 0 l 1
 209 0 l 1
 376 475 l 1
 182 475 l 2
 155 475 121 480 121 442 c 2
 121 411 l 1
 82 423 l 1
 80 581 l 1
 499 581 l 1
EndSplineSet
EndChar

StartChar: eight
Encoding: 56 56 25
Width: 580
Flags: MW
HStem: -3 20<255.5 338.5> 566 17<307 307>
VStem: 107 106<409.48 499.686> 390 106<74.5875 195.89>
LayerCount: 2
Back
Fore
SplineSet
496 148 m 0
 500 54 402 -3 309 -3 c 0
 202 -3 82 63 83 161 c 0
 85 236 173 271 226 303 c 1
 184 337 109 380 107 441 c 0
 105 520 225 583 307 583 c 0
 382 583 456 516 458 452 c 0
 460 378 397 351 339 318 c 1
 408 277 493 227 496 148 c 0
414 459 m 0
 413 504 352 564 307 566 c 0
 254 569 211 522 213 469 c 0
 215 413 268 364 318 332 c 1
 366 362 417 389 414 459 c 0
390 145 m 0
 388 208 316 238 246 289 c 1
 206 262 161 231 161 180 c 0
 161 118 202 17 309 17 c 0
 368 17 392 69 390 145 c 0
EndSplineSet
EndChar

StartChar: nine
Encoding: 57 57 26
Width: 580
Flags: MW
HStem: 196 20<304 304> 555 17<304 304>
VStem: 62 132 414 104
LayerCount: 2
Back
Fore
SplineSet
412 261 m 1
 385 222 347 196 304 196 c 0
 -31 200 -7 573 304 572 c 0
 636 571 523 165 361 44 c 0
 331 22 314 7 279 -9 c 1
 282 35 l 1
 321 68 373 110 391 159 c 0
 404 197 412 223 412 261 c 1
304 216 m 0
 455 214 447 555 304 555 c 0
 160 555 154 218 304 216 c 0
EndSplineSet
EndChar

StartChar: less
Encoding: 60 60 29
Width: 521
Flags: MW
VStem: 43 85<270 282>
LayerCount: 2
Back
Fore
SplineSet
457 61 m 1
 43 236 l 1
 43 318 l 1
 457 483 l 1
 457 409 l 1
 128 282 l 1
 128 270 l 1
 457 136 l 1
 457 61 l 1
EndSplineSet
EndChar

StartChar: equal
Encoding: 61 61 30
Width: 343
Flags: MW
HStem: 187 59<33 312> 295 59<33 312>
VStem: 33 279<187 246 295 354>
LayerCount: 2
Back
Fore
SplineSet
312 295 m 1
 33 295 l 1
 33 354 l 1
 312 354 l 1
 312 295 l 1
312 187 m 1
 33 187 l 1
 33 246 l 1
 312 246 l 1
 312 187 l 1
EndSplineSet
EndChar

StartChar: greater
Encoding: 62 62 31
Width: 459
Flags: W
LayerCount: 2
Back
Fore
SplineSet
38 61 m 1
 452 236 l 1
 452 318 l 1
 38 483 l 1
 38 409 l 1
 367 282 l 1
 367 270 l 1
 38 136 l 1
 38 61 l 1
EndSplineSet
EndChar

StartChar: question
Encoding: 63 63 32
Width: 462
Flags: MW
HStem: -35 124 665 26<136.539 232.498>
VStem: 121 124 289 143<450.708 602.364>
LayerCount: 2
Back
Fore
SplineSet
432 536 m 0
 439 365 213 341 193 189 c 0
 190 165 189 153 188 129 c 1
 163 129 l 1
 161 154 162 169 163 194 c 0
 171 338 291 396 289 540 c 0
 287 627 239 667 183 665 c 0
 147 663 116 647 98 613 c 1
 132 613 152 610 151 567 c 0
 148 468 15 467 21 577 c 0
 25 643 106 690 171 691 c 0
 324 695 428 637 432 536 c 0
217 78 m 0
 285 33 218 -69 149 -25 c 0
 81 20 148 122 217 78 c 0
EndSplineSet
EndChar

StartChar: at
Encoding: 64 64 33
Width: 794
Flags: MW
HStem: -25 58<425 425> 160 58 519 62 699 56<416 416>
VStem: 9 71 158 124 453 108<264 271 271 485 485 485> 671 66
LayerCount: 2
Back
Fore
SplineSet
737 140 m 1
 659 44 548 -27 425 -25 c 0
 -200 -14 -53 743 416 755 c 0
 630 760 751 580 737 354 c 0
 729 218 669 170 594 180 c 0
 546 187 524 212 508 259 c 1
 505 232 453 162 388 160 c 0
 42 147 117 594 400 581 c 0
 433 579 474 547 487 524 c 1
 561 558 l 1
 561 271 l 2
 561 237 566 221 601 218 c 0
 654 213 670 298 671 373 c 0
 674 607 577 698 416 699 c 0
 35 703 -98 61 425 33 c 0
 515 28 573 52 643 109 c 1
 737 140 l 1
453 264 m 1
 453 485 l 1
 428 506 411 517 380 519 c 0
 256 526 237 209 391 218 c 0
 421 220 434 241 453 264 c 1
EndSplineSet
EndChar

StartChar: A
Encoding: 65 65 34
Width: 810
Flags: MW
HStem: 0 31<37 74 74 88.5 246 282 506 545 545 552.5 739 758> 310 32<293 468> 666 20<456 456>
VStem: 37 245<0 31> 506 252<0 31>
LayerCount: 2
Back
Fore
SplineSet
758 0 m 1
 506 0 l 1
 506 31 l 1
 545 31 l 2
 560 31 570 47 565 61 c 2
 479 310 l 1
 279 310 l 1
 199 111 l 2
 186 78 210 31 246 31 c 2
 282 31 l 1
 282 0 l 1
 37 0 l 1
 37 31 l 1
 74 31 l 2
 103 31 129 65 139 89 c 2
 369 625 l 1
 363 647 l 1
 456 686 l 1
 676 71 l 2
 684 48 716 31 739 31 c 2
 758 31 l 1
 758 0 l 1
468 342 m 1
 389 575 l 1
 293 342 l 1
 468 342 l 1
EndSplineSet
EndChar

StartChar: B
Encoding: 66 66 35
Width: 629
Flags: MW
HStem: 0 30<22 75 75 84> 357 35<215 327 327 359> 631 30<22 75>
VStem: 110 105<74 86 86 357 392 575> 482 102<131.397 287.987>
LayerCount: 2
Back
Fore
SplineSet
584 220 m 0
 587 103 477 0 331 0 c 2
 22 0 l 1
 22 30 l 1
 75 30 l 2
 93 30 110 50 110 67 c 2
 110 594 l 2
 110 611 93 631 75 631 c 2
 22 631 l 1
 22 661 l 1
 365 661 l 2
 472 661 560 630 560 535 c 0
 560 462 527 412 476 382 c 1
 546 357 582 300 584 220 c 0
462 535 m 0
 462 593 416 625 360 625 c 2
 252 625 l 2
 226 625 215 597 215 575 c 2
 215 392 l 1
 327 392 l 2
 405 392 462 456 462 535 c 0
482 206 m 0
 482 279 431 357 359 357 c 2
 215 357 l 1
 215 86 l 2
 215 62 223 36 252 36 c 2
 324 36 l 2
 417 36 482 135 482 206 c 0
EndSplineSet
EndChar

StartChar: C
Encoding: 67 67 36
Width: 618
Flags: MW
HStem: -2 19<274.209 377.484> 665 14<303.47 383.207>
VStem: 22 114<178.3 454.062>
LayerCount: 2
Back
Fore
SplineSet
594 228 m 1
 549 -1 l 1
 523 -1 l 1
 525 18 510 36 491 36 c 0
 436 35 395 0 334 -2 c 0
 94 -12 22 150 22 323 c 0
 22 487 115 681 345 679 c 0
 447 678 463 625 493 629 c 0
 515 632 530 656 541 673 c 1
 565 673 l 1
 576 446 l 1
 550 446 l 1
 525 540 452 665 342 665 c 0
 217 665 138 494 136 336 c 0
 134 192 186 17 321 17 c 0
 393 17 483 65 534 143 c 0
 554 174 564 193 574 228 c 1
 594 228 l 1
EndSplineSet
EndChar

StartChar: D
Encoding: 68 68 37
Width: 792
Flags: MW
HStem: 0 30<23 76 76 85> 625 36<240.5 253 253 396>
VStem: 111 105<75.5 86 86 575> 607 112
LayerCount: 2
Back
Fore
SplineSet
719 347 m 0
 720 172 557 0 329 0 c 2
 23 0 l 1
 23 30 l 1
 76 30 l 2
 94 30 111 50 111 67 c 2
 111 594 l 2
 111 611 94 631 76 631 c 2
 23 631 l 1
 23 661 l 1
 429 661 l 2
 637 661 718 484 719 347 c 0
607 359 m 0
 598 493 530 625 396 625 c 2
 253 625 l 2
 228 625 216 596 216 575 c 2
 216 86 l 2
 216 65 228 36 253 36 c 2
 347 36 l 2
 510 36 617 196 607 359 c 0
EndSplineSet
EndChar

StartChar: E
Encoding: 69 69 38
Width: 639
Flags: MW
HStem: 0 36<253 381 381 421.5> 348 32<215 315> 625 36<240 253 253 381>
VStem: 110 105<74.5 86 86 348 380 575> 414 24<234 252 252 276.5 470 488>
LayerCount: 2
Back
Fore
SplineSet
586 196 m 1
 534 0 l 1
 22 0 l 1
 22 30 l 1
 75 30 l 2
 93 30 110 50 110 67 c 2
 110 594 l 2
 110 611 93 631 75 631 c 2
 22 631 l 1
 22 661 l 1
 542 661 l 1
 586 461 l 1
 560 461 l 1
 547 491 l 2
 515 566 468 625 381 625 c 2
 253 625 l 2
 227 625 215 598 215 575 c 2
 215 380 l 1
 315 380 l 2
 363 380 414 419 414 470 c 2
 414 488 l 1
 438 488 l 1
 438 234 l 1
 414 234 l 1
 414 252 l 2
 414 301 363 348 315 348 c 2
 215 348 l 1
 215 86 l 2
 215 63 227 36 253 36 c 2
 381 36 l 2
 462 36 517 93 547 165 c 2
 560 196 l 1
 586 196 l 1
EndSplineSet
EndChar

StartChar: F
Encoding: 70 70 39
Width: 592
Flags: MW
HStem: 0 30<24 77 77 86 252 305> 344 33<217 314> 631 30<24 77>
VStem: 113 104<67 344 377 570> 413 24<234 252 252 279 470 488>
LayerCount: 2
Back
Fore
SplineSet
547 470 m 1
 526 470 l 1
 519 502 l 2
 503 573 452 621 380 621 c 2
 255 621 l 2
 229 621 217 592 217 570 c 2
 217 377 l 1
 314 377 l 2
 364 377 413 419 413 470 c 2
 413 488 l 1
 437 488 l 1
 437 234 l 1
 413 234 l 1
 413 252 l 2
 413 306 363 344 314 344 c 2
 217 344 l 1
 217 67 l 2
 217 49 234 30 252 30 c 2
 305 30 l 1
 305 0 l 1
 24 0 l 1
 24 30 l 1
 77 30 l 2
 95 30 113 49 113 67 c 2
 113 594 l 2
 113 612 95 631 77 631 c 2
 24 631 l 1
 24 661 l 1
 526 661 l 1
 547 470 l 1
EndSplineSet
EndChar

StartChar: G
Encoding: 71 71 40
Width: 714
Flags: MW
HStem: -6 25<287.762 425.825> 339 24<435 466 622.5 634 634 679> 639 23
VStem: 27 107<222.991 436.191> 499 105<91 295>
LayerCount: 2
Back
Fore
SplineSet
679 339 m 1
 634 339 l 2
 611 339 604 313 604 295 c 2
 604 68 l 1
 553 82 l 1
 503 19 419 -3 342 -6 c 0
 174 -12 26 165 27 332 c 0
 27 496 184 667 334 664 c 0
 410 662 445 652 499 602 c 1
 540 658 l 1
 569 658 l 1
 582 440 l 1
 562 440 l 1
 533 543 445 648 329 639 c 0
 205 629 133 461 134 324 c 0
 136 180 205 15 358 19 c 0
 423 21 464 38 499 91 c 1
 499 295 l 2
 499 316 492 339 466 339 c 2
 435 339 l 1
 435 363 l 1
 679 363 l 1
 679 339 l 1
EndSplineSet
EndChar

StartChar: H
Encoding: 72 72 41
Width: 818
Flags: MW
HStem: 0 30<45 98 98 107 273 325 467 520 520 529 695 748> 332 29<238 555> 631 30<45 98 263.5 273 273 325 467 520 685.5 695 695 748>
VStem: 133 105<67 332 361 594> 555 105<67 332 332 332 361 594>
LayerCount: 2
Back
Fore
SplineSet
748 0 m 1
 467 0 l 1
 467 30 l 1
 520 30 l 2
 538 30 555 50 555 67 c 2
 555 332 l 1
 238 332 l 1
 238 67 l 2
 238 48 254 30 273 30 c 2
 325 30 l 1
 325 0 l 1
 45 0 l 1
 45 30 l 1
 98 30 l 2
 116 30 133 50 133 67 c 2
 133 594 l 2
 133 611 116 631 98 631 c 2
 45 631 l 1
 45 661 l 1
 325 661 l 1
 325 631 l 1
 273 631 l 2
 254 631 238 613 238 594 c 2
 238 361 l 1
 555 361 l 1
 555 594 l 2
 555 611 538 631 520 631 c 2
 467 631 l 1
 467 661 l 1
 748 661 l 1
 748 631 l 1
 695 631 l 2
 676 631 660 613 660 594 c 2
 660 67 l 2
 660 48 676 30 695 30 c 2
 748 30 l 1
 748 0 l 1
EndSplineSet
EndChar

StartChar: I
Encoding: 73 73 42
Width: 395
Flags: MW
HStem: 0 30<45 98 98 107 273 325> 631 30<45 98 263.5 273 273 325>
VStem: 133 105<67 594>
LayerCount: 2
Back
Fore
SplineSet
325 0 m 1
 45 0 l 1
 45 30 l 1
 98 30 l 2
 116 30 133 50 133 67 c 2
 133 594 l 2
 133 611 116 631 98 631 c 2
 45 631 l 1
 45 661 l 1
 325 661 l 1
 325 631 l 1
 273 631 l 2
 254 631 238 613 238 594 c 2
 238 67 l 2
 238 48 254 30 273 30 c 2
 325 30 l 1
 325 0 l 1
EndSplineSet
EndChar

StartChar: J
Encoding: 74 74 43
Width: 379
Flags: MW
HStem: -106 129<24.5093 62.2979> 631 30<92 145 310.5 320 320 373>
VStem: 3 106<-44.5 -24> 180 105<75.5 133 133 594>
LayerCount: 2
Back
Fore
SplineSet
373 631 m 1
 320 631 l 2
 301 631 285 613 285 594 c 2
 285 133 l 2
 285 18 230 -106 94 -106 c 0
 46 -106 3 -84 3 -36 c 0
 3 -12 31 23 56 23 c 0
 83 23 109 -12 109 -30 c 0
 109 -59 86 -70 63 -76 c 1
 70 -82 88 -89 105 -85 c 0
 170 -69 180 11 180 71 c 2
 180 594 l 2
 180 611 163 631 145 631 c 2
 92 631 l 1
 92 661 l 1
 373 661 l 1
 373 631 l 1
EndSplineSet
EndChar

StartChar: K
Encoding: 75 75 44
Width: 765
Flags: MW
HStem: 0 31<474 504 504 516.5 682 719> 631 30<39 91 256.5 266 266 319>
VStem: 127 105<67 280 314 594> 404 242<630 661>
LayerCount: 2
Back
Fore
SplineSet
719 0 m 1
 474 0 l 1
 474 31 l 1
 504 31 l 2
 529 31 519 58 510 71 c 2
 312 360 l 1
 232 280 l 1
 232 67 l 2
 232 49 247 30 266 30 c 2
 319 30 l 1
 319 0 l 1
 39 0 l 1
 39 30 l 1
 91 30 l 2
 110 30 127 49 127 67 c 2
 127 594 l 2
 127 612 110 631 91 631 c 2
 39 631 l 1
 39 661 l 1
 319 661 l 1
 319 631 l 1
 266 631 l 2
 247 631 232 612 232 594 c 2
 232 314 l 1
 428 514 l 2
 461 547 517 630 423 630 c 2
 404 630 l 1
 404 661 l 1
 646 661 l 1
 646 630 l 1
 539 607 460 515 387 438 c 1
 630 69 l 2
 638 57 666 31 682 31 c 2
 719 31 l 1
 719 0 l 1
EndSplineSet
EndChar

StartChar: L
Encoding: 76 76 45
Width: 602
Flags: MW
HStem: 0 30<28 81 81 95> 631 30<28 81 246.5 256 256 309>
VStem: 117 105<82 594>
LayerCount: 2
Back
Fore
SplineSet
589 179 m 1
 539 0 l 1
 28 0 l 1
 28 30 l 1
 81 30 l 2
 109 30 117 59 117 82 c 2
 117 594 l 2
 117 612 99 631 81 631 c 2
 28 631 l 1
 28 661 l 1
 309 661 l 1
 309 631 l 1
 256 631 l 2
 237 631 222 612 222 594 c 2
 222 79 l 2
 222 56 234 29 260 29 c 2
 380 29 l 2
 460 29 546 103 568 179 c 1
 589 179 l 1
EndSplineSet
EndChar

StartChar: M
Encoding: 77 77 46
Width: 996
Flags: MW
HStem: 0 30<645 698 698 707 873 926> 631 30<70 123 863.5 873 873 926>
VStem: 45 241<0 31> 734 105<67 594>
LayerCount: 2
Back
Fore
SplineSet
926 0 m 1
 645 0 l 1
 645 30 l 1
 698 30 l 2
 716 30 734 49 734 67 c 2
 734 607 l 1
 503 0 l 1
 418 0 l 1
 184 594 l 1
 184 123 l 2
 184 87 205 31 249 31 c 2
 286 31 l 1
 286 0 l 1
 45 0 l 1
 45 31 l 1
 94 31 l 2
 137 31 158 88 158 123 c 2
 158 594 l 2
 158 611 141 631 123 631 c 2
 70 631 l 1
 70 661 l 1
 271 661 l 1
 507 62 l 1
 736 661 l 1
 926 661 l 1
 926 631 l 1
 873 631 l 2
 854 631 839 612 839 594 c 2
 839 67 l 2
 839 49 854 30 873 30 c 2
 926 30 l 1
 926 0 l 1
EndSplineSet
EndChar

StartChar: N
Encoding: 78 78 47
Width: 764
Flags: MW
HStem: 0 31<37 86 86 107.5 241 279> 630 31<528 566 698.5 721 721 769>
VStem: 37 242<0 31> 528 241<630 661>
LayerCount: 2
Back
Fore
SplineSet
769 630 m 1
 721 630 l 2
 676 630 656 575 656 538 c 2
 656 0 l 1
 564 0 l 1
 176 598 l 1
 176 123 l 2
 176 88 198 31 241 31 c 2
 279 31 l 1
 279 0 l 1
 37 0 l 1
 37 31 l 1
 86 31 l 2
 129 31 151 88 151 123 c 2
 151 594 l 2
 151 612 133 631 115 631 c 2
 63 631 l 1
 63 661 l 1
 247 661 l 1
 630 80 l 1
 630 538 l 2
 630 575 612 630 566 630 c 2
 528 630 l 1
 528 661 l 1
 769 661 l 1
 769 630 l 1
EndSplineSet
EndChar

StartChar: O
Encoding: 79 79 48
Width: 813
Flags: MW
HStem: -21 21<241.5 559> 650 21<240.5 558>
VStem: 32 130 638 125
LayerCount: 2
Back
Fore
SplineSet
399 -21 m 0
 -90 -21 -91 671 399 671 c 0
 885 671 885 -21 399 -21 c 0
399 0 m 0
 719 0 717 650 399 650 c 0
 82 650 84 0 399 0 c 0
EndSplineSet
EndChar

StartChar: P
Encoding: 80 80 49
Width: 559
Flags: MW
HStem: 0 30<30 83 83 92 258 310> 363 26<223 322 322 331> 632 29<223 323 223 223>
VStem: 118 105<67 363 389 600 600 609> 443 100
LayerCount: 2
Back
Fore
SplineSet
543 537 m 0
 552 413 423 363 331 363 c 2
 223 363 l 1
 223 67 l 2
 223 48 239 30 258 30 c 2
 310 30 l 1
 310 0 l 1
 30 0 l 1
 30 30 l 1
 83 30 l 2
 101 30 118 50 118 67 c 2
 118 600 l 2
 118 618 102 638 83 638 c 2
 30 638 l 1
 30 661 l 1
 346 661 l 2
 421 661 536 636 543 537 c 0
443 535 m 0
 443 598 384 632 323 632 c 2
 223 632 l 1
 223 389 l 1
 322 389 l 2
 404 389 444 435 443 535 c 0
EndSplineSet
EndChar

StartChar: Q
Encoding: 81 81 50
Width: 791
Flags: MW
HStem: -100 73<413.079 519.196> -10 29 645 21<207 504>
VStem: 2 113 149 111 587 132
LayerCount: 2
Back
Fore
SplineSet
568 27 m 1
 568 -35 527 -98 460 -100 c 0
 371 -103 308 -12 244 -10 c 0
 221 -9 200 -9 192 -35 c 1
 241 22 315 -108 198 -108 c 0
 177 -108 149 -80 149 -61 c 0
 149 -26 188 -4 220 6 c 1
 -56 70 -127 666 349 666 c 0
 812 666 848 62 412 -15 c 1
 435 -22 459 -27 487 -27 c 0
 518 -27 560 -8 560 27 c 1
 568 27 l 1
365 2 m 1
 666 22 659 645 349 645 c 0
 65 645 40 118 268 17 c 1
 303 24 332 12 365 2 c 1
EndSplineSet
EndChar

StartChar: R
Encoding: 82 82 51
Width: 754
Flags: MW
HStem: 0 30<26 79 79 88 254 306> 363 33<219 326> 625 36<219 334 219 219>
VStem: 114 105<67 363 396 593 593 602> 455 111
LayerCount: 2
Back
Fore
SplineSet
701 0 m 1
 587 0 l 2
 544 0 522 22 502 57 c 2
 326 363 l 1
 219 363 l 1
 219 67 l 2
 219 48 235 30 254 30 c 2
 306 30 l 1
 306 0 l 1
 26 0 l 1
 26 30 l 1
 79 30 l 2
 97 30 114 50 114 67 c 2
 114 593 l 2
 114 611 98 631 79 631 c 2
 26 631 l 1
 26 661 l 1
 369 661 l 2
 444 661 559 636 566 537 c 0
 574 427 512 374 434 365 c 1
 607 72 l 2
 626 40 651 24 688 24 c 2
 701 24 l 1
 701 0 l 1
455 535 m 0
 455 598 395 625 334 625 c 2
 219 625 l 1
 219 396 l 1
 333 396 l 2
 415 396 456 435 455 535 c 0
EndSplineSet
EndChar

StartChar: S
Encoding: 83 83 52
Width: 573
Flags: MW
HStem: -10 26<256 349> 651 23<239 313>
VStem: 35 111<471.836 562.625> 415 103<135.5 228>
LayerCount: 2
Back
Fore
SplineSet
518 174 m 0
 518 97 437 -10 291 -10 c 0
 209 -10 175 35 120 40 c 0
 109 41 79 7 72 -2 c 1
 55 -2 l 1
 44 215 l 1
 64 215 l 1
 93 107 199 16 313 16 c 0
 385 16 415 51 415 131 c 0
 415 325 36 289 35 490 c 0
 34 594 154 674 259 674 c 0
 367 674 374 628 423 633 c 0
 437 634 463 664 471 676 c 1
 488 676 l 1
 502 452 l 1
 482 452 l 1
 456 548 384 651 275 651 c 0
 203 651 145 597 146 525 c 0
 148 372 518 381 518 174 c 0
EndSplineSet
EndChar

StartChar: T
Encoding: 84 84 53
Width: 782
Flags: MW
HStem: 0 30<251 304 304 313 479 532> 624 37<216 261 261 302 468.5 481 481 561>
VStem: 339 105<67 574>
LayerCount: 2
Back
Fore
SplineSet
766 484 m 1
 740 483 l 1
 719 565 642 624 561 624 c 2
 481 624 l 2
 456 624 444 595 444 574 c 2
 444 67 l 2
 444 48 460 30 479 30 c 2
 532 30 l 1
 532 0 l 1
 251 0 l 1
 251 30 l 1
 304 30 l 2
 322 30 339 50 339 67 c 2
 339 574 l 2
 339 597 328 624 302 624 c 2
 261 624 l 2
 171 624 88 579 69 483 c 1
 41 484 l 1
 99 661 l 1
 709 661 l 1
 766 484 l 1
EndSplineSet
EndChar

StartChar: U
Encoding: 85 85 54
Width: 717
Flags: MW
HStem: -14 25<314.128 441.576> 631 30<40 93 258.5 268 268 321 488 540 651.5 661 661 714>
VStem: 128 105<181 594> 576 50<209 220 220 594>
LayerCount: 2
Back
Fore
SplineSet
714 631 m 1
 661 631 l 2
 642 631 626 613 626 594 c 2
 626 220 l 2
 626 104 498 -15 386 -14 c 0
 240 -12 128 20 128 181 c 2
 128 594 l 2
 128 611 111 631 93 631 c 2
 40 631 l 1
 40 661 l 1
 321 661 l 1
 321 631 l 1
 268 631 l 2
 249 631 233 613 233 594 c 2
 233 132 l 2
 233 54 300 11 383 11 c 0
 481 11 576 107 576 209 c 2
 576 594 l 2
 576 612 559 631 540 631 c 2
 488 631 l 1
 488 661 l 1
 714 661 l 1
 714 631 l 1
EndSplineSet
EndChar

StartChar: V
Encoding: 86 86 55
Width: 674
Flags: MW
HStem: 0 20 630 31<41 54 218.5 233 233 278 497 522 683.5 710 710 722>
VStem: 41 237<630 661> 497 225<630 661>
LayerCount: 2
Back
Fore
SplineSet
722 630 m 1
 710 630 l 2
 657 630 604 553 587 508 c 1
 401 0 l 1
 321 0 l 1
 109 583 l 1
 100 609 83 630 54 630 c 2
 41 630 l 1
 41 661 l 1
 278 661 l 1
 278 630 l 1
 233 630 l 2
 204 630 211 599 217 581 c 1
 402 73 l 1
 560 500 l 2
 581 557 610 630 522 630 c 2
 497 630 l 1
 497 661 l 1
 722 661 l 1
 722 630 l 1
EndSplineSet
EndChar

StartChar: W
Encoding: 87 87 56
Width: 1022
Flags: MW
HStem: 0 20 630 31<41 54 222.5 237 237 282 411 424 597 611 611 649 867 892 1045.5 1076 1076 1095>
VStem: 41 241<630 661> 411 238<630 661> 867 228<630 661>
LayerCount: 2
Back
Fore
SplineSet
1095 630 m 1
 1076 630 l 2
 1015 630 980 564 961 513 c 2
 771 0 l 1
 692 0 l 1
 692 0 547 411 546 411 c 1
 401 0 l 1
 321 0 l 1
 109 583 l 1
 100 609 83 630 54 630 c 2
 41 630 l 1
 41 661 l 1
 282 661 l 1
 282 630 l 1
 237 630 l 2
 208 630 215 599 221 581 c 1
 403 79 l 1
 532 439 l 1
 480 583 l 2
 471 609 452 630 424 630 c 2
 411 630 l 1
 411 661 l 1
 649 661 l 1
 649 630 l 1
 611 630 l 2
 583 630 580 602 588 581 c 2
 775 82 l 1
 930 500 l 1
 945 539 957 630 892 630 c 2
 867 630 l 1
 867 661 l 1
 1095 661 l 1
 1095 630 l 1
EndSplineSet
EndChar

StartChar: X
Encoding: 88 88 57
Width: 733
Flags: MW
HStem: 0 28<30 46 46 76.5 230 255 411 456 456 467.5> 633 28<74 101>
VStem: 30 225<0 28> 450 225<630 661>
LayerCount: 2
Back
Fore
SplineSet
675 630 m 1
 654 630 l 2
 593 630 549 566 516 522 c 2
 399 366 l 1
 400 366 578 72 578 72 c 2
 585 60 619 25 634 25 c 2
 670 25 l 1
 670 0 l 1
 411 0 l 1
 411 28 l 1
 456 28 l 2
 479 28 475 65 467 78 c 2
 340 289 l 1
 235 151 l 2
 204 110 165 28 230 28 c 2
 255 28 l 1
 255 0 l 1
 30 0 l 1
 30 28 l 1
 46 28 l 2
 107 28 157 91 191 136 c 2
 325 314 l 1
 155 585 l 2
 144 602 124 633 101 633 c 2
 74 633 l 1
 74 661 l 1
 311 661 l 1
 311 630 l 1
 266 630 l 2
 235 630 249 596 259 581 c 2
 381 390 l 1
 466 501 l 2
 497 542 540 630 475 630 c 2
 450 630 l 1
 450 661 l 1
 675 661 l 1
 675 630 l 1
EndSplineSet
EndChar

StartChar: Y
Encoding: 89 89 58
Width: 630
Flags: MW
HStem: 0 30<183 236 236 245 411 464> 633 28<48 56>
VStem: 272 105<67 334 334 334> 451 224<630 661>
LayerCount: 2
Back
Fore
SplineSet
675 630 m 1
 640 630 l 2
 600 630 538 551 516 522 c 2
 377 335 l 1
 377 67 l 2
 377 49 392 30 411 30 c 2
 464 30 l 1
 464 0 l 1
 183 0 l 1
 183 30 l 1
 236 30 l 2
 254 30 272 49 272 67 c 2
 272 334 l 1
 123 585 l 2
 110 607 83 633 56 633 c 2
 48 633 l 1
 48 661 l 1
 288 661 l 1
 288 630 l 1
 259 630 l 2
 224 630 216 612 234 581 c 2
 366 357 l 1
 469 501 l 2
 487 526 555 630 477 630 c 2
 451 630 l 1
 451 661 l 1
 675 661 l 1
 675 630 l 1
EndSplineSet
EndChar

StartChar: Z
Encoding: 90 90 59
Width: 640
Flags: MW
HStem: 0 31<180 364 364 402.5> 630 31<244.5 278 278 448>
LayerCount: 2
Back
Fore
SplineSet
594 206 m 1
 535 0 l 1
 49 0 l 1
 49 21 l 1
 448 630 l 1
 278 630 l 2
 211 630 126 584 107 515 c 2
 94 469 l 1
 67 469 l 1
 112 661 l 1
 571 661 l 1
 571 639 l 1
 180 31 l 1
 364 31 l 2
 441 31 515 88 547 157 c 2
 569 204 l 1
 594 206 l 1
EndSplineSet
EndChar

StartChar: bracketleft
Encoding: 91 91 60
Width: 294
Flags: MW
HStem: -210 36<181 315> 634 36<181 315 181 181>
VStem: 75 106<-174 634>
LayerCount: 2
Back
Fore
SplineSet
315 -210 m 1
 75 -210 l 1
 75 670 l 1
 315 670 l 1
 315 634 l 1
 181 634 l 1
 181 -174 l 1
 315 -174 l 1
 315 -210 l 1
EndSplineSet
EndChar

StartChar: backslash
Encoding: 92 92 61
Width: 449
Flags: MW
HStem: -19 20
LayerCount: 2
Back
Fore
SplineSet
406 -19 m 1
 350 -19 l 1
 38 581 l 1
 94 581 l 1
 406 -19 l 1
EndSplineSet
EndChar

StartChar: bracketright
Encoding: 93 93 62
Width: 398
Flags: MW
HStem: -210 36<74 203> 634 36<74 203>
VStem: 203 111<-174 634 634 634>
LayerCount: 2
Back
Fore
SplineSet
314 -210 m 1
 74 -210 l 1
 74 -174 l 1
 203 -174 l 1
 203 634 l 1
 74 634 l 1
 74 670 l 1
 314 670 l 1
 314 -210 l 1
EndSplineSet
EndChar

StartChar: asciicircum
Encoding: 94 94 63
Width: 418
Flags: MW
HStem: 465 90<191 202 191 191>
LayerCount: 2
Back
Fore
SplineSet
352 368 m 1
 306 368 l 1
 202 465 l 1
 191 465 l 1
 88 368 l 1
 38 368 l 1
 183 555 l 1
 208 555 l 1
 352 368 l 1
EndSplineSet
EndChar

StartChar: underscore
Encoding: 95 95 64
Width: 527
Flags: MW
HStem: -215 55<70 565>
LayerCount: 2
Back
Fore
SplineSet
565 -215 m 1
 70 -215 l 1
 70 -160 l 1
 565 -160 l 1
 565 -215 l 1
EndSplineSet
EndChar

StartChar: grave
Encoding: 96 96 65
Width: 207
Flags: W
LayerCount: 2
Back
Fore
SplineSet
222 628 m 1
 175 628 l 1
 47 737 l 1
 137 737 l 1
 222 628 l 1
EndSplineSet
EndChar

StartChar: a
Encoding: 97 97 66
Width: 527
Flags: MW
HStem: -9 47<205.5 226> 436 36<190.075 295.313>
VStem: 40 106 313 106<124 245 245 245 280 380 380 389>
LayerCount: 2
Back
Fore
SplineSet
489 43 m 2
 489 7 444 -6 415 -9 c 0
 361 -14 316 18 313 72 c 1
 292 33 249 -9 203 -9 c 0
 129 -9 37 26 40 104 c 0
 45 246 233 215 313 280 c 1
 313 380 l 2
 313 416 279 436 246 436 c 0
 223 436 200 435 180 423 c 1
 183 405 178 397 174 379 c 0
 166 346 157 309 124 309 c 0
 31 308 87 475 301 472 c 0
 327 472 419 456 419 389 c 2
 419 77 l 2
 419 58 430 37 450 38 c 0
 467 39 483 65 489 80 c 1
 489 43 l 2
313 124 m 1
 313 245 l 1
 269 210 152 221 146 134 c 0
 139 39 177 38 234 38 c 0
 267 38 300 97 313 124 c 1
EndSplineSet
EndChar

StartChar: b
Encoding: 98 98 67
Width: 571
Flags: MW
HStem: -9 25<297 297>
VStem: 70 106<120 322 428 590 590 590> 423 120<152.984 344.247>
LayerCount: 2
Back
Fore
SplineSet
543 243 m 0
 546 109 397 -7 297 -9 c 0
 248 -10 182 3 149 32 c 0
 150 32 70 -9 70 -9 c 1
 70 590 l 1
 25 599 l 1
 25 619 l 1
 176 683 l 1
 176 428 l 1
 207 456 248 470 297 472 c 0
 419 476 540 411 543 243 c 0
423 239 m 0
 423 399 322 449 289 444 c 0
 199 431 176 386 176 322 c 2
 176 120 l 1
 185 58 215 14 297 16 c 0
 376 18 423 123 423 239 c 0
EndSplineSet
EndChar

StartChar: c
Encoding: 99 99 68
Width: 515
Flags: MW
HStem: -9 62<245.418 372.562> 448 24<314 314>
VStem: 53 121<134.354 322.853> 350 106
LayerCount: 2
Back
Fore
SplineSet
452 104 m 1
 424 42 368 -9 297 -9 c 0
 154 -9 52 108 53 226 c 0
 55 378 179 472 314 472 c 0
 458 471 499 312 405 306 c 0
 366 304 342 353 352 396 c 0
 355 409 365 416 373 426 c 1
 352 447 343 447 314 448 c 0
 226 451 177 361 174 276 c 0
 170 169 199 58 308 53 c 0
 376 50 422 102 452 157 c 1
 452 104 l 1
EndSplineSet
EndChar

StartChar: d
Encoding: 100 100 69
Width: 605
Flags: MW
HStem: -9 23 448 24<289 289>
VStem: 40 123<124.459 332.641> 407 106<127 292 292 355.5 432 589 589 589>
LayerCount: 2
Back
Fore
SplineSet
536 45 m 1
 407 -9 l 1
 407 21 l 1
 374 1 331 -8 289 -9 c 0
 168 -13 45 51 40 228 c 0
 36 386 166 471 289 472 c 0
 336 473 376 459 407 432 c 1
 407 589 l 1
 359 599 l 1
 362 621 l 1
 513 680 l 1
 513 82 l 1
 536 72 l 1
 536 45 l 1
407 127 m 1
 407 292 l 2
 407 419 386 448 289 448 c 0
 191 447 166 336 163 239 c 0
 161 135 188 5 291 14 c 0
 367 20 397 51 407 127 c 1
EndSplineSet
EndChar

StartChar: e
Encoding: 101 101 70
Width: 535
Flags: MW
HStem: -9 115<252.5 318.5> 290 28<168 386> 456 16<257.5 328>
VStem: 47 108<171.47 286.049>
LayerCount: 2
Back
Fore
SplineSet
493 290 m 1
 163 290 l 1
 161 276 155 261 155 246 c 0
 155 162 224 106 281 106 c 0
 364 106 449 129 489 205 c 1
 489 92 l 1
 461 35 349 -9 288 -9 c 0
 169 -9 41 80 47 242 c 0
 51 361 168 472 294 472 c 0
 389 472 493 418 493 290 c 1
386 318 m 1
 386 376 362 456 294 456 c 0
 221 456 184 392 168 318 c 1
 386 318 l 1
EndSplineSet
EndChar

StartChar: f
Encoding: 102 102 71
Width: 326
Flags: MW
HStem: 0 24<27 71 71 77.5 228 273> 406 27<52 97 203 256> 653 12
VStem: 97 106<51 406 433 570 570 597> 263 100<596.866 643.89>
LayerCount: 2
Back
Fore
SplineSet
363 615 m 0
 365 557 263 548 263 628 c 0
 263 636 265 642 269 649 c 1
 245 659 203 653 203 619 c 2
 203 433 l 1
 256 433 l 1
 256 406 l 1
 203 406 l 1
 203 51 l 2
 203 38 214 24 228 24 c 2
 273 24 l 1
 273 0 l 1
 27 0 l 1
 27 24 l 1
 71 24 l 2
 84 24 97 38 97 51 c 2
 97 406 l 1
 52 406 l 1
 52 433 l 1
 97 433 l 1
 97 570 l 2
 97 624 189 665 243 665 c 0
 304 665 362 647 363 615 c 0
EndSplineSet
EndChar

StartChar: g
Encoding: 103 103 72
Width: 517
Flags: MW
HStem: -212 31<193.5 269.5> 158 18<215 265.5> 453 13<169.5 258.5>
VStem: 38 106 289 97
LayerCount: 2
Back
Fore
SplineSet
447 -57 m 0
 446 -163 344 -212 231 -212 c 0
 137 -212 12 -190 14 -94 c 0
 15 -51 82 0 120 17 c 1
 82 30 51 77 51 106 c 0
 51 151 108 167 155 172 c 1
 16 169 -40 466 218 466 c 0
 299 466 322 445 346 419 c 1
 346 440 l 2
 346 445 348 450 347 456 c 0
 338 557 467 532 462 464 c 0
 458 413 412 399 379 413 c 0
 367 417 371 409 364 420 c 1
 364 420 364 396 364 395 c 0
 408 319 400 158 218 158 c 0
 212 158 206 158 200 159 c 1
 161 156 124 158 124 131 c 0
 124 88 448 88 447 -57 c 0
218 176 m 0
 313 176 313 453 218 453 c 0
 121 453 117 176 218 176 c 0
373 -91 m 0
 373 -48 246 -17 149 10 c 1
 111 -17 81 -44 82 -94 c 0
 83 -170 156 -181 231 -181 c 0
 308 -181 374 -168 373 -91 c 0
EndSplineSet
EndChar

StartChar: h
Encoding: 104 104 73
Width: 608
Flags: MW
HStem: 0 24<28 72 72 78.5 229 274 342 387 387 393.5 543 588> 437 35 645 20<204 204>
VStem: 98 106<51 366 402 561 561 561> 412 106<51 358 358 379.5>
LayerCount: 2
Back
Fore
SplineSet
588 0 m 1
 342 0 l 1
 342 24 l 1
 387 24 l 2
 400 24 412 38 412 51 c 2
 412 358 l 2
 412 401 375 439 332 437 c 0
 283 435 230 396 204 366 c 1
 204 51 l 2
 204 38 215 24 229 24 c 2
 274 24 l 1
 274 0 l 1
 28 0 l 1
 28 24 l 1
 72 24 l 2
 85 24 98 38 98 51 c 2
 98 561 l 1
 43 577 l 1
 43 598 l 1
 204 665 l 1
 204 402 l 1
 235 435 291 469 346 472 c 0
 401 476 518 453 518 387 c 2
 518 51 l 2
 518 39 530 24 543 24 c 2
 588 24 l 1
 588 0 l 1
EndSplineSet
EndChar

StartChar: i
Encoding: 105 105 74
Width: 294
Flags: MW
HStem: 0 20<31 90.9721 218.028 278> 540 86
VStem: 102 85<555 612>
LayerCount: 2
Back
Fore
SplineSet
187 583 m 0
 187 527 102 527 102 583 c 0
 102 641 187 641 187 583 c 0
278 0 m 1
 31 0 l 1
 31 24 l 1
 76 24 l 2
 89 24 102 38 102 51 c 2
 102 372 l 1
 49 390 l 1
 49 407 l 1
 207 474 l 1
 207 51 l 2
 207 38 220 24 233 24 c 2
 278 24 l 1
 278 0 l 1
EndSplineSet
EndChar

StartChar: j
Encoding: 106 106 75
Width: 318
Flags: MW
HStem: -150 117<47.0801 68.4195> 538 91
VStem: 5 93 131 106<-69 -35 -35 383 383 383>
LayerCount: 2
Back
Fore
SplineSet
213 583 m 0
 213 523 123 523 123 583 c 0
 123 644 213 644 213 583 c 0
237 -35 m 2
 237 -118 140 -151 85 -150 c 0
 -35 -147 2 -34 53 -33 c 0
 87 -32 117 -96 84 -117 c 0
 76 -122 70 -128 62 -132 c 1
 73 -132 91 -130 101 -125 c 0
 123 -113 131 -94 131 -69 c 2
 131 383 l 1
 91 396 l 1
 91 417 l 1
 237 474 l 1
 237 -35 l 2
EndSplineSet
EndChar

StartChar: k
Encoding: 107 107 76
Width: 649
Flags: MW
HStem: 0 26<28 72 72 78.5 229 274 341 386 386 393.5 550 596> 441 22<301 330> 650 20<204 204>
VStem: 98 106<53 184 217 566 566 566> 301 275<441 463>
LayerCount: 2
Back
Fore
SplineSet
596 0 m 1
 341 0 l 1
 341 26 l 1
 386 26 l 2
 401 26 395 39 390 46 c 2
 271 234 l 1
 204 184 l 1
 204 53 l 2
 204 40 215 26 229 26 c 2
 274 26 l 1
 274 0 l 1
 28 0 l 1
 28 26 l 1
 72 26 l 2
 85 26 98 40 98 53 c 2
 98 566 l 1
 43 581 l 1
 43 603 l 1
 204 670 l 1
 204 217 l 1
 334 340 l 2
 381 385 373 441 330 441 c 2
 301 441 l 1
 301 463 l 1
 576 463 l 1
 576 441 l 1
 527 435 494 414 457 383 c 2
 356 297 l 1
 517 46 l 1
 521 36 539 26 550 26 c 2
 596 26 l 1
 596 0 l 1
EndSplineSet
EndChar

StartChar: l
Encoding: 108 108 77
Width: 298
Flags: MW
HStem: 0 24<31 76 76 82.5 232 277> 650 20<207 207>
VStem: 101 106<51 566 566 566>
LayerCount: 2
Back
Fore
SplineSet
277 0 m 1
 31 0 l 1
 31 24 l 1
 76 24 l 2
 89 24 101 39 101 51 c 2
 101 566 l 1
 46 581 l 1
 46 603 l 1
 207 670 l 1
 207 51 l 2
 207 38 219 24 232 24 c 2
 277 24 l 1
 277 0 l 1
EndSplineSet
EndChar

StartChar: m
Encoding: 109 109 78
Width: 922
Flags: MW
HStem: 0 24<28 73 73 80 230 274 342 387 387 393.5 543 588 654 698 698 704.5 857 902> 439 33
VStem: 98 106<51 370> 412 106<51 360 360 371> 724 108<51 360 360 381.5>
LayerCount: 2
Back
Fore
SplineSet
902 0 m 1
 654 0 l 1
 654 24 l 1
 698 24 l 2
 711 24 724 38 724 51 c 2
 724 360 l 2
 724 403 687 441 644 439 c 0
 597 437 546 400 518 371 c 1
 518 51 l 2
 518 39 530 24 543 24 c 2
 588 24 l 1
 588 0 l 1
 342 0 l 1
 342 24 l 1
 387 24 l 2
 400 24 412 38 412 51 c 2
 412 360 l 2
 412 403 375 441 332 439 c 0
 283 437 231 399 204 370 c 1
 204 51 l 2
 204 38 217 24 230 24 c 2
 274 24 l 1
 274 0 l 1
 28 0 l 1
 28 24 l 1
 73 24 l 2
 87 24 98 38 98 51 c 2
 98 370 l 1
 44 385 l 1
 44 407 l 1
 204 474 l 1
 204 403 l 1
 236 435 291 468 346 472 c 0
 399 475 513 464 518 404 c 1
 550 436 604 469 658 472 c 0
 713 476 832 463 832 397 c 2
 832 51 l 2
 832 38 844 24 857 24 c 2
 902 24 l 1
 902 0 l 1
EndSplineSet
EndChar

StartChar: n
Encoding: 110 110 79
Width: 608
Flags: MW
HStem: 0 24<28 73 73 80 230 274 342 387 387 393.5 543 588> 439 33
VStem: 98 106<51 370> 412 106<51 360 360 381.5>
LayerCount: 2
Back
Fore
SplineSet
588 0 m 1
 342 0 l 1
 342 24 l 1
 387 24 l 2
 400 24 412 38 412 51 c 2
 412 360 l 2
 412 403 375 441 332 439 c 0
 283 437 231 399 204 370 c 1
 204 51 l 2
 204 38 217 24 230 24 c 2
 274 24 l 1
 274 0 l 1
 28 0 l 1
 28 24 l 1
 73 24 l 2
 87 24 98 38 98 51 c 2
 98 370 l 1
 44 385 l 1
 44 407 l 1
 204 474 l 1
 204 403 l 1
 236 435 291 469 346 472 c 0
 401 476 518 463 518 397 c 2
 518 51 l 2
 518 39 530 24 543 24 c 2
 588 24 l 1
 588 0 l 1
EndSplineSet
EndChar

StartChar: o
Encoding: 111 111 80
Width: 576
Flags: MW
HStem: -9 15<197 372.5> 455 17<197 372.5>
VStem: 35 118 416 124
LayerCount: 2
Back
Fore
SplineSet
285 -9 m 0
 -49 -9 -47 472 285 472 c 0
 625 472 625 -9 285 -9 c 0
285 6 m 0
 460 6 460 455 285 455 c 0
 109 455 109 6 285 6 c 0
EndSplineSet
EndChar

StartChar: p
Encoding: 112 112 81
Width: 624
Flags: MW
HStem: -147 24<34 79 79 85.5 235 280> -9 23<330 330> 452 20
VStem: 104 106<-96 28 116 331> 456 120<152.984 344.944>
LayerCount: 2
Back
Fore
SplineSet
576 243 m 0
 579 109 430 -7 330 -9 c 0
 284 -10 242 2 210 28 c 1
 210 -96 l 2
 210 -109 222 -123 235 -123 c 2
 280 -123 l 1
 280 -147 l 1
 34 -147 l 1
 34 -123 l 1
 79 -123 l 2
 92 -123 104 -108 104 -96 c 2
 104 360 l 1
 61 383 l 1
 61 405 l 1
 210 465 l 1
 210 424 l 1
 250 449 283 470 330 472 c 0
 452 476 573 412 576 243 c 0
456 239 m 0
 456 399 356 453 323 448 c 0
 237 436 210 391 210 331 c 2
 210 116 l 1
 220 55 250 12 330 14 c 0
 409 16 456 123 456 239 c 0
EndSplineSet
EndChar

StartChar: q
Encoding: 113 113 82
Width: 609
Flags: MW
HStem: -165 24<538 583> -9 25 454 20<513 513>
VStem: 41 123<139.382 316.936> 407 106<-120.5 -114 -114 21 -20 21 115 307 307 364.5>
LayerCount: 2
Back
Fore
SplineSet
583 -165 m 1
 407 -165 l 1
 407 -165 407 -61 407 21 c 1
 375 1 332 -8 290 -9 c 0
 169 -13 45 89 41 228 c 0
 38 350 167 471 290 472 c 0
 338 473 410 458 442 429 c 1
 513 474 l 1
 513 -114 l 2
 513 -127 524 -141 538 -141 c 2
 583 -141 l 1
 583 -165 l 1
407 115 m 0
 407 116 407 307 407 307 c 2
 407 422 384 448 290 448 c 0
 192 447 167 336 164 239 c 0
 162 135 189 7 292 16 c 0
 366 22 397 43 407 115 c 0
EndSplineSet
EndChar

StartChar: r
Encoding: 114 114 83
Width: 458
Flags: MW
HStem: 0 24<22 67 67 73.5 223 268> 459 20
VStem: 92 106<51 371>
LayerCount: 2
Back
Fore
SplineSet
411 445 m 0
 413 421 399 373 335 381 c 0
 313 384 300 395 285 414 c 0
 281 419 285 422 286 426 c 1
 253 419 220 397 198 371 c 1
 198 51 l 2
 198 39 210 24 223 24 c 2
 268 24 l 1
 268 0 l 1
 22 0 l 1
 22 24 l 1
 67 24 l 2
 80 24 92 38 92 51 c 2
 92 384 l 1
 52 400 l 1
 52 412 l 1
 198 469 l 1
 198 402 l 1
 223 429 308 470 341 475 c 0
 370 480 407 487 411 445 c 0
EndSplineSet
EndChar

StartChar: s
Encoding: 115 115 84
Width: 425
Flags: MW
HStem: -10 20 446 26
VStem: 34 79 273 77<60.6274 127.803>
LayerCount: 2
Back
Fore
SplineSet
350 119 m 0
 350 43 257 -2 183 -9 c 0
 139 -13 84 9 43 26 c 1
 43 136 l 1
 54 142 l 1
 62 80 121 3 190 15 c 0
 237 23 274 52 273 100 c 0
 272 174 36 159 34 347 c 0
 33 420 127 467 204 472 c 0
 245 475 296 457 334 440 c 1
 334 330 l 1
 324 324 l 1
 314 380 275 446 211 446 c 0
 164 446 116 429 113 383 c 0
 107 294 350 310 350 119 c 0
EndSplineSet
EndChar

StartChar: t
Encoding: 116 116 85
Width: 367
Flags: MW
HStem: -9 45 399 57<190 261>
VStem: 84 106<73 399>
LayerCount: 2
Back
Fore
SplineSet
309 64 m 1
 311 42 259 -10 197 -9 c 0
 152 -9 84 35 84 73 c 2
 84 399 l 1
 28 399 l 1
 28 435 l 1
 146 560 l 1
 190 546 l 1
 190 456 l 1
 283 456 l 1
 261 399 l 1
 190 399 l 1
 190 65 l 2
 190 48 213 35 230 36 c 0
 272 39 309 67 307 83 c 1
 309 64 l 1
EndSplineSet
EndChar

StartChar: u
Encoding: 117 117 86
Width: 626
Flags: MW
HStem: -9 39 439 24<15 60 343 388>
VStem: 85 106<119 412 412 418> 413 106<102 412 412 418>
LayerCount: 2
Back
Fore
SplineSet
577 61 m 1
 413 -9 l 1
 413 65 l 1
 383 28 328 -9 261 -9 c 0
 207 -9 85 -20 85 119 c 2
 85 412 l 2
 85 424 73 439 60 439 c 2
 15 439 l 1
 15 463 l 1
 191 463 l 1
 191 114 l 2
 191 56 230 27 276 30 c 0
 331 33 385 70 413 102 c 1
 413 412 l 2
 413 424 401 439 388 439 c 2
 343 439 l 1
 343 463 l 1
 519 463 l 1
 519 100 l 1
 577 84 l 1
 577 61 l 1
EndSplineSet
EndChar

StartChar: v
Encoding: 118 118 87
Width: 540
Flags: MW
HStem: 0 20 439 24<24 50 189 197 197 225 338 362 482 495 495 522>
VStem: 24 201<439 463> 338 184<439 463>
LayerCount: 2
Back
Fore
SplineSet
522 439 m 1
 495 439 l 2
 469 439 441 411 433 388 c 2
 292 0 l 1
 213 6 l 1
 81 415 l 2
 78 425 61 439 50 439 c 2
 24 439 l 1
 24 463 l 1
 225 463 l 1
 225 439 l 1
 197 439 l 2
 181 439 174 423 179 409 c 2
 290 78 l 1
 389 354 l 2
 399 381 408 439 362 439 c 2
 338 439 l 1
 338 463 l 1
 522 463 l 1
 522 439 l 1
EndSplineSet
EndChar

StartChar: w
Encoding: 119 119 88
Width: 766
Flags: MW
HStem: 0 20 439 24<5 30 177 185 185 214 254 279 419 427 427 454 568 591 707.5 721 721 748>
VStem: 5 209<439 463> 254 200<439 463> 568 180<439 463>
LayerCount: 2
Back
Fore
SplineSet
748 439 m 1
 721 439 l 2
 694 439 667 412 658 388 c 2
 517 0 l 1
 443 6 l 1
 443 6 371 250 371 249 c 1
 271 0 l 1
 194 6 l 1
 61 415 l 2
 57 427 44 439 30 439 c 2
 5 439 l 1
 5 463 l 1
 214 463 l 1
 214 439 l 1
 185 439 l 2
 169 439 162 423 167 409 c 1
 270 87 l 1
 353 288 l 1
 311 415 l 2
 308 425 290 439 279 439 c 2
 254 439 l 1
 254 463 l 1
 454 463 l 1
 454 439 l 1
 427 439 l 2
 411 439 404 423 409 409 c 2
 520 78 l 1
 618 354 l 1
 628 381 639 439 591 439 c 2
 568 439 l 1
 568 463 l 1
 748 463 l 1
 748 439 l 1
EndSplineSet
EndChar

StartChar: x
Encoding: 120 120 89
Width: 561
Flags: MW
HStem: 0 24<279 303 303 311 468 489> 439 24<47 72 232 239 239 267 311 335 449 461 461 487>
VStem: 47 220<439 463> 311 176<439 463>
LayerCount: 2
Back
Fore
SplineSet
489 0 m 1
 279 0 l 1
 279 24 l 1
 303 24 l 2
 319 24 313 53 309 61 c 1
 309 61 230 194 230 193 c 2
 156 97 l 2
 132 65 159 24 197 24 c 2
 212 24 l 1
 212 -1 l 1
 14 -1 l 1
 14 25 l 1
 44 25 l 2
 77 25 100 56 117 80 c 2
 117 80 217 220 216 220 c 1
 104 415 l 2
 98 426 86 439 72 439 c 2
 47 439 l 1
 47 463 l 1
 267 463 l 1
 267 439 l 1
 239 439 l 2
 225 439 213 422 221 409 c 2
 291 290 l 1
 292 290 349 363 349 363 c 2
 365 384 375 439 335 439 c 2
 311 439 l 1
 311 463 l 1
 487 463 l 1
 487 439 l 1
 461 439 l 2
 437 439 406 409 393 391 c 2
 303 268 l 1
 405 91 l 2
 415 74 444 24 468 24 c 2
 489 24 l 1
 489 0 l 1
EndSplineSet
EndChar

StartChar: y
Encoding: 121 121 90
Width: 523
Flags: MW
HStem: -97 29 439 24<6 31 178.5 187 187 215 319 342 463.5 476 476 495>
VStem: 6 209<439 463> 319 176<439 463>
LayerCount: 2
Back
Fore
SplineSet
495 439 m 1
 476 439 l 2
 451 439 423 404 413 384 c 2
 215 -25 l 2
 204 -48 147 -100 110 -97 c 0
 14 -88 3 11 80 11 c 0
 130 11 131 -37 114 -57 c 0
 109 -63 106 -65 99 -68 c 1
 140 -68 168 -46 192 -10 c 2
 194 -7 l 1
 190 -5 l 1
 63 415 l 1
 60 426 43 439 31 439 c 2
 6 439 l 1
 6 463 l 1
 215 463 l 1
 215 439 l 1
 187 439 l 2
 170 439 165 423 169 409 c 1
 259 122 l 1
 369 354 l 2
 382 381 385 439 342 439 c 2
 319 439 l 1
 319 463 l 1
 495 463 l 1
 495 439 l 1
EndSplineSet
EndChar

StartChar: z
Encoding: 122 122 91
Width: 479
Flags: MW
HStem: -2 26<141 253 253 282> 439 24<133 161 161 282>
LayerCount: 2
Back
Fore
SplineSet
414 463 m 1
 141 24 l 1
 253 24 l 2
 311 24 360 81 378 132 c 1
 399 125 l 1
 361 -2 l 1
 12 -2 l 1
 282 439 l 1
 161 439 l 2
 105 439 72 369 66 321 c 1
 44 331 l 1
 67 463 l 1
 414 463 l 1
EndSplineSet
EndChar

StartChar: braceleft
Encoding: 123 123 92
Width: 321
Flags: MW
HStem: -213 48<325 325> 620 50<272 283 283 325>
VStem: 118 90<-61.5 -40 -40 81 81 102 380 495>
LayerCount: 2
Back
Fore
SplineSet
325 -213 m 1
 248 -213 l 2
 212 -213 188 -206 161 -182 c 0
 131 -156 118 -131 118 -91 c 2
 118 81 l 2
 118 123 124 161 90 185 c 0
 76 194 65 198 47 199 c 1
 47 243 l 1
 65 249 74 254 87 267 c 0
 121 298 118 335 118 380 c 2
 118 552 l 2
 118 590 132 615 161 639 c 0
 187 662 209 670 243 670 c 2
 325 670 l 1
 325 620 l 1
 283 620 l 2
 261 620 249 614 231 599 c 0
 199 571 208 537 208 495 c 2
 208 359 l 2
 208 320 210 292 186 262 c 0
 173 246 164 238 144 229 c 1
 162 226 173 220 186 208 c 0
 211 185 208 157 208 123 c 2
 208 -40 l 2
 208 -83 207 -119 241 -145 c 0
 257 -157 268 -163 288 -164 c 2
 325 -165 l 1
 325 -213 l 1
EndSplineSet
EndChar

StartChar: bar
Encoding: 124 124 93
Width: 218
Flags: MW
HStem: -19 20
VStem: 47 83<-19 723>
LayerCount: 2
Back
Fore
SplineSet
130 -19 m 1
 47 -19 l 1
 47 723 l 1
 130 723 l 1
 130 -19 l 1
EndSplineSet
EndChar

StartChar: braceright
Encoding: 125 125 94
Width: 347
Flags: W
LayerCount: 2
Back
Fore
SplineSet
44 -213 m 1
 121 -213 l 2
 157 -213 181 -206 208 -182 c 0
 238 -156 251 -131 251 -91 c 2
 251 81 l 2
 251 123 245 161 279 185 c 0
 293 194 304 198 322 199 c 1
 322 243 l 1
 304 249 295 254 282 267 c 0
 248 298 251 335 251 380 c 2
 251 552 l 2
 251 590 236 615 208 639 c 0
 181 662 160 670 126 670 c 2
 44 670 l 1
 44 620 l 1
 86 620 l 2
 108 620 120 614 138 599 c 0
 170 571 161 537 161 495 c 2
 161 359 l 2
 161 320 159 292 183 262 c 0
 196 246 205 238 225 229 c 1
 207 226 196 220 183 208 c 0
 158 185 161 157 161 123 c 2
 161 -40 l 2
 161 -83 162 -119 128 -145 c 0
 112 -157 101 -163 81 -164 c 2
 44 -165 l 1
 44 -213 l 1
EndSplineSet
EndChar

StartChar: asciitilde
Encoding: 126 126 95
Width: 358
Flags: MW
HStem: 518 73<100.262 192.505>
VStem: 52 282
LayerCount: 2
Back
Fore
SplineSet
334 580 m 1
 337 529 304 470 254 471 c 0
 196 473 187 519 151 518 c 0
 114 517 99 509 77 477 c 1
 52 477 l 1
 53 535 104 590 155 591 c 0
 194 592 225 544 251 546 c 0
 284 548 294 553 314 580 c 1
 334 580 l 1
EndSplineSet
EndChar

StartChar: exclamdown
Encoding: 161 161 97
Width: 228
Flags: W
LayerCount: 2
Back
Fore
SplineSet
195 -20 m 1
 166 513 l 1
 92 513 l 1
 67 -20 l 1
 195 -20 l 1
162 559 m 0
 228 602 163 699 98 656 c 0
 33 613 97 516 162 559 c 0
EndSplineSet
EndChar

StartChar: cent
Encoding: 162 162 98
Width: 383
Flags: MW
VStem: -24 110 199 63<20.1818 150 212 307.571> 302 78
LayerCount: 2
Back
Fore
SplineSet
357 256 m 1
 350 240 345 231 334 217 c 0
 312 190 291 169 264 157 c 1
 264 158 273 -54 273 -54 c 1
 210 -54 l 1
 202 150 l 1
 193 150 l 0
 74 150 -23 211 -24 357 c 0
 -25 490 95 556 184 569 c 1
 177 750 l 1
 240 750 l 1
 247 570 l 1
 391 555 408 416 345 413 c 0
 309 411 295 459 304 494 c 0
 307 506 309 511 317 520 c 1
 311 526 308 529 301 533 c 0
 282 544 267 553 248 556 c 1
 262 212 l 1
 294 219 317 239 341 269 c 1
 348 280 352 286 357 298 c 1
 357 256 l 1
199 209 m 1
 185 554 l 1
 121 543 90 469 86 400 c 0
 81 313 115 212 199 209 c 1
EndSplineSet
EndChar

StartChar: sterling
Encoding: 163 163 99
Width: 654
Flags: MW
HStem: -88 29<325.371 478.993> 48 34<80 98> 402 33<224 305 400 474 400 400> 658 36<457.432 588.914>
VStem: -24 34<0 0> 303 97<151.502 402 435 554.027>
LayerCount: 2
Back
Fore
SplineSet
672 538 m 0
 665 517 647 495 626 498 c 0
 605 500 588 527 598 550 c 0
 604 565 620 574 636 574 c 1
 634 595 622 619 615 624 c 0
 582 650 550 660 506 658 c 0
 418 655 394 560 399 435 c 1
 489 435 l 1
 474 402 l 1
 400 402 l 1
 402 361 403 318 399 275 c 0
 385 117 339 27 284 -24 c 1
 312 -42 342 -54 378 -54 c 0
 485 -54 535 -48 609 32 c 1
 619 20 l 1
 551 -69 486 -82 376 -82 c 0
 335 -82 297 -65 261 -43 c 1
 217 -75 166 -88 112 -88 c 0
 48 -88 -24 -61 -24 0 c 0
 -24 50 42 82 102 82 c 0
 162 82 204 38 250 1 c 1
 291 56 302 140 303 214 c 0
 304 279 302 342 305 402 c 1
 209 402 l 1
 224 435 l 1
 306 435 l 1
 315 581 352 693 503 694 c 0
 614 694 701 621 672 538 c 0
230 -22 m 1
 180 14 135 47 98 48 c 0
 62 48 11 41 10 0 c 0
 8 -48 58 -55 111 -59 c 0
 163 -62 202 -49 230 -22 c 1
EndSplineSet
EndChar

StartChar: currency
Encoding: 164 164 100
Width: 544
Flags: MW
HStem: 115 80<198.5 252.5> 435 80<198.5 253>
VStem: 25 81 345 80
LayerCount: 2
Back
Fore
SplineSet
437 134 m 1
 409 106 l 1
 357 159 l 1
 324 132 280 115 225 115 c 0
 172 115 130 131 98 156 c 1
 49 106 l 1
 22 134 l 1
 22 134 71 183 70 183 c 0
 9 255 10 372 69 445 c 0
 69 446 22 492 22 492 c 1
 49 520 l 1
 96 472 l 1
 128 498 172 515 225 515 c 0
 281 515 326 498 358 469 c 1
 409 520 l 1
 437 492 l 1
 385 441 l 1
 439 369 439 259 383 187 c 1
 437 134 l 1
225 195 m 0
 385 195 385 435 225 435 c 0
 65 435 65 195 225 195 c 0
EndSplineSet
EndChar

StartChar: yen
Encoding: 165 165 101
Width: 647
Flags: MW
HStem: 0 24<149 202 202 211 379 431> 331 38<3 218 367 548> 449 38<3 149 281 281 281 396 452 548> 639 22<14 21>
VStem: 237 107<61 331> 419 222<636 661>
LayerCount: 2
Back
Fore
SplineSet
641 636 m 1
 606 636 l 2
 564 636 504 558 482 528 c 2
 452 487 l 1
 548 487 l 1
 548 449 l 1
 425 449 l 1
 367 369 l 1
 368 369 548 369 548 369 c 1
 548 331 l 1
 344 331 l 1
 344 61 l 2
 344 42 360 24 379 24 c 2
 431 24 l 1
 431 0 l 1
 149 0 l 1
 149 24 l 1
 202 24 l 2
 220 24 237 44 237 61 c 2
 237 331 l 1
 3 331 l 1
 3 369 l 1
 218 369 l 1
 171 449 l 1
 3 449 l 1
 3 487 l 1
 149 487 l 1
 88 591 l 2
 75 613 48 639 21 639 c 2
 14 639 l 1
 14 661 l 1
 255 661 l 1
 255 636 l 1
 227 636 l 2
 191 636 184 618 202 587 c 2
 259 487 l 1
 422 487 l 1
 436 507 l 2
 453 532 522 636 444 636 c 2
 419 636 l 1
 419 661 l 1
 641 661 l 1
 641 636 l 1
396 449 m 2
 281 449 l 1
 328 369 l 1
 342 369 l 1
 342 369 397 449 396 449 c 2
EndSplineSet
EndChar

StartChar: brokenbar
Encoding: 166 166 102
Width: 201
Flags: MW
HStem: -19 20 398 325<47 126>
VStem: 47 79<-19 331 398 723>
LayerCount: 2
Back
Fore
SplineSet
126 398 m 1
 47 398 l 1
 47 723 l 1
 126 723 l 1
 126 398 l 1
126 -19 m 1
 47 -19 l 1
 47 331 l 1
 126 331 l 1
 126 -19 l 1
EndSplineSet
EndChar

StartChar: section
Encoding: 167 167 103
Width: 359
Flags: MW
HStem: 0 17 61 84 560 83
VStem: 52 85<512 649.764> 224 70
LayerCount: 2
Back
Fore
SplineSet
329 613 m 0
 320 538 237 546 243 613 c 0
 244 629 250 643 272 643 c 0
 276 643 280 644 283 643 c 1
 280 659 276 672 259 678 c 0
 247 683 231 687 213 687 c 0
 162 688 145 650 138 600 c 0
 123 486 238 462 238 462 c 1
 313 423 320 274 209 236 c 1
 256 229 314 182 302 104 c 0
 293 45 244 18 226 12 c 0
 198 3 169 -4 119 4 c 0
 69 12 21 45 26 92 c 0
 35 172 118 152 113 92 c 0
 112 76 105 61 83 61 c 0
 79 61 76 61 71 61 c 1
 76 46 79 32 96 26 c 0
 108 21 124 17 142 17 c 0
 192 17 211 54 216 104 c 0
 225 187 188 224 109 246 c 1
 27 294 31 438 132 471 c 1
 94 485 40 523 53 601 c 0
 62 660 112 687 129 694 c 1
 157 702 187 708 237 700 c 0
 287 692 334 660 329 613 c 0
176 426 m 0
 107 427 89 288 166 282 c 0
 244 276 239 425 176 426 c 0
EndSplineSet
EndChar

StartChar: dieresis
Encoding: 168 168 104
Width: 0
Flags: MW
HStem: 521 91
VStem: 33 91 220 91
LayerCount: 2
Back
Fore
SplineSet
266 521 m 0
 206 521 206 613 266 613 c 0
 327 613 327 521 266 521 c 0
78 521 m 0
 18 521 18 613 78 613 c 0
 140 613 140 521 78 521 c 0
EndSplineSet
EndChar

StartChar: copyright
Encoding: 169 169 105
Width: 539
Flags: MW
HStem: 257 126<190 269> 674 70<252 252>
VStem: 7 70 127 208<547 560> 423 70
LayerCount: 2
Back
Fore
SplineSet
252 744 m 0
 576 741 573 254 249 257 c 0
 -75 260 -72 747 252 744 c 0
252 674 m 0
 21 676 18 330 249 328 c 0
 480 326 483 672 252 674 c 0
343 465 m 1
 327 380 l 1
 320 380 l 1
 320 383 320 385 318 388 c 0
 316 392 312 394 308 394 c 0
 286 394 270 377 246 376 c 0
 164 372 131 436 127 500 c 0
 124 560 171 637 251 636 c 0
 290 636 296 613 308 614 c 0
 312 615 313 618 317 620 c 1
 320 624 323 627 326 631 c 1
 330 631 l 1
 335 547 l 1
 329 547 l 1
 328 554 327 557 324 562 c 0
 309 598 287 631 250 631 c 0
 202 631 172 566 171 506 c 0
 170 450 190 383 242 383 c 0
 269 383 304 402 323 431 c 0
 331 443 335 450 339 465 c 1
 343 465 l 1
EndSplineSet
EndChar

StartChar: ordfeminine
Encoding: 170 170 106
Width: 317
Flags: MW
HStem: 120 50<0 338> 197 39<113 121.5> 511 10<116.791 158.957>
VStem: -7 83 183 104<292 368 368 368 398 472 472 476>
LayerCount: 2
Back
Fore
SplineSet
336 239 m 2
 336 208 293 199 271 197 c 0
 233 193 185 216 183 254 c 1
 170 226 137 197 106 197 c 0
 44 197 -9 219 -7 274 c 0
 -4 357 127 361 183 398 c 1
 183 472 l 2
 183 498 159 511 136 511 c 0
 99 511 105 495 85 490 c 1
 81 483 90 482 88 469 c 1
 81 445 61 415 38 415 c 0
 -1 416 38 523 158 521 c 0
 177 521 287 522 287 476 c 2
 287 252 l 2
 287 238 295 224 309 224 c 0
 320 224 333 244 336 254 c 1
 336 239 l 2
338 120 m 1
 0 120 l 1
 0 170 l 1
 338 170 l 1
 338 120 l 1
183 292 m 1
 183 368 l 1
 145 359 79 341 76 297 c 0
 74 271 98 236 128 236 c 0
 148 236 174 275 183 292 c 1
EndSplineSet
EndChar

StartChar: guillemotleft
Encoding: 171 171 107
Width: 827
Flags: W
LayerCount: 2
Back
Fore
SplineSet
38 312 m 1
 453 84 l 1
 453 148 l 1
 123 322 l 1
 123 338 l 1
 453 502 l 1
 453 565 l 1
 38 350 l 1
 38 312 l 1
321 312 m 1
 736 84 l 1
 736 148 l 1
 406 322 l 1
 406 338 l 1
 736 502 l 1
 736 565 l 1
 321 350 l 1
 321 312 l 1
EndSplineSet
EndChar

StartChar: logicalnot
Encoding: 172 172 108
Width: 638
Flags: MW
HStem: 210 60<35 535>
VStem: 535 60<40 210 210 210>
LayerCount: 2
Back
Fore
SplineSet
595 40 m 1
 535 40 l 1
 535 210 l 1
 35 210 l 1
 35 270 l 1
 595 270 l 1
 595 40 l 1
EndSplineSet
EndChar

StartChar: uni00AD
Encoding: 173 173 109
Width: 340
Flags: MW
HStem: 199 55<33 266>
VStem: 33 233<199 254>
LayerCount: 2
Back
Fore
SplineSet
266 199 m 1
 33 199 l 1
 33 254 l 1
 266 254 l 1
 266 199 l 1
EndSplineSet
EndChar

StartChar: registered
Encoding: 174 174 110
Width: 529
Flags: MW
HStem: 257 71<251 251> 387 142<216 247> 618 126<144 167 216 274>
VStem: 9 70 176 40<409 520 529 604 604 606> 296 34 425 70
LayerCount: 2
Back
Fore
SplineSet
254 744 m 0
 578 741 575 254 251 257 c 0
 -73 260 -70 747 254 744 c 0
254 674 m 0
 24 676 20 330 251 328 c 0
 482 326 485 672 254 674 c 0
378 387 m 1
 343 387 l 2
 335 387 330 387 324 392 c 0
 318 397 316 401 313 407 c 2
 248 520 l 1
 216 520 l 1
 216 409 l 2
 216 405 217 402 220 399 c 0
 222 397 224 395 228 395 c 2
 247 395 l 1
 247 387 l 1
 144 387 l 1
 144 395 l 1
 163 395 l 2
 167 395 170 397 172 399 c 0
 175 402 176 405 176 409 c 2
 176 604 l 2
 176 608 175 610 172 613 c 0
 170 616 167 618 163 618 c 2
 144 618 l 1
 144 627 l 1
 207 627 l 1
 271 627 l 2
 298 627 327 617 330 581 c 0
 333 541 316 524 288 520 c 1
 345 413 l 2
 349 405 360 398 362 397 c 1
 363 395 371 392 374 392 c 2
 378 392 l 1
 378 387 l 1
296 580 m 0
 296 604 274 616 252 616 c 2
 216 616 l 1
 216 529 l 1
 252 529 l 2
 282 529 296 544 296 580 c 0
EndSplineSet
EndChar

StartChar: macron
Encoding: 175 175 111
Width: 0
Flags: MW
HStem: 585 53<35 250>
VStem: 35 215<585 638>
LayerCount: 2
Back
Fore
SplineSet
250 585 m 1
 35 585 l 1
 35 638 l 1
 250 638 l 1
 250 585 l 1
EndSplineSet
EndChar

StartChar: degree
Encoding: 176 176 112
Width: 222
Flags: MW
HStem: 551 49<53.546 112.628> 667 45<83 83>
VStem: 2 47 117 46
LayerCount: 2
Back
Fore
SplineSet
83 712 m 0
 191 711 189 554 81 551 c 0
 -27 547 -24 714 83 712 c 0
83 667 m 0
 37 668 36 600 82 600 c 0
 128 599 128 667 83 667 c 0
EndSplineSet
EndChar

StartChar: plusminus
Encoding: 177 177 113
Width: 361
Flags: MW
HStem: 173 53<33 154 209 334> 301 53<33 154 209 334>
VStem: 154 55<226 301 354 456>
LayerCount: 2
Back
Fore
SplineSet
334 173 m 1
 33 173 l 1
 33 226 l 1
 154 226 l 1
 154 301 l 1
 33 301 l 1
 33 354 l 1
 154 354 l 1
 154 456 l 1
 209 456 l 1
 209 354 l 1
 334 354 l 1
 334 301 l 1
 209 301 l 1
 209 226 l 1
 334 226 l 1
 334 173 l 1
EndSplineSet
EndChar

StartChar: twosuperior
Encoding: 178 178 114
Width: 272
Flags: W
LayerCount: 2
Back
Fore
SplineSet
257 487 m 1
 246 406 l 1
 78 406 l 1
 78 448 l 2
 78 517 181 545 185 626 c 0
 186 652 170 674 141 676 c 0
 110 678 88 652 82 623 c 1
 70 623 l 1
 74 667 109 695 152 697 c 0
 200 698 250 680 250 631 c 0
 249 545 157 527 127 490 c 0
 116 476 121 477 118 468 c 1
 243 468 l 1
 248 487 l 1
 257 487 l 1
EndSplineSet
EndChar

StartChar: threesuperior
Encoding: 179 179 115
Width: 267
Flags: W
LayerCount: 2
Back
Fore
SplineSet
185 476 m 0
 188 517 141 554 116 554 c 2
 104 554 l 1
 104 569 l 1
 112 570 115 571 122 575 c 0
 145 587 157 609 154 636 c 0
 151 678 70 675 70 633 c 1
 59 633 l 1
 59 674 100 694 137 692 c 0
 196 690 240 645 185 599 c 0
 179 595 177 591 170 588 c 1
 171 582 l 1
 174 580 174 577 177 576 c 0
 293 532 246 406 118 402 c 0
 87 401 57 426 59 457 c 0
 62 504 112 497 110 461 c 0
 109 444 102 438 85 439 c 1
 90 429 94 426 102 420 c 0
 122 404 182 424 185 476 c 0
EndSplineSet
EndChar

StartChar: acute
Encoding: 180 180 116
Width: 0
Flags: W
LayerCount: 2
Back
Fore
SplineSet
245 737 m 1
 117 628 l 1
 66 628 l 1
 151 737 l 1
 245 737 l 1
EndSplineSet
EndChar

StartChar: mu
Encoding: 181 181 117
Width: 671
Flags: MW
HStem: -4 29<239.281 328.5>
LayerCount: 2
Back
Fore
SplineSet
667 150 m 1
 635 87 594 -16 503 2 c 0
 476 7 392 22 381 62 c 1
 354 25 326 -4 281 -4 c 0
 216 -4 191 46 176 75 c 1
 149 -109 l 1
 141 -166 29 -132 33 -109 c 1
 113 416 l 1
 119 457 236 482 225 406 c 2
 195 197 l 1
 194 146 l 1
 193 88 222 26 280 25 c 0
 324 24 366 61 372 97 c 1
 433 425 l 2
 442 473 543 464 535 416 c 1
 487 117 l 1
 482 87 506 67 533 55 c 0
 589 31 627 132 643 164 c 1
 667 150 l 1
EndSplineSet
EndChar

StartChar: paragraph
Encoding: 182 182 118
Width: 702
Flags: MW
HStem: 621 40<401 497 401 401 593 640 593 593>
VStem: 306 95<-69 354 354 354> 497 96<-69 621>
LayerCount: 2
Back
Fore
SplineSet
640 621 m 1
 593 621 l 1
 593 -69 l 1
 497 -69 l 1
 497 621 l 1
 401 621 l 1
 401 -69 l 1
 306 -69 l 1
 306 354 l 1
 187 354 l 2
 90 354 -3 403 6 527 c 0
 13 624 88 661 171 661 c 2
 640 661 l 1
 640 621 l 1
EndSplineSet
EndChar

StartChar: periodcentered
Encoding: 183 183 119
Width: 217
Flags: MW
HStem: 202 110
VStem: 62 109
LayerCount: 2
Back
Fore
SplineSet
147 302 m 0
 207 262 147 172 87 212 c 0
 28 252 87 343 147 302 c 0
EndSplineSet
EndChar

StartChar: cedilla
Encoding: 184 184 120
Width: 0
Flags: MW
HStem: -212 38<176 233>
VStem: 176 197
LayerCount: 2
Back
Fore
SplineSet
373 -96 m 0
 377 -192 309 -210 228 -212 c 2
 176 -213 l 1
 176 -179 l 1
 233 -174 l 2
 269 -171 307 -161 307 -117 c 0
 307 -87 275 -72 246 -72 c 2
 208 -72 l 1
 208 3 l 1
 253 13 l 1
 253 -25 l 1
 281 -25 l 2
 326 -25 372 -56 373 -96 c 0
EndSplineSet
EndChar

StartChar: onesuperior
Encoding: 185 185 121
Width: 272
Flags: W
LayerCount: 2
Back
Fore
SplineSet
240 406 m 1
 115 406 l 1
 115 417 l 1
 138 417 l 2
 145 417 151 424 151 431 c 2
 151 671 l 1
 131 671 l 1
 131 680 l 1
 203 697 l 1
 203 431 l 2
 203 424 210 417 216 417 c 2
 240 417 l 1
 240 406 l 1
EndSplineSet
EndChar

StartChar: ordmasculine
Encoding: 186 186 122
Width: 489
Flags: MW
HStem: 132 38<61 408> 197 11<188.5 311> 522 12<188.5 311>
VStem: 36 122 341 111
LayerCount: 2
Back
Fore
SplineSet
250 197 m 0
 -36 197 -34 534 250 534 c 0
 517 534 522 197 250 197 c 0
408 132 m 1
 61 132 l 1
 61 170 l 1
 408 170 l 1
 408 132 l 1
250 208 m 0
 372 208 372 522 250 522 c 0
 127 522 127 208 250 208 c 0
EndSplineSet
EndChar

StartChar: guillemotright
Encoding: 187 187 123
Width: 827
Flags: MW
VStem: 453 198<322 338>
LayerCount: 2
Back
Fore
SplineSet
736 312 m 1
 321 84 l 1
 321 148 l 1
 651 322 l 1
 651 338 l 1
 321 502 l 1
 321 565 l 1
 736 350 l 1
 736 312 l 1
453 312 m 1
 38 84 l 1
 38 148 l 1
 368 322 l 1
 368 338 l 1
 38 502 l 1
 38 565 l 1
 453 350 l 1
 453 312 l 1
EndSplineSet
EndChar

StartChar: onequarter
Encoding: 188 188 124
Width: 482
Flags: W
LayerCount: 2
Back
Fore
SplineSet
136 406 m 1
 11 406 l 1
 11 417 l 1
 35 417 l 2
 42 417 47 424 47 431 c 2
 47 671 l 1
 27 671 l 1
 27 680 l 1
 100 697 l 1
 100 431 l 2
 100 425 106 417 113 417 c 2
 136 417 l 1
 136 406 l 1
445 58 m 1
 416 58 l 1
 416 3 l 1
 362 3 l 1
 362 58 l 1
 200 58 l 1
 374 294 l 1
 416 294 l 1
 416 111 l 1
 445 111 l 1
 445 58 l 1
361 111 m 1
 361 230 l 1
 274 111 l 1
 361 111 l 1
252 665 m 1
 152 0 l 1
 122 0 l 1
 217 665 l 1
 252 665 l 1
EndSplineSet
EndChar

StartChar: onehalf
Encoding: 189 189 125
Width: 468
Flags: W
LayerCount: 2
Back
Fore
SplineSet
130 406 m 1
 5 406 l 1
 5 417 l 1
 29 417 l 2
 36 417 41 424 41 431 c 2
 41 671 l 1
 21 671 l 1
 21 680 l 1
 94 697 l 1
 94 431 l 2
 94 425 100 417 107 417 c 2
 130 417 l 1
 130 406 l 1
437 82 m 1
 426 1 l 1
 258 1 l 1
 258 43 l 2
 258 111 361 140 365 220 c 0
 366 247 350 269 321 270 c 0
 290 272 268 246 262 218 c 1
 250 218 l 1
 254 262 289 290 332 291 c 0
 380 293 430 274 430 226 c 0
 429 140 337 121 307 85 c 0
 295 70 301 71 298 63 c 1
 423 63 l 1
 428 82 l 1
 437 82 l 1
258 665 m 1
 158 0 l 1
 128 0 l 1
 223 665 l 1
 258 665 l 1
EndSplineSet
EndChar

StartChar: threequarters
Encoding: 190 190 126
Width: 570
Flags: W
LayerCount: 2
Back
Fore
SplineSet
174 476 m 0
 176 517 130 554 104 554 c 2
 93 554 l 1
 93 569 l 1
 100 570 104 571 110 575 c 0
 134 587 145 609 143 636 c 0
 139 678 58 675 58 633 c 1
 48 633 l 1
 48 674 88 694 125 692 c 0
 185 690 229 645 173 599 c 0
 168 595 165 591 159 588 c 1
 160 582 l 1
 162 580 163 577 166 576 c 0
 281 532 235 406 106 402 c 0
 76 401 45 426 47 457 c 0
 50 504 100 497 99 461 c 0
 98 444 90 438 73 439 c 1
 78 429 82 426 91 420 c 1
 110 404 170 424 174 476 c 0
540 58 m 1
 511 58 l 1
 511 3 l 1
 457 3 l 1
 457 58 l 1
 295 58 l 1
 469 294 l 1
 511 294 l 1
 511 111 l 1
 540 111 l 1
 540 58 l 1
456 111 m 1
 456 230 l 1
 369 111 l 1
 456 111 l 1
333 665 m 1
 233 0 l 1
 203 0 l 1
 298 665 l 1
 333 665 l 1
EndSplineSet
EndChar

StartChar: questiondown
Encoding: 191 191 127
Width: 406
Flags: W
LayerCount: 2
Back
Fore
SplineSet
-7 136 m 0
 -14 307 212 331 232 483 c 0
 235 507 236 519 237 543 c 1
 262 543 l 1
 264 518 263 503 262 478 c 0
 254 334 133 276 136 132 c 0
 137 45 186 5 242 7 c 0
 278 9 309 25 327 59 c 1
 293 59 273 62 274 105 c 0
 277 204 410 206 404 95 c 0
 400 29 319 -17 254 -19 c 0
 101 -22 -3 35 -7 136 c 0
208 595 m 0
 140 639 207 741 276 697 c 0
 344 652 277 550 208 595 c 0
EndSplineSet
EndChar

StartChar: Acircumflex
Encoding: 194 194 130
Width: 810
Flags: W
LayerCount: 2
Back
Fore
SplineSet
758 0 m 1
 506 0 l 1
 506 31 l 1
 545 31 l 2
 560 31 570 47 565 61 c 2
 479 310 l 1
 279 310 l 1
 199 111 l 2
 186 78 210 31 246 31 c 2
 282 31 l 1
 282 0 l 1
 37 0 l 1
 37 31 l 1
 74 31 l 2
 103 31 129 65 139 89 c 2
 369 625 l 1
 363 647 l 1
 456 686 l 1
 676 71 l 2
 684 48 716 31 739 31 c 2
 758 31 l 1
 758 0 l 1
468 342 m 1
 389 575 l 1
 293 342 l 1
 468 342 l 1
542 649 m 1
 507 649 l 1
 430 721 l 1
 421 721 l 1
 344 649 l 1
 307 649 l 1
 415 788 l 1
 434 788 l 1
 542 649 l 1
EndSplineSet
EndChar

StartChar: Aring
Encoding: 197 197 133
Width: 810
Flags: MW
HStem: 0 31<37 74 74 88.5 246 282 506 545 545 552.5 739 758> 310 32<293 468> 751 45<352.915 413.385>
VStem: 37 245<0 31> 301 48 418 50 506 252<0 31>
LayerCount: 2
Back
Fore
SplineSet
758 0 m 1
 506 0 l 1
 506 31 l 1
 545 31 l 2
 560 31 570 47 565 61 c 2
 479 310 l 1
 279 310 l 1
 199 111 l 2
 186 78 209 31 246 31 c 2
 282 31 l 1
 282 0 l 1
 37 0 l 1
 37 31 l 1
 74 31 l 2
 103 31 129 65 139 89 c 2
 369 625 l 1
 367 633 l 1
 273 645 281 797 383 796 c 0
 455 795 481 729 462 671 c 1
 676 71 l 2
 684 48 716 31 739 31 c 2
 758 31 l 1
 758 0 l 1
384 751 m 0
 338 751 338 683 383 683 c 0
 429 682 429 750 384 751 c 0
468 342 m 1
 389 575 l 1
 293 342 l 1
 468 342 l 1
EndSplineSet
EndChar

StartChar: AE
Encoding: 198 198 134
Width: 961
Flags: MW
HStem: 0 30<343 396 396 405> 348 32<536 636> 631 30<325 379>
VStem: 37 239<0 31> 431 105<74.5 86 86 348 380 575> 735 24<234 252 252 276.5 470 488>
LayerCount: 2
Back
Fore
SplineSet
908 196 m 1
 855 0 l 1
 343 0 l 1
 343 30 l 1
 396 30 l 2
 414 30 431 50 431 67 c 2
 431 350 l 1
 299 350 l 1
 197 124 l 1
 184 94 199 31 238 31 c 2
 276 31 l 1
 276 0 l 1
 37 0 l 1
 37 31 l 1
 75 31 l 2
 96 31 127 72 135 89 c 2
 379 631 l 1
 325 631 l 1
 325 661 l 1
 864 661 l 1
 908 461 l 1
 881 461 l 1
 868 491 l 2
 831 576 799 625 702 625 c 2
 574 625 l 2
 548 625 536 598 536 575 c 2
 536 380 l 1
 636 380 l 2
 684 380 735 419 735 470 c 2
 735 488 l 1
 759 488 l 1
 759 234 l 1
 735 234 l 1
 735 252 l 2
 735 301 684 348 636 348 c 2
 536 348 l 1
 536 86 l 2
 536 63 548 36 574 36 c 2
 702 36 l 2
 795 36 833 82 868 165 c 2
 881 196 l 1
 908 196 l 1
431 374 m 1
 431 594 l 2
 431 604 425 615 418 622 c 1
 306 374 l 1
 431 374 l 1
EndSplineSet
EndChar

StartChar: Ecircumflex
Encoding: 202 202 138
Width: 639
Flags: W
LayerCount: 2
Back
Fore
SplineSet
586 196 m 1
 534 0 l 1
 22 0 l 1
 22 30 l 1
 75 30 l 2
 93 30 110 50 110 67 c 2
 110 594 l 2
 110 611 93 631 75 631 c 2
 22 631 l 1
 22 661 l 1
 542 661 l 1
 586 461 l 1
 560 461 l 1
 547 491 l 2
 515 566 468 625 381 625 c 2
 253 625 l 2
 227 625 215 598 215 575 c 2
 215 380 l 1
 315 380 l 2
 363 380 414 419 414 470 c 2
 414 488 l 1
 438 488 l 1
 438 234 l 1
 414 234 l 1
 414 252 l 2
 414 301 363 348 315 348 c 2
 215 348 l 1
 215 86 l 2
 215 63 227 36 253 36 c 2
 381 36 l 2
 462 36 517 93 547 165 c 2
 560 196 l 1
 586 196 l 1
375 672 m 1
 346 672 l 1
 282 732 l 1
 275 732 l 1
 211 672 l 1
 180 672 l 1
 270 788 l 1
 286 788 l 1
 375 672 l 1
EndSplineSet
EndChar

StartChar: Icircumflex
Encoding: 206 206 142
Width: 395
Flags: W
LayerCount: 2
Back
Fore
SplineSet
325 0 m 1
 45 0 l 1
 45 30 l 1
 98 30 l 2
 116 30 133 50 133 67 c 2
 133 594 l 2
 133 611 116 631 98 631 c 2
 45 631 l 1
 45 661 l 1
 325 661 l 1
 325 631 l 1
 273 631 l 2
 254 631 238 613 238 594 c 2
 238 67 l 2
 238 48 254 30 273 30 c 2
 325 30 l 1
 325 0 l 1
291 676 m 1
 261 676 l 1
 191 734 l 1
 184 734 l 1
 115 676 l 1
 81 676 l 1
 178 788 l 1
 195 788 l 1
 291 676 l 1
EndSplineSet
EndChar

StartChar: Eth
Encoding: 208 208 144
Width: 792
Flags: MW
HStem: 0 30<23 76 76 85> 296 47<30 111 216 289> 631 30<23 76>
VStem: 111 105<75.5 86 86 296 343 575> 607 112
LayerCount: 2
Back
Fore
SplineSet
719 347 m 0
 722 194 575 0 356 0 c 2
 23 0 l 1
 23 30 l 1
 76 30 l 2
 94 30 111 50 111 67 c 2
 111 296 l 1
 30 296 l 1
 30 343 l 1
 111 343 l 1
 111 594 l 2
 111 611 94 631 76 631 c 2
 23 631 l 1
 23 661 l 1
 456 661 l 2
 659 661 717 446 719 347 c 0
607 359 m 0
 598 493 530 625 396 625 c 2
 253 625 l 2
 228 625 216 596 216 575 c 2
 216 343 l 1
 289 343 l 1
 289 296 l 1
 216 296 l 1
 216 86 l 2
 216 65 228 36 253 36 c 2
 347 36 l 2
 510 36 617 196 607 359 c 0
EndSplineSet
EndChar

StartChar: Ocircumflex
Encoding: 212 212 148
Width: 813
Flags: W
LayerCount: 2
Back
Fore
SplineSet
399 -21 m 0
 -90 -21 -91 671 399 671 c 0
 885 671 885 -21 399 -21 c 0
399 0 m 0
 719 0 717 650 399 650 c 0
 82 650 84 0 399 0 c 0
494 676 m 1
 464 676 l 1
 394 734 l 1
 387 734 l 1
 318 676 l 1
 284 676 l 1
 381 788 l 1
 398 788 l 1
 494 676 l 1
EndSplineSet
EndChar

StartChar: multiply
Encoding: 215 215 151
Width: 325
Flags: W
LayerCount: 2
Back
Fore
SplineSet
268 201 m 1
 230 162 l 1
 149 242 l 1
 68 161 l 1
 29 199 l 1
 111 279 l 1
 29 359 l 1
 68 397 l 1
 149 317 l 1
 230 397 l 1
 268 359 l 1
 188 280 l 1
 268 201 l 1
EndSplineSet
EndChar

StartChar: Oslash
Encoding: 216 216 152
Width: 813
Flags: MW
HStem: -21 21<369 523.5> 650 23<335.732 459>
VStem: 23 130 630 126
LayerCount: 2
Back
Fore
SplineSet
581 727 m 1
 547 648 l 1
 870 519 818 -21 391 -21 c 0
 343 -21 299 -19 258 -13 c 1
 218 -103 l 1
 131 -103 l 1
 187 23 l 1
 -86 183 -18 671 391 671 c 0
 418 671 445 672 471 673 c 1
 494 727 l 1
 581 727 l 1
526 601 m 1
 276 30 l 1
 309 10 347 0 391 0 c 0
 656 0 700 447 526 601 c 1
459 645 m 1
 437 648 414 650 391 650 c 0
 149 650 93 273 219 93 c 1
 459 645 l 1
EndSplineSet
EndChar

StartChar: Ucircumflex
Encoding: 219 219 155
Width: 717
Flags: W
LayerCount: 2
Back
Fore
SplineSet
714 631 m 1
 661 631 l 2
 642 631 626 613 626 594 c 2
 626 220 l 2
 626 104 498 -15 386 -14 c 0
 240 -12 128 20 128 181 c 2
 128 594 l 2
 128 611 111 631 93 631 c 2
 40 631 l 1
 40 661 l 1
 321 661 l 1
 321 631 l 1
 268 631 l 2
 249 631 233 613 233 594 c 2
 233 132 l 2
 233 54 300 11 383 11 c 0
 481 11 576 107 576 209 c 2
 576 594 l 2
 576 612 559 631 540 631 c 2
 488 631 l 1
 488 661 l 1
 714 661 l 1
 714 631 l 1
505 676 m 1
 474 676 l 1
 405 734 l 1
 398 734 l 1
 329 676 l 1
 295 676 l 1
 392 788 l 1
 409 788 l 1
 505 676 l 1
EndSplineSet
EndChar

StartChar: Thorn
Encoding: 222 222 158
Width: 623
Flags: MW
HStem: -213 30<30 83 83 92 258 310> 118 37<223 322 322 363> 382 42<223 323> 632 30<30 83 248.5 258 258 310>
VStem: 118 105<-146 118 155 382 424 595 566 595> 443 114
LayerCount: 2
Back
Fore
SplineSet
557 294 m 0
 566 170 487 118 395 118 c 2
 223 118 l 1
 223 -146 l 2
 223 -165 239 -183 258 -183 c 2
 310 -183 l 1
 310 -213 l 1
 30 -213 l 1
 30 -183 l 1
 83 -183 l 2
 101 -183 118 -163 118 -146 c 0
 118 6 118 537 118 595 c 0
 118 612 101 632 83 632 c 2
 30 632 l 1
 30 662 l 1
 310 662 l 1
 310 632 l 1
 258 632 l 2
 239 632 223 614 223 595 c 2
 223 424 l 1
 410 424 l 2
 485 424 550 393 557 294 c 0
443 292 m 0
 443 355 384 382 323 382 c 2
 223 382 l 1
 223 155 l 1
 322 155 l 2
 404 155 444 192 443 292 c 0
EndSplineSet
EndChar

StartChar: germandbls
Encoding: 223 223 159
Width: 612
Flags: MW
HStem: -6 22 410 29<46 91> 647 22<241.566 336.698>
VStem: 91 106<51 410 410 410 439 534 534 570> 220 115<79.3665 138.806> 421 123
LayerCount: 2
Back
Fore
SplineSet
454 143 m 0
 459 224 398 299 317 299 c 1
 317 328 l 1
 390 344 423 400 421 474 c 0
 418 569 393 647 278 647 c 0
 235 647 197 613 197 570 c 2
 197 0 l 1
 21 0 l 1
 21 24 l 1
 66 24 l 2
 79 24 91 38 91 51 c 2
 91 410 l 1
 46 410 l 1
 46 439 l 1
 91 439 l 1
 91 534 l 2
 91 639 205 668 311 669 c 0
 594 671 591 408 449 367 c 1
 450 354 l 1
 663 248 598 -5 344 -6 c 0
 282 -6 218 65 220 104 c 0
 227 227 339 191 335 113 c 0
 334 83 302 66 275 70 c 1
 284 49 294 40 312 26 c 0
 352 -5 448 39 454 143 c 0
EndSplineSet
EndChar

StartChar: acircumflex
Encoding: 226 226 162
Width: 527
Flags: W
LayerCount: 2
Back
Fore
SplineSet
411 513 m 1
 374 513 l 1
 289 592 l 1
 280 592 l 1
 195 513 l 1
 154 513 l 1
 273 666 l 1
 294 666 l 1
 411 513 l 1
489 43 m 2
 489 7 444 -6 415 -9 c 0
 361 -14 316 18 313 72 c 1
 292 33 249 -9 203 -9 c 0
 129 -9 37 26 40 104 c 0
 45 246 233 215 313 280 c 1
 313 380 l 2
 313 416 279 436 246 436 c 0
 223 436 200 435 180 423 c 1
 183 405 178 397 174 379 c 0
 166 346 157 309 124 309 c 0
 31 308 87 475 301 472 c 0
 327 472 419 456 419 389 c 2
 419 77 l 2
 419 58 430 37 450 38 c 0
 467 39 483 65 489 80 c 1
 489 43 l 2
313 124 m 1
 313 245 l 1
 269 210 152 221 146 134 c 0
 139 39 177 38 234 38 c 0
 267 38 300 97 313 124 c 1
EndSplineSet
EndChar

StartChar: aring
Encoding: 229 229 165
Width: 527
Flags: MW
HStem: -10 20 512 33<237.971 305.59> 630 29<272 272>
VStem: 198 31 314 31
LayerCount: 2
Back
Fore
SplineSet
272 659 m 0
 370 657 368 515 270 512 c 0
 172 509 175 660 272 659 c 0
272 630 m 0
 215 631 214 545 271 545 c 0
 328 545 328 630 272 630 c 0
489 43 m 2
 489 7 444 -6 415 -9 c 0
 361 -14 316 18 313 72 c 1
 292 33 249 -9 203 -9 c 0
 129 -9 37 26 40 104 c 0
 45 246 233 215 313 280 c 1
 313 380 l 2
 313 416 279 436 246 436 c 0
 223 436 200 435 180 423 c 1
 183 405 178 397 174 379 c 0
 166 346 157 309 124 309 c 0
 31 308 87 475 301 472 c 0
 327 472 419 456 419 389 c 2
 419 77 l 2
 419 58 430 37 450 38 c 0
 467 39 483 65 489 80 c 1
 489 43 l 2
313 124 m 1
 313 245 l 1
 269 210 152 221 146 134 c 0
 139 39 177 38 234 38 c 0
 267 38 300 97 313 124 c 1
EndSplineSet
EndChar

StartChar: ae
Encoding: 230 230 166
Width: 681
Flags: MW
HStem: -9 39<157.554 228.975> 284 34<371 554> 450 22<436 498>
VStem: 22 106<57.2422 174.113> 262 101<246 250 250 253.5>
LayerCount: 2
Back
Fore
SplineSet
638 284 m 1
 366 284 l 1
 364 270 363 261 363 246 c 0
 365 149 373 94 446 93 c 0
 536 92 571 68 618 157 c 1
 618 94 l 1
 585 27 527 -9 453 -9 c 0
 381 -9 325 24 293 87 c 1
 275 43 225 -9 175 -9 c 0
 101 -9 19 29 22 98 c 0
 28 248 178 267 262 265 c 1
 262 377 l 2
 262 414 229 433 195 433 c 0
 171 433 146 431 125 418 c 1
 128 400 127 390 123 372 c 0
 115 339 106 307 73 308 c 0
 -4 310 50 472 244 472 c 0
 269 472 315 459 323 406 c 1
 358 446 406 472 466 472 c 0
 558 472 650 381 638 284 c 1
554 318 m 1
 556 372 530 450 466 450 c 0
 394 450 387 392 371 318 c 1
 554 318 l 1
281 114 m 1
 272 139 261 158 262 215 c 1
 262 215 262 293 262 250 c 1
 253 247 244 243 232 238 c 0
 180 214 131 191 128 134 c 0
 126 82 149 31 206 30 c 0
 252 29 269 78 281 114 c 1
EndSplineSet
EndChar

StartChar: ecircumflex
Encoding: 234 234 170
Width: 535
Flags: W
LayerCount: 2
Back
Fore
SplineSet
412 513 m 1
 374 513 l 1
 289 592 l 1
 280 592 l 1
 195 513 l 1
 154 513 l 1
 273 666 l 1
 294 666 l 1
 412 513 l 1
493 290 m 1
 163 290 l 1
 161 276 155 261 155 246 c 0
 155 162 224 106 281 106 c 0
 364 106 449 129 489 205 c 1
 489 92 l 1
 461 35 349 -9 288 -9 c 0
 169 -9 41 80 47 242 c 0
 51 361 168 472 294 472 c 0
 389 472 493 418 493 290 c 1
386 318 m 1
 386 376 362 456 294 456 c 0
 221 456 184 392 168 318 c 1
 386 318 l 1
EndSplineSet
EndChar

StartChar: icircumflex
Encoding: 238 238 174
Width: 294
Flags: W
LayerCount: 2
Back
Fore
SplineSet
270 513 m 1
 232 513 l 1
 147 592 l 1
 138 592 l 1
 53 513 l 1
 12 513 l 1
 131 666 l 1
 152 666 l 1
 270 513 l 1
278 0 m 1
 31 0 l 1
 31 24 l 1
 76 24 l 2
 89 24 102 38 102 51 c 2
 102 372 l 1
 49 390 l 1
 49 407 l 1
 207 474 l 1
 207 51 l 2
 207 38 220 24 233 24 c 2
 278 24 l 1
 278 0 l 1
EndSplineSet
EndChar

StartChar: eth
Encoding: 240 240 176
Width: 478
Flags: MW
HStem: 387 38 493 43<208 267 391 456 391 391> 619 26
VStem: -2 104 306 104
LayerCount: 2
Back
Fore
SplineSet
456 493 m 1
 391 493 l 1
 422 388 411 252 381 167 c 0
 335 39 231 -2 132 3 c 0
 -39 11 -11 189 25 280 c 0
 57 362 236 482 302 395 c 1
 304 445 298 457 285 493 c 1
 282 493 207 493 207 493 c 1
 208 536 l 1
 267 536 l 1
 255 576 177 635 134 616 c 2
 110 605 l 1
 115 631 l 1
 148 641 l 2
 220 663 357 598 374 536 c 1
 456 536 l 1
 456 493 l 1
267 386 m 0
 164 413 51 51 127 35 c 0
 222 15 378 357 267 386 c 0
EndSplineSet
EndChar

StartChar: ocircumflex
Encoding: 244 244 180
Width: 576
Flags: W
LayerCount: 2
Back
Fore
SplineSet
406 513 m 1
 368 513 l 1
 283 592 l 1
 274 592 l 1
 190 513 l 1
 149 513 l 1
 268 666 l 1
 288 666 l 1
 406 513 l 1
285 -9 m 0
 -49 -9 -47 472 285 472 c 0
 625 472 625 -9 285 -9 c 0
285 6 m 0
 460 6 460 455 285 455 c 0
 109 455 109 6 285 6 c 0
EndSplineSet
EndChar

StartChar: divide
Encoding: 247 247 183
Width: 364
Flags: MW
HStem: 94 85<146 202.5> 254 45<33 312> 355 85
VStem: 131 85
LayerCount: 2
Back
Fore
SplineSet
185 440 m 0
 241 436 237 351 180 355 c 0
 123 358 128 443 185 440 c 0
312 254 m 1
 33 254 l 1
 33 299 l 1
 312 299 l 1
 312 254 l 1
174 94 m 0
 118 94 118 179 174 179 c 0
 231 179 231 94 174 94 c 0
EndSplineSet
EndChar

StartChar: oslash
Encoding: 248 248 184
Width: 576
Flags: MW
HStem: -9 15<248.5 320.5> 455 18<219.168 302.188>
VStem: 6 119
LayerCount: 2
Back
Fore
SplineSet
468 599 m 1
 393 445 l 1
 589 338 545 -9 257 -9 c 0
 237 -9 216 -13 195 -17 c 1
 144 -125 l 1
 59 -125 l 1
 123 14 l 1
 -69 122 -23 472 257 472 c 0
 278 472 300 472 321 473 c 1
 383 599 l 1
 468 599 l 1
309 443 m 1
 293 451 276 455 257 455 c 0
 128 455 93 213 154 84 c 1
 309 443 l 1
361 374 m 1
 205 10 l 1
 222 7 240 6 257 6 c 0
 384 6 419 244 361 374 c 1
EndSplineSet
EndChar

StartChar: ucircumflex
Encoding: 251 251 187
Width: 626
Flags: W
LayerCount: 2
Back
Fore
SplineSet
412 513 m 1
 375 513 l 1
 289 592 l 1
 280 592 l 1
 196 513 l 1
 155 513 l 1
 274 666 l 1
 294 666 l 1
 412 513 l 1
577 61 m 1
 413 -9 l 1
 413 65 l 1
 383 28 328 -9 261 -9 c 0
 207 -9 85 -20 85 119 c 2
 85 412 l 2
 85 424 73 439 60 439 c 2
 15 439 l 1
 15 463 l 1
 191 463 l 1
 191 114 l 2
 191 56 230 27 276 30 c 0
 331 33 385 70 413 102 c 1
 413 412 l 2
 413 424 401 439 388 439 c 2
 343 439 l 1
 343 463 l 1
 519 463 l 1
 519 100 l 1
 577 84 l 1
 577 61 l 1
EndSplineSet
EndChar

StartChar: thorn
Encoding: 254 254 190
Width: 598
Flags: MW
HStem: -147 24<34 79 79 85.5 235 280> -9 23<352 352> 544 24<34 79 228.5 235 235 280>
VStem: 104 106<-96 28 122 325 424 517> 456 120<147.375 354.703>
LayerCount: 2
Back
Fore
SplineSet
576 243 m 0
 579 109 452 -7 352 -9 c 0
 306 -10 242 2 210 28 c 1
 210 -96 l 2
 210 -109 222 -123 235 -123 c 2
 280 -123 l 1
 280 -147 l 1
 34 -147 l 1
 34 -123 l 1
 79 -123 l 2
 92 -123 104 -108 104 -96 c 2
 104 517 l 2
 104 529 92 544 79 544 c 2
 34 544 l 1
 34 568 l 1
 280 568 l 1
 280 544 l 1
 235 544 l 2
 222 544 210 530 210 517 c 2
 210 424 l 1
 254 453 300 468 352 472 c 0
 474 481 573 412 576 243 c 0
456 239 m 0
 456 399 378 453 345 448 c 0
 259 436 210 385 210 325 c 2
 210 122 l 1
 220 61 272 12 352 14 c 0
 431 16 456 123 456 239 c 0
EndSplineSet
EndChar

StartChar: Cacute
Encoding: 262 262 198
Width: 618
Flags: W
LayerCount: 2
Back
Fore
SplineSet
594 228 m 1
 549 -1 l 1
 523 -1 l 1
 525 18 510 36 491 36 c 0
 436 35 395 0 334 -2 c 0
 94 -12 22 150 22 323 c 0
 22 487 115 681 345 679 c 0
 447 678 463 625 493 629 c 0
 515 632 530 656 541 673 c 1
 565 673 l 1
 576 446 l 1
 550 446 l 1
 525 540 452 665 342 665 c 0
 217 665 138 494 136 336 c 0
 134 192 186 17 321 17 c 0
 393 17 483 65 534 143 c 0
 554 174 564 193 574 228 c 1
 594 228 l 1
389 786 m 1
 295 706 l 1
 258 706 l 1
 320 786 l 1
 389 786 l 1
EndSplineSet
EndChar

StartChar: cacute
Encoding: 263 263 199
Width: 515
Flags: W
LayerCount: 2
Back
Fore
SplineSet
452 104 m 1
 424 42 368 -9 297 -9 c 0
 154 -9 52 108 53 226 c 0
 55 378 179 472 314 472 c 0
 458 471 499 312 405 306 c 0
 366 304 342 353 352 396 c 0
 355 409 365 416 373 426 c 1
 352 447 343 447 314 448 c 0
 226 451 177 361 174 276 c 0
 170 169 199 58 308 53 c 0
 376 50 422 102 452 157 c 1
 452 104 l 1
317 650 m 1
 223 570 l 1
 186 570 l 1
 248 650 l 1
 317 650 l 1
EndSplineSet
EndChar

StartChar: Ccircumflex
Encoding: 264 264 200
Width: 618
Flags: W
LayerCount: 2
Back
Fore
SplineSet
594 228 m 1
 549 -1 l 1
 523 -1 l 1
 525 18 510 36 491 36 c 0
 436 35 395 0 334 -2 c 0
 94 -12 22 150 22 323 c 0
 22 487 115 681 345 679 c 0
 447 678 463 625 493 629 c 0
 515 632 530 656 541 673 c 1
 565 673 l 1
 576 446 l 1
 550 446 l 1
 525 540 452 665 342 665 c 0
 217 665 138 494 136 336 c 0
 134 192 186 17 321 17 c 0
 393 17 483 65 534 143 c 0
 554 174 564 193 574 228 c 1
 594 228 l 1
391 686 m 1
 373 686 l 1
 309 749 l 1
 303 749 l 1
 240 686 l 1
 219 686 l 1
 298 789 l 1
 312 789 l 1
 391 686 l 1
EndSplineSet
EndChar

StartChar: ccircumflex
Encoding: 265 265 201
Width: 515
Flags: W
LayerCount: 2
Back
Fore
SplineSet
452 104 m 1
 424 42 368 -9 297 -9 c 0
 154 -9 52 108 53 226 c 0
 55 378 179 472 314 472 c 0
 458 471 499 312 405 306 c 0
 366 304 342 353 352 396 c 0
 355 409 365 416 373 426 c 1
 352 447 343 447 314 448 c 0
 226 451 177 361 174 276 c 0
 170 169 199 58 308 53 c 0
 376 50 422 102 452 157 c 1
 452 104 l 1
390 540 m 1
 363 540 l 1
 271 631 l 1
 262 631 l 1
 171 540 l 1
 141 540 l 1
 256 688 l 1
 276 688 l 1
 390 540 l 1
EndSplineSet
EndChar

StartChar: Dcroat
Encoding: 272 272 208
Width: 792
Flags: W
LayerCount: 2
Back
Fore
SplineSet
719 347 m 0
 722 194 575 0 356 0 c 2
 23 0 l 1
 23 30 l 1
 76 30 l 2
 94 30 111 50 111 67 c 2
 111 296 l 1
 30 296 l 1
 30 343 l 1
 111 343 l 1
 111 594 l 2
 111 611 94 631 76 631 c 2
 23 631 l 1
 23 661 l 1
 456 661 l 2
 659 661 717 446 719 347 c 0
607 359 m 0
 598 493 530 625 396 625 c 2
 253 625 l 2
 228 625 216 596 216 575 c 2
 216 343 l 1
 289 343 l 1
 289 296 l 1
 216 296 l 1
 216 86 l 2
 216 65 228 36 253 36 c 2
 347 36 l 2
 510 36 617 196 607 359 c 0
EndSplineSet
EndChar

StartChar: dcroat
Encoding: 273 273 209
Width: 589
Flags: MW
HStem: -9 17 448 24<271 271> 502 46<328 389 495 556>
VStem: 26 119<131.766 323.088> 389 106<121 292 292 355.5 432 502 548 589 589 589>
LayerCount: 2
Back
Fore
SplineSet
556 502 m 1
 495 502 l 1
 495 80 l 1
 518 70 l 1
 518 45 l 1
 389 -9 l 1
 389 21 l 1
 356 1 313 -8 271 -9 c 0
 130 -13 30 89 26 228 c 0
 23 350 132 473 271 472 c 0
 318 471 358 459 389 432 c 1
 389 502 l 1
 328 502 l 1
 328 548 l 1
 389 548 l 1
 389 589 l 1
 341 599 l 1
 344 621 l 1
 495 680 l 1
 495 548 l 1
 556 548 l 1
 556 502 l 1
389 121 m 1
 389 292 l 2
 389 419 368 448 271 448 c 0
 173 447 147 336 145 239 c 0
 142 135 170 -1 273 8 c 0
 349 14 379 45 389 121 c 1
EndSplineSet
EndChar

StartChar: Gcircumflex
Encoding: 284 284 220
Width: 714
Flags: W
LayerCount: 2
Back
Fore
SplineSet
679 339 m 1
 634 339 l 2
 611 339 604 313 604 295 c 2
 604 68 l 1
 553 82 l 1
 503 19 419 -3 342 -6 c 0
 174 -12 26 165 27 332 c 0
 27 496 184 667 334 664 c 0
 410 662 445 652 499 602 c 1
 540 658 l 1
 569 658 l 1
 582 440 l 1
 562 440 l 1
 533 543 445 648 329 639 c 0
 205 629 133 461 134 324 c 0
 136 180 205 15 358 19 c 0
 423 21 464 38 499 91 c 1
 499 295 l 2
 499 316 492 339 466 339 c 2
 435 339 l 1
 435 363 l 1
 679 363 l 1
 679 339 l 1
425 737 m 1
 403 737 l 1
 328 811 l 1
 321 811 l 1
 247 737 l 1
 223 737 l 1
 316 858 l 1
 332 858 l 1
 425 737 l 1
EndSplineSet
EndChar

StartChar: gcircumflex
Encoding: 285 285 221
Width: 517
Flags: W
LayerCount: 2
Back
Fore
SplineSet
447 -57 m 0
 446 -163 344 -212 231 -212 c 0
 137 -212 12 -190 14 -94 c 0
 15 -51 82 0 120 17 c 1
 82 30 51 77 51 106 c 0
 51 151 108 167 155 172 c 1
 16 169 -40 466 218 466 c 0
 299 466 322 445 346 419 c 1
 346 440 l 2
 346 445 348 450 347 456 c 0
 338 557 467 532 462 464 c 0
 458 413 412 399 379 413 c 0
 367 417 371 409 364 420 c 1
 364 420 364 396 364 395 c 0
 408 319 400 158 218 158 c 0
 212 158 206 158 200 159 c 1
 161 156 124 158 124 131 c 0
 124 88 448 88 447 -57 c 0
218 176 m 0
 313 176 313 453 218 453 c 0
 121 453 117 176 218 176 c 0
373 -91 m 0
 373 -48 246 -17 149 10 c 1
 111 -17 81 -44 82 -94 c 0
 83 -170 156 -181 231 -181 c 0
 308 -181 374 -168 373 -91 c 0
335 562 m 1
 308 562 l 1
 216 653 l 1
 208 653 l 1
 117 562 l 1
 86 562 l 1
 201 710 l 1
 221 710 l 1
 335 562 l 1
EndSplineSet
EndChar

StartChar: gcommaaccent
Encoding: 291 291 227
Width: 517
Flags: W
LayerCount: 2
Back
Fore
SplineSet
447 -57 m 0
 446 -163 344 -212 231 -212 c 0
 137 -212 12 -190 14 -94 c 0
 15 -51 82 0 120 17 c 1
 82 30 51 77 51 106 c 0
 51 151 108 167 155 172 c 1
 16 169 -40 466 218 466 c 0
 299 466 322 445 346 419 c 1
 346 440 l 2
 346 445 348 450 347 456 c 0
 338 557 467 532 462 464 c 0
 458 413 412 399 379 413 c 0
 367 417 371 409 364 420 c 1
 364 420 364 396 364 395 c 0
 408 319 400 158 218 158 c 0
 212 158 206 158 200 159 c 1
 161 156 124 158 124 131 c 0
 124 88 448 88 447 -57 c 0
218 176 m 0
 313 176 313 453 218 453 c 0
 121 453 117 176 218 176 c 0
373 -91 m 0
 373 -48 246 -17 149 10 c 1
 111 -17 81 -44 82 -94 c 0
 83 -170 156 -181 231 -181 c 0
 308 -181 374 -168 373 -91 c 0
80 564 m 0
 76 660 144 678 225 680 c 2
 277 681 l 1
 277 647 l 1
 220 642 l 2
 184 639 146 629 146 585 c 0
 146 555 178 540 207 540 c 2
 245 540 l 1
 245 465 l 1
 200 455 l 1
 200 493 l 1
 172 493 l 2
 127 493 81 524 80 564 c 0
EndSplineSet
EndChar

StartChar: Hcircumflex
Encoding: 292 292 228
Width: 818
Flags: W
LayerCount: 2
Back
Fore
SplineSet
748 0 m 1
 467 0 l 1
 467 30 l 1
 520 30 l 2
 538 30 555 50 555 67 c 2
 555 332 l 1
 238 332 l 1
 238 67 l 2
 238 48 254 30 273 30 c 2
 325 30 l 1
 325 0 l 1
 45 0 l 1
 45 30 l 1
 98 30 l 2
 116 30 133 50 133 67 c 2
 133 594 l 2
 133 611 116 631 98 631 c 2
 45 631 l 1
 45 661 l 1
 325 661 l 1
 325 631 l 1
 273 631 l 2
 254 631 238 613 238 594 c 2
 238 361 l 1
 555 361 l 1
 555 594 l 2
 555 611 538 631 520 631 c 2
 467 631 l 1
 467 661 l 1
 748 661 l 1
 748 631 l 1
 695 631 l 2
 676 631 660 613 660 594 c 2
 660 67 l 2
 660 48 676 30 695 30 c 2
 748 30 l 1
 748 0 l 1
487 672 m 1
 466 672 l 1
 394 743 l 1
 387 743 l 1
 316 672 l 1
 293 672 l 1
 382 787 l 1
 398 787 l 1
 487 672 l 1
EndSplineSet
EndChar

StartChar: hcircumflex
Encoding: 293 293 229
Width: 608
Flags: W
LayerCount: 2
Back
Fore
SplineSet
588 0 m 1
 342 0 l 1
 342 24 l 1
 387 24 l 2
 400 24 412 38 412 51 c 2
 412 358 l 2
 412 401 375 439 332 437 c 0
 283 435 230 396 204 366 c 1
 204 51 l 2
 204 38 215 24 229 24 c 2
 274 24 l 1
 274 0 l 1
 28 0 l 1
 28 24 l 1
 72 24 l 2
 85 24 98 38 98 51 c 2
 98 561 l 1
 43 577 l 1
 43 598 l 1
 204 665 l 1
 204 402 l 1
 235 435 291 469 346 472 c 0
 401 476 518 453 518 387 c 2
 518 51 l 2
 518 39 530 24 543 24 c 2
 588 24 l 1
 588 0 l 1
410 673 m 1
 389 673 l 1
 316 746 l 1
 309 746 l 1
 236 673 l 1
 212 673 l 1
 304 791 l 1
 319 791 l 1
 410 673 l 1
EndSplineSet
EndChar

StartChar: Hbar
Encoding: 294 294 230
Width: 818
Flags: MW
HStem: 0 30<45 98 98 107 273 325 467 520 520 529 695 748> 332 29<238 555> 496 42<70 133 238 555 660 730> 631 30<45 98 263.5 273 273 325 467 520 685.5 695 695 748>
VStem: 133 105<67 332 361 496 538 594> 555 105<67 332 332 332 361 496 538 594>
LayerCount: 2
Back
Fore
SplineSet
748 0 m 1
 467 0 l 1
 467 30 l 1
 520 30 l 2
 538 30 555 50 555 67 c 2
 555 332 l 1
 238 332 l 1
 238 67 l 2
 238 48 254 30 273 30 c 2
 325 30 l 1
 325 0 l 1
 45 0 l 1
 45 30 l 1
 98 30 l 2
 116 30 133 50 133 67 c 2
 133 496 l 1
 70 496 l 1
 70 538 l 1
 133 538 l 1
 133 594 l 2
 133 611 116 631 98 631 c 2
 45 631 l 1
 45 661 l 1
 325 661 l 1
 325 631 l 1
 273 631 l 2
 254 631 238 613 238 594 c 2
 238 538 l 1
 555 538 l 1
 555 594 l 2
 555 611 538 631 520 631 c 2
 467 631 l 1
 467 661 l 1
 748 661 l 1
 748 631 l 1
 695 631 l 2
 676 631 660 613 660 594 c 2
 660 538 l 1
 730 538 l 1
 730 496 l 1
 660 496 l 1
 660 67 l 2
 660 48 676 30 695 30 c 2
 748 30 l 1
 748 0 l 1
555 361 m 1
 555 496 l 1
 238 496 l 1
 238 361 l 1
 555 361 l 1
EndSplineSet
EndChar

StartChar: hbar
Encoding: 295 295 231
Width: 608
Flags: MW
HStem: 0 24<28 72 72 78.5 229 274 342 387 387 393.5 543 588> 445 27 496 42<35 98 204 266> 645 20<204 204>
VStem: 98 106<51 374 402 496 538 563 563 563> 412 106<51 366 366 387.5>
LayerCount: 2
Back
Fore
SplineSet
588 0 m 1
 342 0 l 1
 342 24 l 1
 387 24 l 2
 400 24 412 38 412 51 c 2
 412 366 l 2
 412 409 375 447 332 445 c 0
 283 443 230 404 204 374 c 1
 204 51 l 2
 204 38 215 24 229 24 c 2
 274 24 l 1
 274 0 l 1
 28 0 l 1
 28 24 l 1
 72 24 l 2
 85 24 98 38 98 51 c 2
 98 496 l 1
 35 496 l 1
 35 538 l 1
 98 538 l 1
 98 563 l 1
 43 579 l 1
 43 598 l 1
 204 665 l 1
 204 538 l 1
 266 538 l 1
 266 496 l 1
 204 496 l 1
 204 402 l 1
 235 435 291 469 346 472 c 0
 401 476 518 463 518 397 c 2
 518 51 l 2
 518 39 530 24 543 24 c 2
 588 24 l 1
 588 0 l 1
EndSplineSet
EndChar

StartChar: Itilde
Encoding: 296 296 232
Width: 395
Flags: W
LayerCount: 2
Back
Fore
SplineSet
325 0 m 1
 45 0 l 1
 45 30 l 1
 98 30 l 2
 116 30 133 50 133 67 c 2
 133 594 l 2
 133 611 116 631 98 631 c 2
 45 631 l 1
 45 661 l 1
 325 661 l 1
 325 631 l 1
 273 631 l 2
 254 631 238 613 238 594 c 2
 238 67 l 2
 238 48 254 30 273 30 c 2
 325 30 l 1
 325 0 l 1
272 783 m 1
 274 751 253 712 220 712 c 0
 182 713 176 745 153 744 c 0
 128 744 114 733 100 712 c 1
 87 712 l 1
 88 751 122 786 155 787 c 0
 181 788 201 754 218 756 c 0
 240 758 251 766 264 783 c 1
 272 783 l 1
EndSplineSet
EndChar

StartChar: itilde
Encoding: 297 297 233
Width: 294
Flags: W
LayerCount: 2
Back
Fore
SplineSet
278 0 m 1
 31 0 l 1
 31 24 l 1
 76 24 l 2
 89 24 102 38 102 51 c 2
 102 372 l 1
 49 390 l 1
 49 407 l 1
 207 474 l 1
 207 51 l 2
 207 38 220 24 233 24 c 2
 278 24 l 1
 278 0 l 1
201 595 m 1
 203 569 185 538 159 539 c 0
 129 539 124 564 105 564 c 0
 86 564 74 555 63 539 c 1
 53 539 l 1
 54 569 81 597 108 598 c 0
 128 599 144 572 158 574 c 0
 175 575 184 582 194 595 c 1
 201 595 l 1
EndSplineSet
EndChar

StartChar: Ibreve
Encoding: 300 300 236
Width: 395
Flags: W
LayerCount: 2
Back
Fore
SplineSet
325 0 m 1
 45 0 l 1
 45 30 l 1
 98 30 l 2
 116 30 133 50 133 67 c 2
 133 594 l 2
 133 611 116 631 98 631 c 2
 45 631 l 1
 45 661 l 1
 325 661 l 1
 325 631 l 1
 273 631 l 2
 254 631 238 613 238 594 c 2
 238 67 l 2
 238 48 254 30 273 30 c 2
 325 30 l 1
 325 0 l 1
294 786 m 1
 287 732 244 692 193 692 c 0
 141 692 97 733 91 786 c 1
 118 786 l 1
 127 758 150 747 193 747 c 0
 229 747 256 760 268 786 c 1
 294 786 l 1
EndSplineSet
EndChar

StartChar: dotlessi
Encoding: 305 305 241
Width: 294
Flags: MW
HStem: 0 20<31 90.9721 218.028 278>
LayerCount: 2
Back
Fore
SplineSet
278 0 m 1
 31 0 l 1
 31 24 l 1
 76 24 l 2
 89 24 102 38 102 51 c 2
 102 372 l 1
 49 390 l 1
 49 407 l 1
 207 474 l 1
 207 51 l 2
 207 38 220 24 233 24 c 2
 278 24 l 1
 278 0 l 1
EndSplineSet
EndChar

StartChar: IJ
Encoding: 306 306 242
Width: 707
Flags: W
LayerCount: 2
Back
Fore
SplineSet
325 0 m 1
 45 0 l 1
 45 30 l 1
 98 30 l 2
 116 30 133 50 133 67 c 2
 133 594 l 2
 133 611 116 631 98 631 c 2
 45 631 l 1
 45 661 l 1
 325 661 l 1
 325 631 l 1
 273 631 l 2
 253 631 238 613 238 594 c 2
 238 67 l 2
 238 48 253 30 273 30 c 2
 325 30 l 1
 325 0 l 1
697 631 m 1
 644 631 l 2
 625 631 609 613 609 594 c 2
 609 133 l 2
 609 18 554 -106 418 -106 c 0
 370 -106 327 -84 327 -36 c 0
 327 -12 355 23 380 23 c 0
 407 23 433 -12 433 -30 c 0
 433 -59 410 -70 387 -76 c 1
 394 -82 412 -89 429 -85 c 0
 494 -69 504 11 504 71 c 2
 504 594 l 2
 504 611 487 631 469 631 c 2
 416 631 l 1
 416 661 l 1
 697 661 l 1
 697 631 l 1
EndSplineSet
Ligature2: "'liga' Standard Ligatures in Latin lookup 0 subtable" I J
EndChar

StartChar: ij
Encoding: 307 307 243
Width: 543
Flags: W
LayerCount: 2
Back
Fore
SplineSet
187 583 m 0
 187 527 102 527 102 583 c 0
 102 641 187 641 187 583 c 0
278 0 m 1
 31 0 l 1
 31 24 l 1
 76 24 l 2
 89 24 102 38 102 51 c 2
 102 372 l 1
 49 390 l 1
 49 407 l 1
 207 474 l 1
 207 51 l 2
 207 38 220 24 233 24 c 2
 278 24 l 1
 278 0 l 1
475 583 m 0
 475 523 385 523 385 583 c 0
 385 644 475 644 475 583 c 0
499 -35 m 2
 499 -118 402 -151 347 -150 c 0
 227 -147 264 -34 315 -33 c 0
 349 -32 379 -96 346 -117 c 0
 338 -122 332 -128 324 -132 c 1
 335 -132 353 -130 363 -125 c 0
 385 -113 393 -94 393 -69 c 2
 393 383 l 1
 353 396 l 1
 353 417 l 1
 499 474 l 1
 499 -35 l 2
EndSplineSet
Ligature2: "'liga' Standard Ligatures in Latin lookup 0 subtable" i j
EndChar

StartChar: Jcircumflex
Encoding: 308 308 244
Width: 394
Flags: W
LayerCount: 2
Back
Fore
SplineSet
373 631 m 1
 320 631 l 2
 301 631 285 613 285 594 c 2
 285 133 l 2
 285 18 230 -106 94 -106 c 0
 46 -106 3 -84 3 -36 c 0
 3 -12 31 23 56 23 c 0
 83 23 109 -12 109 -30 c 0
 109 -59 86 -70 63 -76 c 1
 70 -82 88 -89 105 -85 c 0
 170 -69 180 11 180 71 c 2
 180 594 l 2
 180 611 163 631 145 631 c 2
 92 631 l 1
 92 661 l 1
 373 661 l 1
 373 631 l 1
343 668 m 1
 321 668 l 1
 245 744 l 1
 237 744 l 1
 162 668 l 1
 137 668 l 1
 232 791 l 1
 249 791 l 1
 343 668 l 1
EndSplineSet
EndChar

StartChar: jcircumflex
Encoding: 309 309 245
Width: 221
Flags: MW
HStem: -146 89<37.3988 70.1513>
VStem: 12 75 117 56<-64.5 -35 -35 397 397 397>
LayerCount: 2
Back
Fore
SplineSet
173 -35 m 2
 173 -94 126 -144 71 -146 c 0
 -9 -148 0 -58 51 -57 c 0
 85 -56 98 -92 76 -117 c 0
 70 -124 68 -128 60 -132 c 1
 71 -132 77 -130 87 -125 c 0
 109 -113 117 -94 117 -69 c 2
 117 397 l 1
 77 410 l 1
 77 417 l 1
 173 474 l 1
 173 -35 l 2
248 523 m 1
 226 523 l 1
 150 598 l 1
 143 598 l 1
 67 523 l 1
 42 523 l 1
 137 646 l 1
 154 646 l 1
 248 523 l 1
EndSplineSet
EndChar

StartChar: kgreenlandic
Encoding: 312 312 248
Width: 555
Flags: MW
HStem: 0 22<28 72 72 78.5 229 274> 441 22<301 330>
VStem: 98 106<49 204 217 411> 301 225<441 463>
LayerCount: 2
Back
Fore
SplineSet
546 0 m 1
 496 0 369 -14 338 38 c 2
 231 220 l 1
 204 204 l 1
 204 49 l 2
 204 36 215 22 229 22 c 2
 274 22 l 1
 274 0 l 1
 28 0 l 1
 28 22 l 1
 72 22 l 2
 85 22 98 36 98 49 c 2
 98 411 l 2
 98 424 85 438 72 438 c 2
 28 438 l 1
 28 462 l 1
 274 462 l 1
 274 438 l 1
 229 438 l 2
 215 438 204 424 204 411 c 2
 204 217 l 1
 334 340 l 2
 369 373 385 441 330 441 c 2
 301 441 l 1
 301 463 l 1
 526 463 l 1
 526 441 l 1
 477 435 444 414 407 383 c 2
 306 297 l 1
 467 42 l 1
 471 32 489 18 500 18 c 2
 546 18 l 1
 546 0 l 1
EndSplineSet
EndChar

StartChar: Lacute
Encoding: 313 313 249
Width: 599
Flags: W
LayerCount: 2
Back
Fore
SplineSet
589 179 m 1
 539 0 l 1
 28 0 l 1
 28 30 l 1
 81 30 l 2
 109 30 117 59 117 82 c 2
 117 594 l 2
 117 612 99 631 81 631 c 2
 28 631 l 1
 28 661 l 1
 309 661 l 1
 309 631 l 1
 256 631 l 2
 237 631 222 612 222 594 c 2
 222 79 l 2
 222 56 234 29 260 29 c 2
 380 29 l 2
 460 29 546 103 568 179 c 1
 589 179 l 1
260 784 m 1
 152 692 l 1
 109 692 l 1
 181 784 l 1
 260 784 l 1
EndSplineSet
EndChar

StartChar: lacute
Encoding: 314 314 250
Width: 298
Flags: W
LayerCount: 2
Back
Fore
SplineSet
277 0 m 1
 31 0 l 1
 31 24 l 1
 76 24 l 2
 89 24 101 39 101 51 c 2
 101 566 l 1
 46 581 l 1
 46 603 l 1
 207 670 l 1
 207 51 l 2
 207 38 219 24 232 24 c 2
 277 24 l 1
 277 0 l 1
200 787 m 1
 106 707 l 1
 68 707 l 1
 131 787 l 1
 200 787 l 1
EndSplineSet
EndChar

StartChar: Lslash
Encoding: 321 321 257
Width: 599
Flags: MW
HStem: 0 30<28 81 81 95> 631 30<28 81 246.5 256 256 309>
VStem: 117 105<82 423 423 423 493 594>
LayerCount: 2
Back
Fore
SplineSet
583 179 m 1
 533 0 l 1
 28 0 l 1
 28 30 l 1
 81 30 l 2
 109 30 117 59 117 82 c 2
 117 423 l 1
 45 405 l 1
 45 454 l 1
 117 472 l 1
 117 594 l 2
 117 612 99 631 81 631 c 2
 28 631 l 1
 28 661 l 1
 309 661 l 1
 309 631 l 1
 256 631 l 2
 237 631 222 612 222 594 c 2
 222 493 l 1
 294 509 l 1
 294 460 l 1
 222 444 l 1
 222 79 l 2
 222 56 234 29 260 29 c 2
 380 29 l 2
 466 29 545 99 568 179 c 1
 583 179 l 1
EndSplineSet
EndChar

StartChar: lslash
Encoding: 322 322 258
Width: 298
Flags: MW
HStem: 0 24<31 76 76 82.5 232 277> 650 20<207 207>
VStem: 101 106<51 51>
LayerCount: 2
Back
Fore
SplineSet
278 464 m 1
 208 445 l 1
 207 51 l 1
 207 38 219 24 232 24 c 2
 277 24 l 1
 277 0 l 1
 31 0 l 1
 31 24 l 1
 76 24 l 2
 89 24 101 39 101 51 c 2
 101 423 l 1
 31 405 l 1
 31 454 l 1
 101 472 l 1
 101 566 l 1
 46 581 l 1
 46 603 l 1
 207 670 l 1
 208 494 l 1
 278 513 l 1
 278 464 l 1
EndSplineSet
EndChar

StartChar: Nacute
Encoding: 323 323 259
Width: 764
Flags: W
LayerCount: 2
Back
Fore
SplineSet
769 630 m 1
 721 630 l 2
 676 630 656 575 656 538 c 2
 656 0 l 1
 564 0 l 1
 176 598 l 1
 176 123 l 2
 176 88 198 31 241 31 c 2
 279 31 l 1
 279 0 l 1
 37 0 l 1
 37 31 l 1
 86 31 l 2
 129 31 151 88 151 123 c 2
 151 594 l 2
 151 612 134 631 115 631 c 2
 63 631 l 1
 63 661 l 1
 247 661 l 1
 630 80 l 1
 630 538 l 2
 630 575 612 630 566 630 c 2
 528 630 l 1
 528 661 l 1
 769 661 l 1
 769 630 l 1
451 786 m 1
 357 706 l 1
 320 706 l 1
 382 786 l 1
 451 786 l 1
EndSplineSet
EndChar

StartChar: nacute
Encoding: 324 324 260
Width: 608
Flags: W
LayerCount: 2
Back
Fore
SplineSet
588 0 m 1
 342 0 l 1
 342 24 l 1
 387 24 l 2
 400 24 412 38 412 51 c 2
 412 360 l 2
 412 403 375 441 332 439 c 0
 283 437 231 399 204 370 c 1
 204 51 l 2
 204 38 217 24 230 24 c 2
 274 24 l 1
 274 0 l 1
 28 0 l 1
 28 24 l 1
 73 24 l 2
 87 24 98 38 98 51 c 2
 98 370 l 1
 44 385 l 1
 44 407 l 1
 204 474 l 1
 204 403 l 1
 236 435 291 469 346 472 c 0
 401 476 518 463 518 397 c 2
 518 51 l 2
 518 39 530 24 543 24 c 2
 588 24 l 1
 588 0 l 1
370 702 m 1
 276 622 l 1
 239 622 l 1
 301 702 l 1
 370 702 l 1
EndSplineSet
EndChar

StartChar: Ncommaaccent
Encoding: 325 325 261
Width: 764
Flags: W
LayerCount: 2
Back
Fore
SplineSet
769 630 m 1
 721 630 l 2
 676 630 656 575 656 538 c 2
 656 0 l 1
 564 0 l 1
 176 598 l 1
 176 123 l 2
 176 88 198 31 241 31 c 2
 279 31 l 1
 279 0 l 1
 37 0 l 1
 37 31 l 1
 86 31 l 2
 129 31 151 88 151 123 c 2
 151 594 l 2
 151 612 134 631 115 631 c 2
 63 631 l 1
 63 661 l 1
 247 661 l 1
 630 80 l 1
 630 538 l 2
 630 575 612 630 566 630 c 2
 528 630 l 1
 528 661 l 1
 769 661 l 1
 769 630 l 1
544 -96 m 0
 547 -192 480 -210 399 -212 c 2
 347 -213 l 1
 347 -179 l 1
 404 -174 l 2
 440 -171 478 -161 478 -117 c 0
 478 -87 446 -72 417 -72 c 2
 379 -72 l 1
 379 3 l 1
 424 13 l 1
 424 -25 l 1
 452 -25 l 2
 497 -25 542 -56 544 -96 c 0
EndSplineSet
EndChar

StartChar: Ncaron
Encoding: 327 327 263
Width: 764
Flags: W
LayerCount: 2
Back
Fore
SplineSet
769 630 m 1
 721 630 l 2
 676 630 656 575 656 538 c 2
 656 0 l 1
 564 0 l 1
 176 598 l 1
 176 123 l 2
 176 88 198 31 241 31 c 2
 279 31 l 1
 279 0 l 1
 37 0 l 1
 37 31 l 1
 86 31 l 2
 129 31 151 88 151 123 c 2
 151 594 l 2
 151 612 134 631 115 631 c 2
 63 631 l 1
 63 661 l 1
 247 661 l 1
 630 80 l 1
 630 538 l 2
 630 575 612 630 566 630 c 2
 528 630 l 1
 528 661 l 1
 769 661 l 1
 769 630 l 1
515 786 m 1
 420 692 l 1
 403 692 l 1
 307 786 l 1
 332 786 l 1
 408 728 l 1
 416 728 l 1
 492 786 l 1
 515 786 l 1
EndSplineSet
EndChar

StartChar: napostrophe
Encoding: 329 329 265
Width: 608
Flags: W
LayerCount: 2
Back
Fore
SplineSet
588 0 m 1
 342 0 l 1
 342 24 l 1
 387 24 l 2
 400 24 412 38 412 51 c 2
 412 360 l 2
 412 403 375 441 332 439 c 0
 283 437 231 399 204 370 c 1
 204 51 l 2
 204 38 217 24 230 24 c 2
 274 24 l 1
 274 0 l 1
 28 0 l 1
 28 24 l 1
 73 24 l 2
 87 24 98 38 98 51 c 2
 98 370 l 1
 44 385 l 1
 44 407 l 1
 204 474 l 1
 204 403 l 1
 236 435 291 469 346 472 c 0
 401 476 518 463 518 397 c 2
 518 51 l 2
 518 39 530 24 543 24 c 2
 588 24 l 1
 588 0 l 1
359 611 m 1
 355 600 351 591 343 581 c 0
 330 564 322 556 303 546 c 0
 292 541 275 538 262 535 c 1
 251 548 l 1
 261 551 266 554 273 560 c 0
 282 567 287 573 289 583 c 0
 290 590 291 595 287 601 c 1
 252 623 254 689 321 685 c 0
 377 682 378 636 359 611 c 1
EndSplineSet
EndChar

StartChar: Eng
Encoding: 330 330 266
Width: 833
Flags: MW
HStem: 0 25<43 92 92 113 241 279> 636 24<542 595 760.5 770 770 823>
VStem: 157 19<117 598> 401 108<-70.3974 20.0653> 630 105<81 132 132 599>
LayerCount: 2
Back
Fore
SplineSet
823 636 m 1
 770 636 l 2
 751 636 735 618 735 599 c 2
 735 132 l 2
 735 -44 605 -107 494 -107 c 0
 446 -107 399 -73 401 -25 c 0
 402 7 428 36 460 33 c 0
 487 31 507 9 509 -18 c 0
 512 -49 493 -76 463 -81 c 1
 478 -88 488 -93 505 -90 c 0
 535 -84 570 -79 598 -49 c 1
 176 598 l 1
 176 117 l 2
 176 82 198 25 241 25 c 2
 279 25 l 1
 279 0 l 1
 43 0 l 1
 43 25 l 1
 92 25 l 2
 134 25 157 82 157 117 c 2
 157 600 l 2
 157 618 139 637 121 637 c 2
 69 637 l 1
 69 661 l 1
 249 661 l 1
 630 81 l 1
 630 599 l 2
 630 617 613 636 595 636 c 2
 542 636 l 1
 542 660 l 1
 823 660 l 1
 823 636 l 1
EndSplineSet
EndChar

StartChar: eng
Encoding: 331 331 267
Width: 608
Flags: MW
HStem: -146 89<332.399 365.151> 0 18<28 73 73 80 230 274> 445 27
VStem: 98 106<45 376> 307 75 412 106<-64.5 -35 -35 366 148.5 387.5>
LayerCount: 2
Back
Fore
SplineSet
518 -35 m 2
 518 -94 421 -144 366 -146 c 0
 286 -148 295 -58 346 -57 c 0
 380 -56 393 -92 371 -117 c 0
 365 -124 363 -128 355 -132 c 1
 366 -132 372 -130 382 -125 c 0
 404 -113 412 -94 412 -69 c 0
 412 366 412 -69 412 366 c 0
 412 409 375 447 332 445 c 0
 283 443 231 405 204 376 c 1
 204 45 l 2
 204 32 217 18 230 18 c 2
 274 18 l 1
 274 0 l 1
 28 0 l 1
 28 18 l 1
 73 18 l 2
 87 18 98 32 98 45 c 2
 98 376 l 1
 44 391 l 1
 44 407 l 1
 204 474 l 1
 204 403 l 1
 236 435 291 469 346 472 c 0
 401 476 518 463 518 397 c 2
 518 -35 l 2
EndSplineSet
EndChar

StartChar: Ohungarumlaut
Encoding: 336 336 272
Width: 813
Flags: W
LayerCount: 2
Back
Fore
SplineSet
399 -21 m 0
 -90 -21 -91 671 399 671 c 0
 885 671 885 -21 399 -21 c 0
399 0 m 0
 719 0 717 650 399 650 c 0
 82 650 84 0 399 0 c 0
408 787 m 1
 339 787 l 1
 276 707 l 1
 314 707 l 1
 408 787 l 1
551 788 m 1
 482 788 l 1
 419 708 l 1
 457 708 l 1
 551 788 l 1
EndSplineSet
EndChar

StartChar: ohungarumlaut
Encoding: 337 337 273
Width: 576
Flags: W
LayerCount: 2
Back
Fore
SplineSet
285 -9 m 0
 -49 -9 -47 472 285 472 c 0
 625 472 625 -9 285 -9 c 0
285 6 m 0
 460 6 460 455 285 455 c 0
 109 455 109 6 285 6 c 0
318 643 m 1
 224 643 l 1
 139 534 l 1
 190 534 l 1
 318 643 l 1
470 643 m 1
 376 643 l 1
 291 534 l 1
 342 534 l 1
 470 643 l 1
EndSplineSet
EndChar

StartChar: OE
Encoding: 338 338 274
Width: 1053
Flags: MW
HStem: -2 21<227.5 423> 348 32<655 753> 627 34<678 691 691 819>
VStem: 24 121 552 103<91 348 380 568 568 568> 851 26<230 248 248 273 470 488>
LayerCount: 2
Back
Fore
SplineSet
1022 196 m 1
 969 0 l 1
 798 0 581 -2 413 -2 c 0
 -106 -2 -105 661 413 661 c 2
 978 661 l 1
 1022 461 l 1
 998 461 l 1
 984 491 l 2
 948 569 913 627 819 627 c 2
 691 627 l 2
 665 627 655 600 655 577 c 2
 655 380 l 1
 753 380 l 2
 801 380 851 421 851 470 c 2
 851 488 l 1
 877 488 l 1
 877 230 l 1
 851 230 l 1
 851 248 l 2
 851 298 803 348 753 348 c 2
 655 348 l 1
 655 255 655 76 655 76 c 1
 656 56 671 34 693 34 c 2
 819 34 l 2
 909 34 950 89 984 165 c 2
 998 196 l 1
 1022 196 l 1
552 91 m 1
 552 568 l 1
 520 610 470 642 416 642 c 0
 70 642 42 19 413 19 c 0
 433 19 453 24 470 28 c 1
 503 40 530 62 552 91 c 1
EndSplineSet
EndChar

StartChar: oe
Encoding: 339 339 275
Width: 896
Flags: MW
HStem: -9 15<189 315> 290 28<532 782> 456 16<626.5 696>
VStem: 32 113 408 117
LayerCount: 2
Back
Fore
SplineSet
868 290 m 1
 527 290 l 1
 526 276 525 261 525 246 c 0
 526 149 606 110 678 109 c 0
 754 108 824 140 859 207 c 1
 859 94 l 1
 826 27 738 -9 664 -9 c 0
 590 -9 526 -8 472 52 c 1
 406 -14 353 -9 277 -9 c 0
 -51 -9 -48 472 277 472 c 0
 356 472 409 470 468 399 c 1
 526 461 582 472 663 472 c 0
 747 472 880 393 868 290 c 1
782 318 m 1
 782 374 729 456 663 456 c 0
 590 456 548 392 532 318 c 1
 782 318 l 1
277 6 m 0
 452 6 452 455 277 455 c 0
 101 455 101 6 277 6 c 0
EndSplineSet
EndChar

StartChar: Racute
Encoding: 340 340 276
Width: 754
Flags: W
LayerCount: 2
Back
Fore
SplineSet
701 0 m 1
 587 0 l 2
 544 0 522 22 502 57 c 2
 326 363 l 1
 219 363 l 1
 219 67 l 2
 219 48 235 30 254 30 c 2
 306 30 l 1
 306 0 l 1
 26 0 l 1
 26 30 l 1
 79 30 l 2
 97 30 114 50 114 67 c 2
 114 593 l 2
 114 611 98 631 79 631 c 2
 26 631 l 1
 26 661 l 1
 369 661 l 2
 444 661 559 636 566 537 c 0
 574 427 512 374 434 365 c 1
 607 72 l 2
 626 40 651 24 688 24 c 2
 701 24 l 1
 701 0 l 1
455 535 m 0
 455 598 395 625 334 625 c 2
 219 625 l 1
 219 396 l 1
 333 396 l 2
 415 396 456 435 455 535 c 0
336 784 m 1
 242 704 l 1
 204 704 l 1
 267 784 l 1
 336 784 l 1
EndSplineSet
EndChar

StartChar: racute
Encoding: 341 341 277
Width: 458
Flags: W
LayerCount: 2
Back
Fore
SplineSet
411 445 m 0
 413 421 399 373 335 381 c 0
 313 384 300 395 285 414 c 0
 281 419 285 422 286 426 c 1
 253 419 220 397 198 371 c 1
 198 51 l 2
 198 39 210 24 223 24 c 2
 268 24 l 1
 268 0 l 1
 22 0 l 1
 22 24 l 1
 67 24 l 2
 80 24 92 38 92 51 c 2
 92 384 l 1
 52 400 l 1
 52 412 l 1
 198 469 l 1
 198 402 l 1
 223 429 308 470 341 475 c 0
 370 480 407 487 411 445 c 0
279 662 m 1
 185 582 l 1
 148 582 l 1
 210 662 l 1
 279 662 l 1
EndSplineSet
EndChar

StartChar: Sacute
Encoding: 346 346 282
Width: 573
Flags: W
LayerCount: 2
Back
Fore
SplineSet
518 174 m 0
 518 97 437 -10 291 -10 c 0
 209 -10 175 35 120 40 c 0
 109 41 79 7 72 -2 c 1
 55 -2 l 1
 44 215 l 1
 64 215 l 1
 93 107 199 16 313 16 c 0
 385 16 415 51 415 131 c 0
 415 325 36 289 35 490 c 0
 34 594 154 674 259 674 c 0
 367 674 374 628 423 633 c 0
 437 634 463 664 471 676 c 1
 488 676 l 1
 502 452 l 1
 482 452 l 1
 456 548 384 651 275 651 c 0
 203 651 145 597 146 525 c 0
 148 372 518 381 518 174 c 0
317 787 m 1
 223 707 l 1
 186 707 l 1
 248 787 l 1
 317 787 l 1
EndSplineSet
EndChar

StartChar: sacute
Encoding: 347 347 283
Width: 370
Flags: W
LayerCount: 2
Back
Fore
SplineSet
350 119 m 0
 350 43 257 -2 183 -9 c 0
 139 -13 84 9 43 26 c 1
 43 136 l 1
 54 142 l 1
 62 80 121 3 190 15 c 0
 237 23 274 52 273 100 c 0
 272 174 36 159 34 347 c 0
 33 420 127 467 204 472 c 0
 245 475 296 457 334 440 c 1
 334 330 l 1
 324 324 l 1
 314 380 275 446 211 446 c 0
 164 446 116 429 113 383 c 0
 107 294 350 310 350 119 c 0
278 622 m 1
 184 542 l 1
 146 542 l 1
 209 622 l 1
 278 622 l 1
EndSplineSet
EndChar

StartChar: Scircumflex
Encoding: 348 348 284
Width: 573
Flags: W
LayerCount: 2
Back
Fore
SplineSet
518 174 m 0
 518 97 437 -10 291 -10 c 0
 209 -10 175 35 120 40 c 0
 109 41 79 7 72 -2 c 1
 55 -2 l 1
 44 215 l 1
 64 215 l 1
 93 107 199 16 313 16 c 0
 385 16 415 51 415 131 c 0
 415 325 36 289 35 490 c 0
 34 594 154 674 259 674 c 0
 367 674 374 628 423 633 c 0
 437 634 463 664 471 676 c 1
 488 676 l 1
 502 452 l 1
 482 452 l 1
 456 548 384 651 275 651 c 0
 203 651 145 597 146 525 c 0
 148 372 518 381 518 174 c 0
336 678 m 1
 316 678 l 1
 249 745 l 1
 243 745 l 1
 176 678 l 1
 154 678 l 1
 238 786 l 1
 253 786 l 1
 336 678 l 1
EndSplineSet
EndChar

StartChar: scircumflex
Encoding: 349 349 285
Width: 370
Flags: W
LayerCount: 2
Back
Fore
SplineSet
350 119 m 0
 350 43 257 -2 183 -9 c 0
 139 -13 84 9 43 26 c 1
 43 136 l 1
 54 142 l 1
 62 80 121 3 190 15 c 0
 237 23 274 52 273 100 c 0
 272 174 36 159 34 347 c 0
 33 420 127 467 204 472 c 0
 245 475 296 457 334 440 c 1
 334 330 l 1
 324 324 l 1
 314 380 275 446 211 446 c 0
 164 446 116 429 113 383 c 0
 107 294 350 310 350 119 c 0
294 523 m 1
 273 523 l 1
 200 595 l 1
 193 595 l 1
 120 523 l 1
 96 523 l 1
 188 640 l 1
 203 640 l 1
 294 523 l 1
EndSplineSet
EndChar

StartChar: Tbar
Encoding: 358 358 294
Width: 782
Flags: MW
HStem: 0 30<251 304 304 313 479 532> 419 43<272 339 444 510> 624 37<216 261 261 302 468.5 481 481 561>
VStem: 339 105<67 419 462 574>
LayerCount: 2
Back
Fore
SplineSet
760 490 m 1
 740 489 l 1
 719 571 642 624 561 624 c 2
 481 624 l 2
 456 624 444 595 444 574 c 2
 444 462 l 1
 510 462 l 1
 510 419 l 1
 444 419 l 1
 444 67 l 2
 444 48 460 30 479 30 c 2
 532 30 l 1
 532 0 l 1
 251 0 l 1
 251 30 l 1
 304 30 l 2
 322 30 339 50 339 67 c 2
 339 419 l 1
 272 419 l 1
 272 462 l 1
 339 462 l 1
 339 574 l 2
 339 597 328 624 302 624 c 2
 261 624 l 2
 171 624 88 585 69 489 c 1
 47 490 l 1
 105 661 l 1
 703 661 l 1
 760 490 l 1
EndSplineSet
EndChar

StartChar: tbar
Encoding: 359 359 295
Width: 333
Flags: MW
HStem: -9 45 280 45<21 84 190 265> 409 51<190 255>
VStem: 84 106<73 280 325 409>
LayerCount: 2
Back
Fore
SplineSet
273 58 m 1
 275 36 249 -8 193 -9 c 0
 148 -9 84 35 84 73 c 2
 84 280 l 1
 21 280 l 1
 21 325 l 1
 84 325 l 1
 84 409 l 1
 28 409 l 1
 28 439 l 1
 166 560 l 1
 190 546 l 1
 190 460 l 1
 271 460 l 1
 255 409 l 1
 190 409 l 1
 190 325 l 1
 265 325 l 1
 265 280 l 1
 190 280 l 1
 190 65 l 2
 190 48 211 35 228 36 c 0
 248 38 272 66 271 83 c 1
 273 58 l 1
EndSplineSet
EndChar

StartChar: Utilde
Encoding: 360 360 296
Width: 717
Flags: W
LayerCount: 2
Back
Fore
SplineSet
714 631 m 1
 661 631 l 2
 642 631 626 613 626 594 c 2
 626 220 l 2
 626 104 498 -15 386 -14 c 0
 240 -12 128 20 128 181 c 2
 128 594 l 2
 128 611 111 631 93 631 c 2
 40 631 l 1
 40 661 l 1
 321 661 l 1
 321 631 l 1
 268 631 l 2
 249 631 233 613 233 594 c 2
 233 132 l 2
 233 54 300 11 383 11 c 0
 481 11 576 107 576 209 c 2
 576 594 l 2
 576 612 559 631 540 631 c 2
 488 631 l 1
 488 661 l 1
 714 661 l 1
 714 631 l 1
480 777 m 1
 482 745 461 707 429 708 c 0
 392 708 386 739 363 739 c 0
 339 738 325 728 312 708 c 1
 299 708 l 1
 300 745 333 779 366 780 c 0
 391 781 410 749 427 750 c 0
 449 752 459 760 472 777 c 1
 480 777 l 1
EndSplineSet
EndChar

StartChar: utilde
Encoding: 361 361 297
Width: 626
Flags: W
LayerCount: 2
Back
Fore
SplineSet
577 61 m 1
 413 -9 l 1
 413 65 l 1
 383 28 328 -9 261 -9 c 0
 207 -9 85 -20 85 119 c 2
 85 412 l 2
 85 424 73 439 60 439 c 2
 15 439 l 1
 15 463 l 1
 191 463 l 1
 191 114 l 2
 191 56 230 27 276 30 c 0
 331 33 385 70 413 102 c 1
 413 412 l 2
 413 424 401 439 388 439 c 2
 343 439 l 1
 343 463 l 1
 519 463 l 1
 519 100 l 1
 577 84 l 1
 577 61 l 1
358 608 m 1
 360 582 343 551 317 551 c 0
 286 552 282 577 263 577 c 0
 243 577 232 568 221 551 c 1
 210 551 l 1
 211 582 238 610 265 611 c 0
 285 612 301 585 315 586 c 0
 333 588 342 594 352 608 c 1
 358 608 l 1
EndSplineSet
EndChar

StartChar: Uring
Encoding: 366 366 302
Width: 717
Flags: W
LayerCount: 2
Back
Fore
SplineSet
714 631 m 1
 661 631 l 2
 642 631 626 613 626 594 c 2
 626 220 l 2
 626 104 498 -15 386 -14 c 0
 240 -12 128 20 128 181 c 2
 128 594 l 2
 128 611 111 631 93 631 c 2
 40 631 l 1
 40 661 l 1
 321 661 l 1
 321 631 l 1
 268 631 l 2
 249 631 233 613 233 594 c 2
 233 132 l 2
 233 54 300 11 383 11 c 0
 481 11 576 107 576 209 c 2
 576 594 l 2
 576 612 559 631 540 631 c 2
 488 631 l 1
 488 661 l 1
 714 661 l 1
 714 631 l 1
408 790 m 0
 494 789 493 663 406 660 c 0
 320 658 323 791 408 790 c 0
408 762 m 0
 361 763 360 692 407 692 c 0
 455 691 455 762 408 762 c 0
EndSplineSet
EndChar

StartChar: Uhungarumlaut
Encoding: 368 368 304
Width: 717
Flags: W
LayerCount: 2
Back
Fore
SplineSet
714 631 m 1
 661 631 l 2
 642 631 626 613 626 594 c 2
 626 220 l 2
 626 104 498 -15 386 -14 c 0
 240 -12 128 20 128 181 c 2
 128 594 l 2
 128 611 111 631 93 631 c 2
 40 631 l 1
 40 661 l 1
 321 661 l 1
 321 631 l 1
 268 631 l 2
 249 631 233 613 233 594 c 2
 233 132 l 2
 233 54 300 11 383 11 c 0
 481 11 576 107 576 209 c 2
 576 594 l 2
 576 612 559 631 540 631 c 2
 488 631 l 1
 488 661 l 1
 714 661 l 1
 714 631 l 1
408 784 m 1
 339 784 l 1
 277 704 l 1
 314 704 l 1
 408 784 l 1
527 784 m 1
 458 784 l 1
 395 704 l 1
 433 704 l 1
 527 784 l 1
EndSplineSet
EndChar

StartChar: uhungarumlaut
Encoding: 369 369 305
Width: 626
Flags: W
LayerCount: 2
Back
Fore
SplineSet
577 61 m 1
 413 -9 l 1
 413 65 l 1
 383 28 328 -9 261 -9 c 0
 207 -9 85 -20 85 119 c 2
 85 412 l 2
 85 424 73 439 60 439 c 2
 15 439 l 1
 15 463 l 1
 191 463 l 1
 191 114 l 2
 191 56 230 27 276 30 c 0
 331 33 385 70 413 102 c 1
 413 412 l 2
 413 424 401 439 388 439 c 2
 343 439 l 1
 343 463 l 1
 519 463 l 1
 519 100 l 1
 577 84 l 1
 577 61 l 1
320 666 m 1
 226 666 l 1
 141 557 l 1
 192 557 l 1
 320 666 l 1
464 666 m 1
 370 666 l 1
 285 557 l 1
 336 557 l 1
 464 666 l 1
EndSplineSet
EndChar

StartChar: Wcircumflex
Encoding: 372 372 308
Width: 1022
Flags: W
LayerCount: 2
Back
Fore
SplineSet
1095 630 m 1
 1076 630 l 2
 1015 630 980 564 961 513 c 2
 771 0 l 1
 692 0 l 1
 692 0 547 411 546 411 c 1
 401 0 l 1
 321 0 l 1
 109 583 l 1
 100 609 83 630 54 630 c 2
 41 630 l 1
 41 661 l 1
 282 661 l 1
 282 630 l 1
 237 630 l 2
 208 630 215 599 221 581 c 1
 403 79 l 1
 532 439 l 1
 480 583 l 2
 471 609 452 630 424 630 c 2
 411 630 l 1
 411 661 l 1
 649 661 l 1
 649 630 l 1
 611 630 l 2
 583 630 580 602 588 581 c 2
 775 82 l 1
 930 500 l 1
 945 539 957 630 892 630 c 2
 867 630 l 1
 867 661 l 1
 1095 661 l 1
 1095 630 l 1
598 682 m 1
 579 682 l 1
 513 747 l 1
 507 747 l 1
 442 682 l 1
 420 682 l 1
 502 788 l 1
 517 788 l 1
 598 682 l 1
EndSplineSet
EndChar

StartChar: wcircumflex
Encoding: 373 373 309
Width: 722
Flags: W
LayerCount: 2
Back
Fore
SplineSet
748 439 m 1
 721 439 l 2
 694 439 667 412 658 388 c 2
 517 0 l 1
 443 6 l 1
 443 6 371 250 371 249 c 1
 271 0 l 1
 194 6 l 1
 61 415 l 2
 57 427 44 439 30 439 c 2
 5 439 l 1
 5 463 l 1
 214 463 l 1
 214 439 l 1
 185 439 l 2
 169 439 162 423 167 409 c 1
 270 87 l 1
 353 288 l 1
 311 415 l 2
 308 425 290 439 279 439 c 2
 254 439 l 1
 254 463 l 1
 454 463 l 1
 454 439 l 1
 427 439 l 2
 411 439 404 423 409 409 c 2
 520 78 l 1
 618 354 l 1
 628 381 639 439 591 439 c 2
 568 439 l 1
 568 463 l 1
 748 463 l 1
 748 439 l 1
464 539 m 1
 441 539 l 1
 361 617 l 1
 354 617 l 1
 275 539 l 1
 249 539 l 1
 348 667 l 1
 365 667 l 1
 464 539 l 1
EndSplineSet
EndChar

StartChar: Ycircumflex
Encoding: 374 374 310
Width: 630
Flags: W
LayerCount: 2
Back
Fore
SplineSet
675 630 m 1
 640 630 l 2
 600 630 538 551 516 522 c 2
 377 335 l 1
 377 67 l 2
 377 49 392 30 411 30 c 2
 464 30 l 1
 464 0 l 1
 183 0 l 1
 183 30 l 1
 236 30 l 2
 254 30 272 49 272 67 c 2
 272 334 l 1
 123 585 l 2
 110 607 83 633 56 633 c 2
 48 633 l 1
 48 661 l 1
 288 661 l 1
 288 630 l 1
 259 630 l 2
 224 630 216 612 234 581 c 2
 366 357 l 1
 469 501 l 2
 487 526 555 630 477 630 c 2
 451 630 l 1
 451 661 l 1
 675 661 l 1
 675 630 l 1
440 682 m 1
 422 682 l 1
 359 744 l 1
 353 744 l 1
 291 682 l 1
 271 682 l 1
 349 783 l 1
 363 783 l 1
 440 682 l 1
EndSplineSet
EndChar

StartChar: ycircumflex
Encoding: 375 375 311
Width: 464
Flags: W
LayerCount: 2
Back
Fore
SplineSet
495 439 m 1
 476 439 l 2
 451 439 423 404 413 384 c 2
 215 -25 l 2
 204 -48 147 -100 110 -97 c 0
 14 -88 3 11 80 11 c 0
 130 11 131 -37 114 -57 c 0
 109 -63 106 -65 99 -68 c 1
 140 -68 168 -46 192 -10 c 2
 194 -7 l 1
 190 -5 l 1
 63 415 l 1
 60 426 43 439 31 439 c 2
 6 439 l 1
 6 463 l 1
 215 463 l 1
 215 439 l 1
 187 439 l 2
 170 439 165 423 169 409 c 1
 259 122 l 1
 369 354 l 2
 382 381 385 439 342 439 c 2
 319 439 l 1
 319 463 l 1
 495 463 l 1
 495 439 l 1
365 521 m 1
 343 521 l 1
 268 595 l 1
 261 595 l 1
 187 521 l 1
 163 521 l 1
 256 642 l 1
 272 642 l 1
 365 521 l 1
EndSplineSet
EndChar

StartChar: Zacute
Encoding: 377 377 313
Width: 640
Flags: W
LayerCount: 2
Back
Fore
SplineSet
594 206 m 1
 535 0 l 1
 49 0 l 1
 49 21 l 1
 448 630 l 1
 278 630 l 2
 211 630 126 584 107 515 c 2
 94 469 l 1
 67 469 l 1
 112 661 l 1
 571 661 l 1
 571 639 l 1
 180 31 l 1
 364 31 l 2
 441 31 515 88 547 157 c 2
 569 204 l 1
 594 206 l 1
408 784 m 1
 314 704 l 1
 277 704 l 1
 339 784 l 1
 408 784 l 1
EndSplineSet
EndChar

StartChar: zacute
Encoding: 378 378 314
Width: 479
Flags: W
LayerCount: 2
Back
Fore
SplineSet
414 463 m 1
 141 24 l 1
 253 24 l 2
 311 24 360 81 378 132 c 1
 399 125 l 1
 361 -2 l 1
 12 -2 l 1
 282 439 l 1
 161 439 l 2
 105 439 72 369 66 321 c 1
 44 331 l 1
 67 463 l 1
 414 463 l 1
311 623 m 1
 217 543 l 1
 180 543 l 1
 242 623 l 1
 311 623 l 1
EndSplineSet
EndChar

StartChar: longs
Encoding: 383 383 319
Width: 264
Flags: MW
HStem: 0 24<13 57 57 63.5 214 259> 412 27<38 83> 575 94
VStem: 83 106<51 412 412 412 439 570 570 597> 227 78<598.824 648.673>
LayerCount: 2
Back
Fore
SplineSet
305 615 m 0
 307 559 227 560 227 628 c 0
 227 636 229 642 233 649 c 1
 211 658 189 644 189 619 c 2
 189 51 l 2
 189 38 200 24 214 24 c 2
 259 24 l 1
 259 0 l 1
 13 0 l 1
 13 24 l 1
 57 24 l 2
 70 24 83 38 83 51 c 2
 83 412 l 1
 38 412 l 1
 38 439 l 1
 83 439 l 1
 83 570 l 2
 83 624 179 669 233 669 c 0
 272 669 304 647 305 615 c 0
EndSplineSet
EndChar

StartChar: uni0180
Encoding: 384 384 320
Width: 571
Flags: MW
HStem: -9 17<297 297> 507 31<14 70 176 226>
VStem: 70 106<120 322 428 507 538 592 592 592> 423 120<154.25 344.589>
LayerCount: 2
Back
Fore
SplineSet
543 243 m 0
 546 109 397 -7 297 -9 c 0
 248 -10 176 3 143 32 c 0
 144 32 70 -9 70 -9 c 1
 70 507 l 1
 14 507 l 1
 14 538 l 1
 70 538 l 1
 70 592 l 1
 25 601 l 1
 25 619 l 1
 176 683 l 1
 176 538 l 1
 226 538 l 1
 226 507 l 1
 176 507 l 1
 176 428 l 1
 207 456 248 470 297 472 c 0
 419 476 540 411 543 243 c 0
423 239 m 0
 423 399 322 459 289 454 c 0
 199 441 176 386 176 322 c 2
 176 120 l 1
 185 58 215 6 297 8 c 0
 376 10 423 123 423 239 c 0
EndSplineSet
EndChar

StartChar: uni0181
Encoding: 385 385 321
Width: 629
Flags: MW
HStem: 0 34<252 324 324 370.5> 357 35<215 327 327 359> 627 34<239 252 252 360>
VStem: -46 83 110 105<72 84 84 357 392 577> 482 102<131.397 287.987>
LayerCount: 2
Back
Fore
SplineSet
584 220 m 0
 587 103 497 0 381 0 c 2
 22 0 l 1
 22 28 l 1
 75 28 l 2
 93 28 110 48 110 65 c 2
 110 601 l 2
 110 619 93 638 75 638 c 2
 17 638 l 2
 -5 638 -24 631 -20 607 c 1
 -13 609 -6 609 1 608 c 0
 61 593 35 520 -3 531 c 0
 -34 539 -53 574 -44 612 c 0
 -32 659 22 661 22 661 c 1
 415 661 l 2
 502 661 560 630 560 535 c 0
 560 462 527 412 476 382 c 1
 546 357 582 300 584 220 c 0
462 535 m 0
 462 593 416 627 360 627 c 2
 252 627 l 2
 226 627 215 599 215 577 c 2
 215 392 l 1
 327 392 l 2
 405 392 462 456 462 535 c 0
482 206 m 0
 482 279 431 357 359 357 c 2
 215 357 l 1
 215 84 l 2
 215 60 223 34 252 34 c 2
 324 34 l 2
 417 34 482 135 482 206 c 0
EndSplineSet
EndChar

StartChar: uni0182
Encoding: 386 386 322
Width: 629
Flags: W
LayerCount: 2
Back
Fore
SplineSet
596 470 m 1
 581 470 l 1
 558 550 479 622 393 622 c 2
 271 622 l 2
 245 622 233 550 233 572 c 0
 233 791 233 358 233 358 c 1
 352 358 l 2
 444 358 583 282 574 158 c 0
 564 24 414 0 306 0 c 2
 41 0 l 1
 41 28 l 1
 94 28 l 2
 112 28 129 48 129 65 c 0
 129 587 129 581 129 581 c 2
 129 604 121 633 93 633 c 2
 40 633 l 1
 40 661 l 1
 545 661 l 1
 596 470 l 1
463 160 m 0
 464 260 414 333 332 333 c 2
 233 333 l 1
 233 38 l 1
 333 38 l 2
 394 38 463 97 463 160 c 0
EndSplineSet
EndChar

StartChar: uni0183
Encoding: 387 387 323
Width: 543
Flags: MW
HStem: 0 38<125 225 225 248> 329 33<125 224> 622 39<150 163 163 285>
VStem: 21 104<38 329 362 572> 355 111
LayerCount: 2
Back
Fore
SplineSet
492 470 m 1
 473 470 l 1
 450 550 371 622 285 622 c 2
 163 622 l 2
 137 622 125 595 125 572 c 0
 125 354 125 362 125 362 c 1
 294 362 l 2
 386 362 475 282 466 158 c 0
 456 24 356 0 248 0 c 2
 21 0 l 1
 21 661 21 661 21 661 c 1
 441 661 l 1
 492 470 l 1
355 160 m 0
 356 260 306 329 224 329 c 2
 125 329 l 1
 125 38 l 1
 225 38 l 2
 286 38 355 97 355 160 c 0
EndSplineSet
EndChar

StartChar: uni0184
Encoding: 388 388 324
Width: 581
Flags: MW
HStem: -9 21<70 70>
VStem: 70 106<120 318 428 522 522 537> 423 120<145.011 350.219>
LayerCount: 2
Back
Fore
SplineSet
543 243 m 0
 546 109 421 -7 321 -9 c 0
 272 -10 176 3 143 32 c 0
 144 32 70 -9 70 -9 c 1
 70 522 l 2
 70 552 1 586 -28 597 c 1
 4 609 176 683 176 683 c 1
 176 428 l 1
 207 456 272 470 321 472 c 0
 443 476 540 411 543 243 c 0
423 239 m 0
 423 399 322 455 289 450 c 0
 199 437 176 382 176 318 c 2
 176 120 l 1
 185 58 215 10 297 12 c 0
 376 14 423 123 423 239 c 0
EndSplineSet
EndChar

StartChar: uni0185
Encoding: 389 389 325
Width: 583
Flags: MW
HStem: -9 21<297 297>
VStem: 70 106<120 318 428 594 594 594> 423 120<152.984 344.589>
LayerCount: 2
Back
Fore
SplineSet
543 243 m 0
 546 109 397 -7 297 -9 c 0
 215 -11 129 18 70 64 c 1
 70 594 l 1
 25 603 l 1
 25 619 l 1
 176 683 l 1
 176 428 l 1
 207 456 248 470 297 472 c 0
 419 476 540 411 543 243 c 0
423 239 m 0
 423 399 322 455 289 450 c 0
 199 437 176 382 176 318 c 2
 176 120 l 1
 185 58 215 10 297 12 c 0
 376 14 423 123 423 239 c 0
EndSplineSet
EndChar

StartChar: uni0186
Encoding: 390 390 326
Width: 618
Flags: W
LayerCount: 2
Back
Fore
SplineSet
17 448 m 1
 62 677 l 1
 88 677 l 1
 86 659 101 640 120 640 c 0
 175 641 216 676 277 678 c 0
 518 688 589 526 589 353 c 0
 589 189 496 -5 266 -3 c 0
 164 -2 148 52 118 47 c 0
 96 44 81 20 70 3 c 1
 46 3 l 1
 35 230 l 1
 61 230 l 1
 86 136 160 11 269 11 c 0
 394 11 473 182 475 340 c 0
 477 484 425 659 290 659 c 0
 218 659 128 611 77 533 c 0
 57 502 47 483 37 448 c 1
 17 448 l 1
EndSplineSet
EndChar

StartChar: uni0187
Encoding: 391 391 327
Width: 652
Flags: MW
HStem: -2 23<274.89 390.354> 624 86
VStem: 30 112<205.792 438.812> 600 72<646.949 693.673>
LayerCount: 2
Back
Fore
SplineSet
672 660 m 0
 674 604 600 619 600 673 c 0
 600 681 602 687 606 694 c 1
 584 703 562 684 563 665 c 2
 574 446 l 1
 556 446 l 1
 552 461 549 470 543 484 c 0
 502 580 445 661 348 661 c 0
 223 661 144 494 142 336 c 0
 140 192 192 21 327 21 c 0
 399 21 489 65 540 143 c 0
 560 174 570 193 580 228 c 1
 598 228 l 1
 555 9 l 1
 531 9 l 1
 533 28 518 46 499 46 c 0
 444 45 401 0 340 -2 c 0
 124 -11 30 184 30 323 c 0
 30 465 143 681 351 679 c 0
 453 678 469 617 499 621 c 0
 510 623 516 629 524 636 c 0
 535 645 539 653 547 665 c 1
 547 665 552 710 606 710 c 0
 645 710 671 692 672 660 c 0
EndSplineSet
EndChar

StartChar: uni0188
Encoding: 392 392 328
Width: 515
Flags: MW
HStem: -9 62<242.775 367.57> 450 22<311 311>
VStem: 52 119<134.354 323> 348 93 473 72<405.007 456.439>
LayerCount: 2
Back
Fore
SplineSet
545 422 m 0
 546 372 473 369 473 435 c 0
 473 443 476 451 480 458 c 1
 475 460 456 459 450 459 c 0
 437 459 416 444 407 434 c 1
 453 387 452 309 402 306 c 0
 339 302 344 359 353 398 c 0
 356 411 362 418 370 428 c 1
 349 449 340 449 311 450 c 0
 223 453 174 361 171 276 c 0
 167 169 196 58 305 53 c 0
 373 50 419 102 449 157 c 1
 449 106 l 1
 422 45 364 -9 294 -9 c 0
 128 -9 53 108 52 226 c 0
 50 352 164 472 311 472 c 0
 349 472 376 461 398 443 c 1
 408 456 428 474 462 474 c 0
 501 474 544 454 545 422 c 0
EndSplineSet
EndChar

StartChar: uni0189
Encoding: 393 393 329
Width: 792
Flags: W
LayerCount: 2
Back
Fore
SplineSet
719 347 m 0
 722 194 575 0 356 0 c 2
 23 0 l 1
 23 30 l 1
 76 30 l 2
 94 30 111 50 111 67 c 2
 111 296 l 1
 30 296 l 1
 30 343 l 1
 111 343 l 1
 111 594 l 2
 111 611 94 631 76 631 c 2
 23 631 l 1
 23 661 l 1
 456 661 l 2
 659 661 717 446 719 347 c 0
607 359 m 0
 598 493 530 625 396 625 c 2
 253 625 l 2
 228 625 216 596 216 575 c 2
 216 343 l 1
 289 343 l 1
 289 296 l 1
 216 296 l 1
 216 86 l 2
 216 65 228 36 253 36 c 2
 347 36 l 2
 510 36 617 196 607 359 c 0
EndSplineSet
EndChar

StartChar: uni018A
Encoding: 394 394 330
Width: 792
Flags: MW
HStem: 0 28<23 76 76 85> 627 34<240.5 253 253 396>
VStem: -44 81 111 105<73.5 84 84 577> 607 112
LayerCount: 2
Back
Fore
SplineSet
719 347 m 0
 720 172 575 0 379 0 c 2
 23 0 l 1
 23 28 l 1
 76 28 l 2
 94 28 111 48 111 65 c 2
 111 601 l 2
 111 619 94 638 76 638 c 2
 18 638 l 2
 -4 638 -23 631 -19 607 c 1
 -12 609 -5 609 2 608 c 0
 51 595 49 516 -2 531 c 0
 -33 539 -50 574 -41 612 c 0
 -29 659 23 661 23 661 c 1
 479 661 l 2
 659 661 718 484 719 347 c 0
607 359 m 0
 598 493 530 627 396 627 c 2
 253 627 l 2
 228 627 216 598 216 577 c 2
 216 84 l 2
 216 63 228 34 253 34 c 2
 347 34 l 2
 510 34 617 196 607 359 c 0
EndSplineSet
EndChar

StartChar: uni018B
Encoding: 395 395 331
Width: 615
Flags: W
LayerCount: 2
Back
Fore
SplineSet
22 470 m 1
 37 470 l 1
 60 550 139 622 225 622 c 2
 347 622 l 2
 373 622 385 550 385 572 c 0
 385 791 385 358 385 358 c 1
 266 358 l 2
 174 358 35 282 44 158 c 0
 53 24 203 0 312 0 c 2
 577 0 l 1
 577 28 l 1
 524 28 l 2
 506 28 489 48 489 65 c 0
 489 587 489 581 489 581 c 2
 489 604 496 633 525 633 c 2
 578 633 l 1
 578 661 l 1
 73 661 l 1
 22 470 l 1
155 160 m 0
 154 260 204 333 286 333 c 2
 385 333 l 1
 385 38 l 1
 285 38 l 2
 224 38 155 97 155 160 c 0
EndSplineSet
EndChar

StartChar: uni018C
Encoding: 396 396 332
Width: 552
Flags: MW
HStem: -9 21<394 394> 450 22<276 276> 633 28<230.562 388.418>
VStem: 29 121<138.454 317.285> 394 106<121 298 298 361.5 432 597 597 605>
LayerCount: 2
Back
Fore
SplineSet
523 45 m 1
 394 -9 l 1
 394 21 l 1
 361 1 318 -8 276 -9 c 0
 155 -13 33 89 29 228 c 0
 26 350 153 471 276 472 c 0
 323 473 363 459 394 432 c 1
 394 597 l 2
 394 613 386 632 367 632 c 2
 282 632 l 2
 222 632 166 583 150 527 c 1
 136 527 l 1
 172 661 l 1
 500 661 l 1
 500 80 l 1
 523 70 l 1
 523 45 l 1
394 121 m 1
 394 298 l 2
 394 425 373 450 276 450 c 0
 178 449 152 336 150 239 c 0
 147 135 175 3 278 12 c 0
 354 18 384 45 394 121 c 1
EndSplineSet
EndChar

StartChar: uni018D
Encoding: 397 397 333
Width: 566
Flags: MW
HStem: -137 20<179 205> -9 15<259 259 283 283> 455 17<183 358.5>
VStem: 22 117 259 24<-66 -9> 402 121
LayerCount: 2
Back
Fore
SplineSet
283 -9 m 1
 283 -67 l 2
 283 -101 236 -137 190 -137 c 0
 163 -137 121 -124 109 -77 c 0
 99 -39 117 -6 147 2 c 0
 186 13 201 -60 152 -73 c 0
 144 -74 140 -74 132 -72 c 1
 128 -104 166 -117 192 -117 c 0
 218 -117 259 -102 259 -66 c 2
 259 -9 l 1
 -64 8 -53 472 271 472 c 0
 603 472 607 7 283 -9 c 1
271 6 m 0
 446 6 446 455 271 455 c 0
 95 455 95 6 271 6 c 0
EndSplineSet
EndChar

StartChar: uni018E
Encoding: 398 398 334
Width: 655
Flags: W
LayerCount: 2
Back
Fore
SplineSet
32 465 m 1
 84 661 l 1
 596 661 l 1
 596 631 l 1
 543 631 l 2
 525 631 508 611 508 594 c 2
 508 67 l 2
 508 50 525 30 543 30 c 2
 596 30 l 1
 596 0 l 1
 76 0 l 1
 32 200 l 1
 58 200 l 1
 71 170 l 2
 103 95 150 36 237 36 c 2
 365 36 l 2
 391 36 403 63 403 86 c 2
 403 281 l 1
 303 281 l 2
 255 281 204 242 204 191 c 2
 204 173 l 1
 180 173 l 1
 180 427 l 1
 204 427 l 1
 204 409 l 2
 204 360 255 313 303 313 c 2
 403 313 l 1
 403 575 l 2
 403 598 391 625 365 625 c 2
 237 625 l 2
 155 625 101 568 71 496 c 2
 58 465 l 1
 32 465 l 1
EndSplineSet
EndChar

StartChar: uni018F
Encoding: 399 399 335
Width: 638
Flags: MW
HStem: -8 25<212.5 313> 220 32<96 468 96 96> 564 116<226 343.5>
VStem: 481 108<304.5 388>
LayerCount: 2
Back
Fore
SplineSet
589 321 m 0
 589 151 441 -8 261 -8 c 0
 125 -8 28 118 28 252 c 1
 471 252 l 1
 473 272 481 294 481 315 c 0
 481 461 407 564 280 564 c 0
 172 564 83 539 34 444 c 1
 34 533 l 1
 81 629 164 680 270 680 c 0
 440 680 589 542 589 321 c 0
468 220 m 1
 96 220 l 1
 96 138 164 17 261 17 c 0
 365 17 446 114 468 220 c 1
EndSplineSet
EndChar

StartChar: uni0190
Encoding: 400 400 336
Width: 555
Flags: MW
HStem: 2 46<256 331> 327 44<307 333> 624 40<247 309>
VStem: 38 115<461 535>
LayerCount: 2
Back
Fore
SplineSet
514 161 m 1
 479 53 387 2 275 2 c 0
 142 2 16 81 16 189 c 0
 16 270 57 328 154 346 c 2
 162 348 l 2
 166 348 169 350 169 352 c 0
 169 353 167 354 163 354 c 2
 155 356 l 2
 72 370 38 423 38 499 c 0
 38 599 139 664 256 664 c 0
 362 664 382 629 413 629 c 0
 427 629 436 641 439 665 c 1
 467 665 l 1
 468 596 474 528 480 460 c 1
 453 460 l 1
 420 576 368 624 285 624 c 0
 209 624 153 573 153 497 c 0
 153 415 211 371 307 371 c 2
 333 371 l 1
 334 327 l 1
 307 327 l 2
 259 327 226 321 201 307 c 0
 164 287 138 242 138 190 c 0
 138 105 208 48 304 48 c 0
 389 48 453 95 482 172 c 1
 514 161 l 1
EndSplineSet
EndChar

StartChar: uni0191
Encoding: 401 401 337
Width: 581
Flags: MW
HStem: -136 93 344 33<217 314> 633 28<24 77>
VStem: -14 86<-119.673 -68.7503> 113 104<-68 -41 -41 344 377 572> 413 22<234 252 252 276.5 470 488>
LayerCount: 2
Back
Fore
SplineSet
545 470 m 1
 526 470 l 1
 519 502 l 2
 503 576 456 623 380 623 c 2
 255 623 l 2
 229 623 217 594 217 572 c 2
 217 377 l 1
 314 377 l 2
 363 377 413 420 413 470 c 2
 413 488 l 1
 435 488 l 1
 435 234 l 1
 413 234 l 1
 413 252 l 2
 413 301 365 344 314 344 c 2
 217 344 l 1
 217 -41 l 2
 217 -95 120 -136 66 -136 c 0
 27 -136 -13 -118 -14 -86 c 0
 -16 -25 72 -29 72 -99 c 0
 72 -107 70 -113 66 -120 c 1
 88 -129 113 -114 113 -90 c 2
 113 596 l 2
 113 614 95 633 77 633 c 2
 24 633 l 1
 24 661 l 1
 524 661 l 1
 545 470 l 1
EndSplineSet
EndChar

StartChar: florin
Encoding: 402 402 338
Width: 272
Flags: MW
HStem: -155 92 412 25<38 83 189 242> 572 93
VStem: -43 88<-138.626 -85.5819> 83 106<-87 -60 -60 412 437 570 570 597> 227 88<594.801 648.626>
LayerCount: 2
Back
Fore
SplineSet
315 615 m 0
 316 562 227 548 227 628 c 0
 227 636 229 642 233 649 c 1
 211 658 189 644 189 619 c 2
 189 437 l 1
 242 437 l 1
 242 412 l 1
 189 412 l 1
 189 -60 l 2
 189 -114 93 -155 39 -155 c 0
 0 -155 -42 -137 -43 -105 c 0
 -44 -53 45 -40 45 -118 c 0
 45 -126 43 -132 39 -139 c 1
 61 -148 83 -134 83 -109 c 2
 83 412 l 1
 38 412 l 1
 38 437 l 1
 83 437 l 1
 83 570 l 2
 83 624 179 665 233 665 c 0
 272 665 314 647 315 615 c 0
EndSplineSet
EndChar

StartChar: uni0193
Encoding: 403 403 339
Width: 714
Flags: MW
HStem: -6 23<294.369 419.423> 339 22<437 468 624.5 636 636 681> 641 23 696 14
VStem: 31 105<208.017 438.735> 501 105<91 295>
LayerCount: 2
Back
Fore
SplineSet
680 660 m 0
 682 604 604 607 604 673 c 0
 604 681 606 687 610 694 c 1
 588 703 566 684 567 665 c 2
 578 446 l 1
 560 446 l 1
 556 461 554 470 547 484 c 0
 500 578 434 649 331 641 c 0
 207 631 135 461 136 324 c 0
 138 180 207 13 360 17 c 0
 420 19 468 42 501 91 c 1
 501 295 l 2
 501 316 494 339 468 339 c 2
 437 339 l 1
 437 361 l 1
 681 361 l 1
 681 339 l 1
 636 339 l 2
 613 339 606 313 606 295 c 2
 606 68 l 1
 553 82 l 1
 506 24 418 -3 344 -6 c 0
 146 -14 30 165 31 332 c 0
 31 496 176 667 336 664 c 0
 386 663 420 655 462 629 c 0
 476 620 473 617 503 621 c 0
 523 624 541 650 551 665 c 1
 551 665 556 710 610 710 c 0
 649 710 679 692 680 660 c 0
EndSplineSet
EndChar

StartChar: uni0194
Encoding: 404 404 340
Width: 704
Flags: MW
HStem: -147 20 632 29<41 54 218.5 233 233 278 447 472 627.5 654 654 666>
VStem: 41 237<632 661> 351 96<-107.144 -54.3077> 447 219<632 661>
LayerCount: 2
Back
Fore
SplineSet
666 632 m 1
 654 632 l 2
 601 632 553 559 537 514 c 2
 393 103 l 1
 444 -40 l 2
 461 -87 404 -147 333 -147 c 0
 294 -147 286 -110 300 -71 c 2
 324 -6 l 1
 109 589 l 1
 100 615 83 632 54 632 c 2
 41 632 l 1
 41 661 l 1
 278 661 l 1
 278 632 l 1
 233 632 l 2
 204 632 211 605 217 587 c 1
 377 144 l 1
 510 506 l 2
 531 563 561 632 472 632 c 2
 447 632 l 1
 447 661 l 1
 666 661 l 1
 666 632 l 1
347 -71 m 1
 338 -40 l 1
 324 -71 l 1
 318 -86 319 -112 330 -113 c 0
 350 -115 356 -100 347 -71 c 1
EndSplineSet
EndChar

StartChar: uni0195
Encoding: 405 405 341
Width: 809
Flags: MW
HStem: -8 20 441 31 645 20<204 204>
VStem: 98 106<49 370 402 563 563 563> 412 106<161 366 366 387.5> 726 45
LayerCount: 2
Back
Fore
SplineSet
753 390 m 0
 797 300 770 -9 590 -8 c 0
 510 -8 412 14 412 161 c 2
 412 366 l 2
 412 409 375 443 332 441 c 0
 283 439 230 400 204 370 c 1
 204 49 l 2
 204 36 215 22 229 22 c 2
 274 22 l 1
 274 0 l 1
 28 0 l 1
 28 22 l 1
 72 22 l 2
 85 22 98 36 98 49 c 2
 98 563 l 1
 43 579 l 1
 43 598 l 1
 204 665 l 1
 204 402 l 1
 235 435 291 469 346 472 c 0
 401 476 518 463 518 397 c 2
 518 161 l 2
 518 96 540 13 606 21 c 0
 694 32 732 208 727 300 c 0
 725 321 723 332 717 355 c 1
 698 354 661 370 650 397 c 0
 638 425 655 456 692 444 c 0
 719 436 738 420 753 390 c 0
EndSplineSet
EndChar

StartChar: uni0196
Encoding: 406 406 342
Width: 262
Flags: MW
HStem: -99 91 641 20<207 207>
VStem: 102 105<0 559 559 559> 247 76<-78.6726 -29.8986>
LayerCount: 2
Back
Fore
SplineSet
323 -45 m 0
 322 -77 292 -99 253 -99 c 0
 199 -99 102 -82 102 0 c 0
 102 21 102 559 102 559 c 1
 49 577 l 1
 49 594 l 1
 207 661 l 1
 207 -49 l 2
 207 -74 231 -88 253 -79 c 1
 249 -72 247 -66 247 -58 c 0
 247 8 324 6 323 -45 c 0
EndSplineSet
EndChar

StartChar: uni0197
Encoding: 407 407 343
Width: 395
Flags: MW
HStem: 0 28<45 98 98 107 273 325> 311 53<50 133 238 319> 633 28<45 98 263.5 273 273 325>
VStem: 133 105<65 311 364 596>
LayerCount: 2
Back
Fore
SplineSet
325 0 m 1
 45 0 l 1
 45 28 l 1
 98 28 l 2
 116 28 133 48 133 65 c 2
 133 311 l 1
 50 311 l 1
 50 364 l 1
 133 364 l 1
 133 596 l 2
 133 613 116 633 98 633 c 2
 45 633 l 1
 45 661 l 1
 325 661 l 1
 325 633 l 1
 273 633 l 2
 254 633 238 615 238 596 c 2
 238 364 l 1
 319 364 l 1
 319 311 l 1
 238 311 l 1
 238 65 l 2
 238 46 254 28 273 28 c 2
 325 28 l 1
 325 0 l 1
EndSplineSet
EndChar

StartChar: uni0198
Encoding: 408 408 344
Width: 765
Flags: MW
HStem: 0 29<474 504 504 516.5 682 719> 633 28<39 91 256.5 266 266 319>
VStem: 127 105<65 274 312 596> 622 87
LayerCount: 2
Back
Fore
SplineSet
707 593 m 0
 716 555 697 520 666 512 c 0
 612 496 605 574 662 589 c 0
 669 590 676 590 683 588 c 1
 685 603 658 619 646 619 c 2
 618 619 l 2
 536 619 385 436 385 436 c 1
 630 67 l 2
 638 55 666 29 682 29 c 2
 719 29 l 1
 719 0 l 1
 474 0 l 1
 474 29 l 1
 504 29 l 2
 529 29 518 57 510 69 c 2
 316 354 l 1
 232 274 l 1
 232 65 l 2
 232 47 247 28 266 28 c 2
 319 28 l 1
 319 0 l 1
 39 0 l 1
 39 28 l 1
 91 28 l 2
 110 28 127 47 127 65 c 2
 127 596 l 2
 127 614 110 633 91 633 c 2
 39 633 l 1
 39 661 l 1
 319 661 l 1
 319 633 l 1
 266 633 l 2
 247 633 232 614 232 596 c 2
 232 312 l 1
 485 571 l 2
 509 595 559 642 641 642 c 1
 641 642 696 638 707 593 c 0
EndSplineSet
EndChar

StartChar: uni0199
Encoding: 409 409 345
Width: 649
Flags: MW
HStem: 0 24<28 72 72 78.5 229 274 341 386 386 393.5 550 596> 443 20<301 330> 576 91
VStem: 98 106<44.5 51> 243 78<599.118 648.673> 341 255<0 24>
LayerCount: 2
Back
Fore
SplineSet
596 0 m 1
 341 0 l 1
 341 24 l 1
 386 24 l 2
 401 24 394 37 390 44 c 2
 259 254 l 1
 204 204 l 1
 204 51 l 2
 204 38 215 24 229 24 c 2
 274 24 l 1
 274 0 l 1
 28 0 l 1
 28 24 l 1
 72 24 l 2
 85 24 98 38 98 51 c 0
 99 512 99 407 99 570 c 0
 99 624 195 667 249 667 c 0
 288 667 320 647 321 615 c 0
 322 563 243 560 243 628 c 0
 243 636 245 642 249 649 c 1
 227 658 204 644 204 619 c 2
 204 221 l 1
 334 344 l 2
 369 377 385 443 330 443 c 2
 301 443 l 1
 301 463 l 1
 526 463 l 1
 526 443 l 1
 477 437 442 418 407 385 c 2
 340 321 l 1
 517 44 l 1
 521 34 539 24 550 24 c 2
 596 24 l 1
 596 0 l 1
EndSplineSet
EndChar

StartChar: uni019A
Encoding: 410 410 346
Width: 298
Flags: MW
HStem: 0 22<31 76 76 82.5 232 277> 315 49<25 101 207 290> 650 20<207 207>
VStem: 101 106<49 315 364 568 568 568>
LayerCount: 2
Back
Fore
SplineSet
290 315 m 1
 207 315 l 1
 207 49 l 2
 207 36 219 22 232 22 c 2
 277 22 l 1
 277 0 l 1
 31 0 l 1
 31 22 l 1
 76 22 l 2
 89 22 101 37 101 49 c 2
 101 315 l 1
 25 315 l 1
 25 364 l 1
 101 364 l 1
 101 568 l 1
 46 583 l 1
 46 603 l 1
 207 670 l 1
 207 364 l 1
 290 364 l 1
 290 315 l 1
EndSplineSet
EndChar

StartChar: uni019B
Encoding: 411 411 347
Width: 388
Flags: MW
HStem: 0 18<13 57 57 65 214 259> 570 66<25.6353 60.5898>
VStem: 13 246<0 18> 327 29
LayerCount: 2
Back
Fore
SplineSet
327 91 m 1
 324 141 310 169 297 216 c 0
 280 275 283 262 259 323 c 1
 189 45 l 1
 186 32 202 18 214 18 c 2
 259 18 l 1
 259 0 l 1
 13 0 l 1
 13 18 l 1
 57 18 l 2
 73 18 80 32 83 45 c 1
 170 381 l 1
 183 429 183 466 172 499 c 1
 75 402 l 1
 47 430 l 1
 152 535 l 1
 130 575 102 595 81 597 c 0
 57 600 47 571 14 570 c 0
 -12 570 -5 635 53 636 c 0
 94 637 131 603 168 551 c 1
 246 629 l 1
 274 601 l 1
 192 519 l 1
 231 457 265 385 287 323 c 0
 338 186 398 0 313 0 c 0
 272 0 290 48 314 77 c 0
 318 82 322 86 327 91 c 1
EndSplineSet
EndChar

StartChar: uni019C
Encoding: 412 412 348
Width: 959
Flags: MW
HStem: 2 27 637 24<28 73 225.5 232 232 276 342 387 536.5 543 543 588 656 700 850 857 857 902>
VStem: 98 108<86.5 108 108 610> 412 106<97 108 108 610> 726 106<102 610>
LayerCount: 2
Back
Fore
SplineSet
902 637 m 1
 857 637 l 2
 843 637 832 623 832 610 c 2
 832 102 l 1
 886 87 l 1
 886 67 l 1
 726 0 l 1
 726 71 l 1
 694 39 639 6 584 2 c 0
 531 -1 417 10 412 70 c 1
 380 38 326 5 272 2 c 0
 217 -2 98 11 98 77 c 2
 98 610 l 2
 98 623 86 637 73 637 c 2
 28 637 l 1
 28 661 l 1
 276 661 l 1
 276 637 l 1
 232 637 l 2
 219 637 206 623 206 610 c 2
 206 108 l 2
 206 65 243 27 286 29 c 0
 333 31 384 68 412 97 c 1
 412 610 l 2
 412 622 400 637 387 637 c 2
 342 637 l 1
 342 661 l 1
 588 661 l 1
 588 637 l 1
 543 637 l 2
 530 637 518 623 518 610 c 2
 518 108 l 2
 518 65 555 27 598 29 c 0
 647 31 699 69 726 98 c 1
 726 610 l 2
 726 623 713 637 700 637 c 2
 656 637 l 1
 656 661 l 1
 902 661 l 1
 902 637 l 1
EndSplineSet
EndChar

StartChar: uni019D
Encoding: 413 413 349
Width: 776
Flags: MW
HStem: -94 97 636 25<496 534 678.5 701 701 749>
VStem: 157 37<-26 598> 598 38<162 544>
LayerCount: 2
Back
Fore
SplineSet
749 636 m 1
 701 636 l 2
 656 636 636 581 636 544 c 2
 636 0 l 1
 582 0 l 1
 194 598 l 1
 194 -26 l 1
 194 -26 178 -80 131 -92 c 0
 93 -101 56 -82 48 -51 c 0
 30 11 108 27 127 -47 c 0
 128 -54 128 -61 126 -68 c 1
 154 -72 157 -55 157 -31 c 2
 157 600 l 2
 157 618 139 637 121 637 c 2
 69 637 l 1
 69 661 l 1
 265 661 l 1
 598 162 l 1
 598 544 l 2
 598 581 580 636 534 636 c 2
 496 636 l 1
 496 661 l 1
 749 661 l 1
 749 636 l 1
EndSplineSet
EndChar

StartChar: uni019E
Encoding: 414 414 350
Width: 569
Flags: W
LayerCount: 2
Back
Fore
SplineSet
588 -185 m 1
 342 -185 l 1
 342 -161 l 1
 387 -161 l 2
 400 -161 412 -147 412 -134 c 2
 412 362 l 2
 412 405 375 443 332 441 c 0
 283 439 231 401 204 372 c 1
 204 51 l 2
 204 38 217 24 230 24 c 2
 274 24 l 1
 274 0 l 1
 28 0 l 1
 28 24 l 1
 73 24 l 2
 87 24 98 38 98 51 c 2
 98 370 l 1
 44 385 l 1
 44 407 l 1
 204 474 l 1
 204 403 l 1
 236 435 291 469 346 472 c 0
 401 476 518 463 518 397 c 2
 518 -134 l 2
 518 -146 530 -161 543 -161 c 2
 588 -161 l 1
 588 -185 l 1
EndSplineSet
EndChar

StartChar: uni019F
Encoding: 415 415 351
Width: 715
Flags: W
LayerCount: 2
Back
Fore
SplineSet
344 -21 m 0
 -92 -21 -93 671 344 671 c 0
 785 671 784 -21 344 -21 c 0
344 0 m 0
 616 0 614 650 344 650 c 0
 74 650 76 0 344 0 c 0
476 252 m 1
 460 252 l 1
 460 280 l 2
 460 287 453 299 445 299 c 2
 229 299 l 2
 221 299 214 287 214 280 c 2
 214 252 l 1
 198 252 l 1
 198 408 l 1
 214 408 l 1
 214 381 l 2
 214 373 220 362 229 362 c 2
 445 362 l 2
 454 362 460 373 460 381 c 2
 460 408 l 1
 476 408 l 1
 476 252 l 1
EndSplineSet
EndChar

StartChar: Ohorn
Encoding: 416 416 352
Width: 813
Flags: W
LayerCount: 2
Back
Fore
SplineSet
399 -21 m 0
 -90 -21 -91 671 399 671 c 0
 885 671 885 -21 399 -21 c 0
399 0 m 0
 719 0 717 650 399 650 c 0
 82 650 84 0 399 0 c 0
794 647 m 1
 790 635 786 627 778 617 c 0
 765 600 757 592 738 582 c 0
 727 576 710 574 698 571 c 1
 687 584 l 1
 696 586 702 590 709 596 c 0
 717 603 722 608 724 619 c 0
 725 626 726 631 722 637 c 1
 688 658 689 725 756 721 c 0
 812 718 813 672 794 647 c 1
EndSplineSet
EndChar

StartChar: ohorn
Encoding: 417 417 353
Width: 576
Flags: W
LayerCount: 2
Back
Fore
SplineSet
285 -9 m 0
 -49 -9 -47 472 285 472 c 0
 625 472 625 -9 285 -9 c 0
285 6 m 0
 460 6 460 455 285 455 c 0
 109 455 109 6 285 6 c 0
489 542 m 1
 485 531 481 522 473 512 c 0
 460 495 452 487 433 477 c 0
 422 472 405 469 393 466 c 1
 382 479 l 1
 391 482 397 485 404 491 c 0
 412 498 418 503 419 514 c 0
 420 521 422 526 417 532 c 1
 383 554 384 620 451 616 c 0
 507 613 508 567 489 542 c 1
EndSplineSet
EndChar

StartChar: uni01A2
Encoding: 418 418 354
Width: 1002
Flags: MW
HStem: -191 28<726 779 779 788 954 1008> -21 25<231.5 549> 646 25<230.5 426>
VStem: 33 119 814 105<-159.509 563.993>
LayerCount: 2
Back
Fore
SplineSet
1008 -191 m 1
 726 -191 l 1
 726 -163 l 1
 779 -163 l 2
 797 -163 815 -143 815 -126 c 2
 815 509 l 2
 815 569 785 665 718 665 c 0
 675 665 635 629 624 587 c 1
 829 449 797 -21 389 -21 c 0
 -85 -21 -85 671 389 671 c 0
 463 671 548 653 594 615 c 1
 622 655 665 686 706 686 c 0
 811 686 896 614 913 516 c 0
 918 489 919 474 919 447 c 2
 919 -126 l 2
 919 -145 935 -163 954 -163 c 2
 1008 -163 l 1
 1008 -191 l 1
389 4 m 0
 709 4 707 646 389 646 c 0
 72 646 74 4 389 4 c 0
EndSplineSet
EndChar

StartChar: uni01A3
Encoding: 419 419 355
Width: 741
Flags: MW
HStem: -183 28<486 539 539 548 714 767> -9 19<189 364.5> 451 21<189 291.5> 513 21<467.5 522.5>
VStem: 25 120 408 104 574 105<-118 299>
LayerCount: 2
Back
Fore
SplineSet
767 -183 m 1
 486 -183 l 1
 486 -155 l 1
 539 -155 l 2
 557 -155 574 -135 574 -118 c 2
 574 361 l 2
 574 421 556 513 489 513 c 0
 446 513 410 474 403 432 c 1
 544 381 593 -9 277 -9 c 0
 -59 -9 -59 472 277 472 c 0
 306 472 346 466 369 454 c 1
 390 498 434 534 478 534 c 0
 633 534 679 401 679 299 c 2
 679 -118 l 2
 679 -137 694 -155 714 -155 c 2
 767 -155 l 1
 767 -183 l 1
277 10 m 0
 452 10 452 451 277 451 c 0
 101 451 101 10 277 10 c 0
EndSplineSet
EndChar

StartChar: uni01A4
Encoding: 420 420 356
Width: 559
Flags: MW
HStem: 0 30<30 83 83 92 258 310> 367 24<223 322 322 363> 634 27<223 323 223 223>
VStem: -40 92 118 105<67 367 391 601 601 610> 443 100
LayerCount: 2
Back
Fore
SplineSet
543 537 m 0
 552 413 473 367 381 367 c 2
 223 367 l 1
 223 67 l 2
 223 48 239 30 258 30 c 2
 310 30 l 1
 310 0 l 1
 30 0 l 1
 30 30 l 1
 83 30 l 2
 101 30 118 50 118 67 c 2
 118 601 l 2
 118 619 101 638 83 638 c 2
 25 638 l 2
 3 638 -16 635 -12 611 c 1
 -5 613 2 613 9 612 c 0
 73 596 60 511 5 527 c 0
 -26 535 -47 578 -38 616 c 0
 -26 663 30 661 30 661 c 1
 396 661 l 2
 471 661 536 636 543 537 c 0
443 535 m 0
 443 598 384 634 323 634 c 2
 223 634 l 1
 223 391 l 1
 322 391 l 2
 404 391 444 435 443 535 c 0
EndSplineSet
EndChar

StartChar: uni01A5
Encoding: 421 421 357
Width: 624
Flags: MW
HStem: -147 22<34 79 79 85.5 235 280> -9 17<330 330>
VStem: 104 106<-98 28 116 331> 456 120<154.25 335.471>
LayerCount: 2
Back
Fore
SplineSet
567 503 m 0
 561 449 484 461 493 526 c 0
 495 534 497 540 502 546 c 1
 474 562 446 531 436 507 c 2
 417 460 l 1
 485 434 574 367 576 243 c 0
 579 109 430 -7 330 -9 c 0
 284 -10 242 2 210 28 c 1
 210 -98 l 2
 210 -111 222 -125 235 -125 c 2
 280 -125 l 1
 280 -147 l 1
 34 -147 l 1
 34 -125 l 1
 79 -125 l 2
 92 -125 104 -110 104 -98 c 2
 104 360 l 1
 61 383 l 1
 61 405 l 1
 210 465 l 1
 210 424 l 1
 240 453 283 470 330 472 c 0
 356 473 379 471 401 465 c 1
 406 477 413 494 421 515 c 0
 432 540 456 573 505 566 c 0
 543 561 571 535 567 503 c 0
456 239 m 0
 456 399 356 459 323 454 c 0
 237 442 210 391 210 331 c 2
 210 116 l 1
 220 55 250 6 330 8 c 0
 409 10 456 123 456 239 c 0
EndSplineSet
EndChar

StartChar: uni01A6
Encoding: 422 422 358
Width: 754
Flags: MW
HStem: 0 28<26 79 79 88 254 306> 363 29<219 326> 631 34<219 334> 734 30<26 79 244.5 254 254 306>
VStem: 114 105<65 363 392 631 665 697> 455 111
LayerCount: 2
Back
Fore
SplineSet
683 0 m 1
 619 0 l 2
 576 0 522 22 502 57 c 2
 326 363 l 1
 219 363 l 1
 219 65 l 2
 219 46 235 28 254 28 c 2
 306 28 l 1
 306 0 l 1
 26 0 l 1
 26 28 l 1
 79 28 l 2
 97 28 114 48 114 65 c 2
 114 697 l 2
 114 714 97 734 79 734 c 2
 26 734 l 1
 26 764 l 1
 306 764 l 1
 306 734 l 1
 254 734 l 2
 235 734 219 716 219 697 c 2
 219 665 l 1
 369 665 l 2
 444 665 559 636 566 537 c 0
 574 427 512 378 434 369 c 1
 607 72 l 2
 619 52 643 20 670 20 c 2
 683 20 l 1
 683 0 l 1
455 535 m 0
 455 598 395 631 334 631 c 2
 219 631 l 1
 219 392 l 1
 333 392 l 2
 415 392 456 435 455 535 c 0
EndSplineSet
EndChar

StartChar: uni01A7
Encoding: 423 423 359
Width: 573
Flags: W
LayerCount: 2
Back
Fore
SplineSet
35 174 m 0
 35 97 116 -10 262 -10 c 0
 344 -10 378 35 433 40 c 0
 443 41 474 7 481 -2 c 1
 498 -2 l 1
 509 215 l 1
 489 215 l 1
 460 107 354 16 240 16 c 0
 168 16 138 51 138 131 c 0
 138 325 516 289 518 490 c 0
 518 594 399 674 294 674 c 0
 186 674 179 628 130 633 c 0
 115 634 89 664 82 676 c 1
 65 676 l 1
 51 452 l 1
 71 452 l 1
 96 548 168 651 278 651 c 0
 350 651 407 597 407 525 c 0
 405 372 35 381 35 174 c 0
EndSplineSet
EndChar

StartChar: uni01A8
Encoding: 424 424 360
Width: 385
Flags: W
LayerCount: 2
Back
Fore
SplineSet
26 119 m 0
 26 43 119 -2 193 -9 c 0
 237 -13 292 9 333 26 c 1
 333 136 l 1
 322 142 l 1
 314 80 255 3 186 15 c 0
 139 23 102 52 103 100 c 0
 104 174 340 159 342 347 c 0
 343 420 249 467 172 472 c 0
 130 475 80 457 42 440 c 1
 42 330 l 1
 52 324 l 1
 62 380 101 446 165 446 c 0
 212 446 260 429 263 383 c 0
 269 294 26 310 26 119 c 0
EndSplineSet
EndChar

StartChar: uni01A9
Encoding: 425 425 361
Width: 678
Flags: W
LayerCount: 2
Back
Fore
SplineSet
597 197 m 1
 543 0 l 1
 62 0 l 1
 62 24 l 1
 88 24 l 2
 109 24 148 59 158 75 c 2
 297 302 l 1
 301 314 l 1
 140 583 l 2
 129 602 111 634 85 634 c 2
 62 634 l 1
 62 658 l 1
 573 658 l 1
 594 471 l 1
 573 471 l 1
 566 502 l 2
 550 571 503 634 428 634 c 2
 300 634 l 2
 274 634 246 609 263 583 c 2
 405 360 l 1
 230 75 l 2
 215 50 238 24 268 24 c 2
 391 24 l 2
 466 24 530 102 556 165 c 2
 569 197 l 1
 597 197 l 1
EndSplineSet
EndChar

StartChar: uni01AA
Encoding: 426 426 362
Width: 363
Flags: MW
HStem: -175 13 489 18<92 126> 655 17<78.753 145.012>
VStem: 20 18<549.076 612.924> 182 106<-80 521 521 521 556 570> 326 92<-157.725 -108.46>
LayerCount: 2
Back
Fore
SplineSet
418 -125 m 0
 417 -157 371 -175 332 -175 c 0
 278 -175 182 -134 182 -80 c 2
 182 521 l 1
 165 501 140 489 112 489 c 0
 62 489 20 530 20 581 c 0
 20 632 62 673 112 673 c 0
 173 673 288 663 288 570 c 2
 288 -129 l 2
 288 -154 310 -168 332 -159 c 1
 328 -152 326 -146 326 -138 c 0
 326 -65 420 -55 418 -125 c 0
182 609 m 1
 171 636 143 655 112 655 c 0
 72 655 39 622 39 581 c 0
 39 540 72 507 112 507 c 0
 144 507 171 528 182 556 c 1
 182 609 l 1
EndSplineSet
EndChar

StartChar: uni01AB
Encoding: 427 427 363
Width: 367
Flags: MW
HStem: -130 72<183.493 234.673> 413 43<190 255>
VStem: 84 106<73 413>
LayerCount: 2
Back
Fore
SplineSet
273 64 m 1
 274 53 267 34 252 18 c 1
 252 4 251 -25 251 -64 c 0
 251 -103 233 -129 201 -130 c 0
 145 -132 148 -58 214 -58 c 0
 222 -58 228 -60 235 -64 c 1
 242 -47 238 -12 237 6 c 1
 224 -3 208 -9 189 -9 c 0
 144 -9 84 35 84 73 c 2
 84 413 l 1
 28 413 l 1
 28 435 l 1
 172 560 l 1
 190 546 l 1
 190 456 l 1
 271 456 l 1
 255 413 l 1
 190 413 l 1
 190 65 l 2
 190 48 207 35 224 36 c 0
 244 38 272 66 271 83 c 1
 273 64 l 1
EndSplineSet
EndChar

StartChar: uni01AC
Encoding: 428 428 364
Width: 782
Flags: MW
HStem: 0 28<251 304 304 313 479 532> 626 35<105 302 468.5 481 481 561>
VStem: 37 91 339 105<65 576>
LayerCount: 2
Back
Fore
SplineSet
764 490 m 1
 740 489 l 1
 719 571 642 626 561 626 c 2
 481 626 l 2
 456 626 444 597 444 576 c 2
 444 65 l 2
 444 46 460 28 479 28 c 2
 532 28 l 1
 532 0 l 1
 251 0 l 1
 251 28 l 1
 304 28 l 2
 322 28 339 48 339 65 c 2
 339 576 l 2
 339 599 329 626 302 626 c 2
 100 626 l 2
 77 626 59 621 63 595 c 1
 70 597 77 597 84 596 c 0
 142 581 144 499 80 517 c 0
 49 525 30 562 39 600 c 0
 51 647 98 661 105 661 c 2
 707 661 l 1
 764 490 l 1
EndSplineSet
EndChar

StartChar: uni01AD
Encoding: 429 429 365
Width: 367
Flags: MW
HStem: -9 45 409 51<190 255> 597 90
VStem: 84 106<73 409 509 592 592 619> 231 80<617.705 666.673>
LayerCount: 2
Back
Fore
SplineSet
311 633 m 0
 312 589 231 578 231 646 c 0
 231 654 233 660 237 667 c 1
 215 676 190 661 190 637 c 2
 190 460 l 1
 271 460 l 1
 255 409 l 1
 190 409 l 1
 190 65 l 2
 190 48 207 35 224 36 c 0
 244 38 272 66 271 83 c 1
 273 64 l 1
 275 42 245 -8 189 -9 c 0
 144 -9 84 35 84 73 c 2
 84 409 l 1
 28 409 l 1
 28 435 l 1
 84 509 l 1
 84 592 l 2
 84 646 183 687 237 687 c 0
 276 687 310 665 311 633 c 0
EndSplineSet
EndChar

StartChar: uni01AE
Encoding: 430 430 366
Width: 782
Flags: MW
HStem: -117 90 630 31<216 261 261 302 468.5 481 481 561>
VStem: 339 105<272 580 580 590.5> 484 78<-96.6726 -50.434>
LayerCount: 2
Back
Fore
SplineSet
766 490 m 1
 740 489 l 1
 719 571 642 630 561 630 c 2
 481 630 l 2
 456 630 444 601 444 580 c 0
 444 -36 446 85 445 -67 c 0
 445 -91 468 -106 490 -97 c 1
 486 -90 484 -84 484 -76 c 0
 484 -18 564 -8 562 -63 c 0
 561 -95 529 -117 490 -117 c 0
 421 -117 339 -77 339 -18 c 2
 339 580 l 2
 339 603 328 630 302 630 c 2
 261 630 l 2
 171 630 88 585 69 489 c 1
 43 490 l 1
 101 661 l 1
 709 661 l 1
 766 490 l 1
EndSplineSet
EndChar

StartChar: Uhorn
Encoding: 431 431 367
Width: 717
Flags: W
LayerCount: 2
Back
Fore
SplineSet
714 631 m 1
 661 631 l 2
 642 631 626 613 626 594 c 2
 626 220 l 2
 626 104 498 -15 386 -14 c 0
 240 -12 128 20 128 181 c 2
 128 594 l 2
 128 611 111 631 93 631 c 2
 40 631 l 1
 40 661 l 1
 321 661 l 1
 321 631 l 1
 268 631 l 2
 249 631 233 613 233 594 c 2
 233 132 l 2
 233 54 300 11 383 11 c 0
 481 11 576 107 576 209 c 2
 576 594 l 2
 576 612 559 631 540 631 c 2
 488 631 l 1
 488 661 l 1
 714 661 l 1
 714 631 l 1
813 678 m 1
 809 667 805 659 797 649 c 0
 784 632 776 623 757 614 c 0
 746 608 729 605 716 603 c 1
 705 616 l 1
 715 618 721 622 727 627 c 0
 736 634 741 640 743 650 c 0
 744 658 745 663 741 669 c 1
 706 690 708 757 775 753 c 0
 831 749 832 704 813 678 c 1
EndSplineSet
EndChar

StartChar: uhorn
Encoding: 432 432 368
Width: 626
Flags: W
LayerCount: 2
Back
Fore
SplineSet
577 61 m 1
 413 -9 l 1
 413 65 l 1
 383 28 328 -9 261 -9 c 0
 207 -9 85 -20 85 119 c 2
 85 412 l 2
 85 424 73 439 60 439 c 2
 15 439 l 1
 15 463 l 1
 191 463 l 1
 191 114 l 2
 191 56 230 27 276 30 c 0
 331 33 385 70 413 102 c 1
 413 412 l 2
 413 424 401 439 388 439 c 2
 343 439 l 1
 343 463 l 1
 519 463 l 1
 519 100 l 1
 577 84 l 1
 577 61 l 1
465 542 m 1
 460 531 457 522 449 512 c 0
 436 495 427 487 409 477 c 0
 398 472 381 469 368 466 c 1
 357 479 l 1
 366 482 372 485 379 491 c 0
 387 498 393 503 394 514 c 0
 395 521 397 526 393 532 c 1
 358 554 359 620 427 616 c 0
 483 613 483 567 465 542 c 1
EndSplineSet
EndChar

StartChar: uni01B1
Encoding: 433 433 369
Width: 813
Flags: W
LayerCount: 2
Back
Fore
SplineSet
793 296 m 0
 792 463 571 521 571 688 c 2
 571 707 l 1
 654 707 l 1
 665 644 l 1
 701 652 l 1
 674 759 l 1
 520 759 l 1
 520 669 l 2
 520 517 678 444 669 301 c 0
 661 164 572 29 435 26 c 0
 296 23 189 157 189 296 c 0
 189 439 349 514 349 669 c 2
 349 759 l 1
 194 759 l 1
 157 655 l 1
 195 650 l 1
 219 707 l 1
 302 707 l 1
 302 688 l 2
 302 519 67 465 65 296 c 0
 63 113 242 0 436 0 c 0
 650 0 795 113 793 296 c 0
EndSplineSet
EndChar

StartChar: uni01B2
Encoding: 434 434 370
Width: 704
Flags: MW
HStem: -7 18<367.5 538> 631 30<40 93 258.5 268 268 321>
VStem: 128 105<181 594> 635 34
LayerCount: 2
Back
Fore
SplineSet
642 635 m 0
 677 545 733 -7 412 -7 c 0
 266 -7 128 20 128 181 c 2
 128 594 l 2
 128 611 111 631 93 631 c 2
 40 631 l 1
 40 661 l 1
 321 661 l 1
 321 631 l 1
 268 631 l 2
 249 631 233 613 233 594 c 2
 233 132 l 2
 233 54 326 11 409 11 c 0
 667 11 652 453 613 600 c 1
 593 599 556 615 547 642 c 0
 538 670 561 697 597 685 c 0
 622 676 630 665 642 635 c 0
EndSplineSet
EndChar

StartChar: uni01B3
Encoding: 435 435 371
Width: 630
Flags: MW
HStem: 0 30<183 236 236 245 411 464> 630 31<451 477 616 636 636 671>
VStem: -24 93 272 105<67 334 334 334> 451 220<630 661>
LayerCount: 2
Back
Fore
SplineSet
671 630 m 1
 636 630 l 2
 596 630 537 553 516 524 c 2
 377 335 l 1
 377 67 l 2
 377 49 392 30 411 30 c 2
 464 30 l 1
 464 0 l 1
 183 0 l 1
 183 30 l 1
 236 30 l 2
 254 30 272 49 272 67 c 2
 272 334 l 1
 123 591 l 2
 119 598 101 618 93 625 c 0
 87 630 68 640 56 639 c 0
 33 638 1 644 6 611 c 1
 13 613 20 613 27 612 c 0
 94 595 70 517 23 531 c 0
 -8 539 -31 578 -22 616 c 0
 -10 663 80 661 103 661 c 0
 140 661 196 654 234 587 c 2
 366 357 l 1
 469 507 l 2
 486 532 555 630 477 630 c 2
 451 630 l 1
 451 661 l 1
 671 661 l 1
 671 630 l 1
EndSplineSet
EndChar

StartChar: uni01B4
Encoding: 436 436 372
Width: 479
Flags: MW
HStem: 441 22<319 342 461.5 474 474 493>
VStem: -45 93 66 106 319 174<441 463>
LayerCount: 2
Back
Fore
SplineSet
493 441 m 1
 474 441 l 2
 449 441 421 406 411 386 c 2
 201 -53 l 2
 190 -76 171 -88 146 -91 c 0
 43 -104 41 3 130 3 c 0
 170 3 181 -37 164 -57 c 0
 159 -63 156 -65 149 -68 c 1
 170 -68 178 -53 186 -36 c 2
 226 49 l 1
 222 51 l 1
 63 421 l 2
 53 444 37 445 20 445 c 0
 -5 445 -21 440 -17 413 c 1
 -9 415 -3 415 5 414 c 0
 64 399 64 323 0 341 c 0
 -31 349 -52 380 -43 418 c 0
 -32 461 5 463 45 463 c 0
 79 463 117 452 134 413 c 2
 259 122 l 1
 259 123 369 356 369 356 c 2
 382 383 385 441 342 441 c 2
 319 441 l 1
 319 463 l 1
 493 463 l 1
 493 441 l 1
EndSplineSet
EndChar

StartChar: uni01B5
Encoding: 437 437 373
Width: 640
Flags: MW
HStem: 0 29<180 364 364 401> 341 53<208 259 413 473> 632 29<246 278 278 448>
VStem: 208 265<341 394>
LayerCount: 2
Back
Fore
SplineSet
594 206 m 1
 535 0 l 1
 49 0 l 1
 49 21 l 1
 259 341 l 1
 208 341 l 1
 208 394 l 1
 289 394 l 1
 448 632 l 1
 278 632 l 2
 214 632 125 579 107 515 c 2
 94 469 l 1
 65 469 l 1
 110 661 l 1
 571 661 l 1
 571 639 l 1
 413 394 l 1
 473 394 l 1
 473 341 l 1
 384 341 l 1
 180 29 l 1
 364 29 l 2
 438 29 516 91 547 157 c 2
 569 204 l 1
 594 206 l 1
EndSplineSet
EndChar

StartChar: uni01B6
Encoding: 438 438 374
Width: 479
Flags: MW
HStem: -2 24<141 253 253 280> 236 53<106 158 305 371> 441 22<134.5 161 161 282>
VStem: 106 265<236 289>
LayerCount: 2
Back
Fore
SplineSet
414 463 m 1
 305 289 l 1
 371 289 l 1
 371 236 l 1
 277 236 l 1
 141 22 l 1
 253 22 l 2
 307 22 361 84 378 132 c 1
 397 125 l 1
 359 -2 l 1
 12 -2 l 1
 158 236 l 1
 106 236 l 1
 106 289 l 1
 185 289 l 1
 282 441 l 1
 161 441 l 2
 108 441 72 367 66 321 c 1
 46 331 l 1
 69 463 l 1
 414 463 l 1
EndSplineSet
EndChar

StartChar: uni01B7
Encoding: 439 439 375
Width: 535
Flags: MW
HStem: 0 32<193.5 217> 650 22<183.5 210 210 366>
VStem: 77 115<76.82 133.432> 391 109
LayerCount: 2
Back
Fore
SplineSet
498 672 m 1
 308 425 l 1
 620 357 515 0 253 0 c 0
 134 0 73 43 77 104 c 0
 84 205 196 202 192 113 c 0
 191 82 166 65 135 70 c 1
 140 48 169 32 191 32 c 0
 243 32 391 70 391 196 c 0
 391 320 269 371 160 371 c 1
 160 400 l 1
 366 650 l 1
 210 650 l 2
 157 650 121 576 115 530 c 1
 93 540 l 1
 116 672 l 1
 498 672 l 1
EndSplineSet
EndChar

StartChar: uni01B8
Encoding: 440 440 376
Width: 535
Flags: W
LayerCount: 2
Back
Fore
SplineSet
54 672 m 1
 244 425 l 1
 -68 357 37 0 299 0 c 0
 418 0 479 43 475 104 c 0
 468 205 356 202 360 113 c 0
 361 82 385 65 417 70 c 1
 412 48 383 32 361 32 c 0
 309 32 161 70 161 196 c 0
 161 320 283 371 392 371 c 1
 392 400 l 1
 186 650 l 1
 342 650 l 2
 395 650 431 576 437 530 c 1
 459 540 l 1
 436 672 l 1
 54 672 l 1
EndSplineSet
EndChar

StartChar: uni01B9
Encoding: 441 441 377
Width: 535
Flags: MW
HStem: -220 28<308.405 401.135> 442 22<229 350 229 229>
VStem: 370 103<-145.738 -85.0977>
LayerCount: 2
Back
Fore
SplineSet
473 -116 m 0
 477 -177 416 -224 305 -220 c 0
 48 -212 1 144 243 217 c 1
 95 464 l 1
 440 464 l 1
 463 332 l 1
 443 322 l 1
 437 368 403 442 350 442 c 2
 229 442 l 1
 382 192 l 1
 382 163 l 1
 359 163 l 2
 270 163 197 57 202 -24 c 0
 209 -128 295 -192 367 -192 c 0
 389 -192 418 -172 423 -150 c 1
 392 -155 372 -138 370 -107 c 0
 367 -42 467 -19 473 -116 c 0
EndSplineSet
EndChar

StartChar: uni01BA
Encoding: 442 442 378
Width: 535
Flags: MW
HStem: -211 42 442 22<185.5 212 212 333>
VStem: 93 101<-112 -81> 343 123
LayerCount: 2
Back
Fore
SplineSet
467 464 m 1
 315 278 l 1
 400 260 466 230 466 147 c 0
 466 52 368 24 284 -16 c 0
 248 -33 194 -68 194 -94 c 0
 194 -130 235 -166 292 -169 c 0
 354 -173 394 -119 405 -64 c 1
 416 -64 l 1
 410 -145 350 -214 264 -211 c 0
 194 -209 93 -176 93 -92 c 0
 93 -68 122 0 184 19 c 0
 259 42 340 71 343 122 c 0
 347 191 274 206 185 206 c 2
 162 206 l 1
 162 235 l 1
 333 442 l 1
 212 442 l 2
 159 442 125 368 119 322 c 1
 99 332 l 1
 122 464 l 1
 467 464 l 1
EndSplineSet
EndChar

StartChar: uni01BB
Encoding: 443 443 379
Width: 466
Flags: MW
HStem: 0 80<133 384> 254 53<115 180 324 384> 535 46
VStem: 267 130<379.625 504.138>
LayerCount: 2
Back
Fore
SplineSet
416 118 m 1
 393 0 l 1
 54 0 l 1
 54 40 l 2
 54 118 121 181 180 254 c 1
 115 254 l 1
 115 307 l 1
 214 307 l 1
 243 348 265 389 267 439 c 0
 269 492 235 532 178 535 c 0
 131 538 98 513 77 471 c 0
 70 457 68 449 65 434 c 1
 50 434 l 1
 51 448 53 457 57 471 c 0
 77 539 131 584 202 581 c 0
 272 579 396 547 397 462 c 0
 398 402 365 354 324 307 c 1
 384 307 l 1
 384 254 l 1
 279 254 l 1
 225 202 168 163 152 124 c 0
 138 90 140 97 133 80 c 1
 384 80 l 1
 394 118 l 1
 416 118 l 1
EndSplineSet
EndChar

StartChar: uni01BC
Encoding: 444 444 380
Width: 532
Flags: MW
HStem: -10 35<131.21 268.548> 404 106<120.765 249.093> 640 32<-5 48>
VStem: 57 100<71.7838 150.415> 357 106<176 278.5>
LayerCount: 2
Back
Fore
SplineSet
463 239 m 0
 463 113 330 -22 184 -10 c 0
 113 -4 56 41 57 97 c 0
 57 142 90 169 123 165 c 0
 146 162 159 130 157 106 c 0
 154 79 131 64 106 64 c 1
 115 53 121 47 134 40 c 0
 150 31 162 28 181 26 c 0
 304 12 357 119 357 232 c 0
 357 325 258 404 167 404 c 0
 133 404 84 382 84 382 c 1
 84 603 l 2
 84 621 66 640 48 640 c 2
 -5 640 l 1
 -5 672 l 1
 388 672 l 1
 395 563 l 1
 378 563 l 1
 373 572 l 2
 366 585 342 586 330 586 c 2
 118 586 l 1
 118 487 l 1
 145 501 155 509 186 510 c 0
 393 515 463 384 463 239 c 0
EndSplineSet
EndChar

StartChar: uni01BD
Encoding: 445 445 381
Width: 369
Flags: MW
HStem: -15 20<127.935 192.225> 260 76<154 178> 439 24<22 79.8611>
VStem: 65 74<38.9264 104.723> 274 68<75.5968 205.554>
LayerCount: 2
Back
Fore
SplineSet
342 153 m 0
 342 65 259 -26 154 -14 c 0
 111 -9 66 19 65 58 c 0
 65 107 88 109 111 106 c 0
 128 104 142 96 139 65 c 0
 138 46 117 35 100 35 c 1
 114 18 130 11 152 9 c 0
 218 1 273 67 273 146 c 0
 273 211 210 260 146 260 c 0
 115 260 84 245 84 245 c 1
 84 414 l 2
 84 427 72 440 59 440 c 2
 22 440 l 1
 22 463 l 1
 296 463 l 1
 301 378 l 1
 290 378 l 1
 286 384 l 1
 282 393 265 394 256 394 c 2
 108 394 l 1
 108 320 l 1
 127 329 143 336 165 336 c 0
 278 336 342 237 342 153 c 0
EndSplineSet
EndChar

StartChar: uni01BE
Encoding: 446 446 382
Width: 486
Flags: W
LayerCount: 2
Back
Fore
SplineSet
457 193 m 0
 457 336 364 437 236 441 c 0
 205 442 181 423 181 423 c 1
 181 500 l 1
 257 500 l 1
 257 554 l 1
 181 554 l 1
 181 640 l 1
 83 685 l 1
 83 554 l 1
 22 554 l 1
 22 500 l 1
 83 500 l 1
 83 337 l 1
 113 354 133 359 167 359 c 0
 249 359 351 301 351 186 c 0
 351 76 272 -10 181 -1 c 0
 150 2 100 47 90 71 c 1
 115 71 147 87 149 113 c 0
 151 137 130 167 107 170 c 0
 74 174 36 149 35 104 c 0
 35 48 122 -28 184 -35 c 0
 313 -48 457 50 457 193 c 0
EndSplineSet
EndChar

StartChar: uni01BF
Encoding: 447 447 383
Width: 638
Flags: MW
HStem: -147 22<34 79 79 85.5 235 280> 452 20
VStem: 104 106<-98 -75 -45 331> 456 120<178 319>
LayerCount: 2
Back
Fore
SplineSet
576 243 m 0
 576 113 375 0 210 -75 c 1
 210 -98 l 2
 210 -111 222 -125 235 -125 c 2
 280 -125 l 1
 280 -147 l 1
 34 -147 l 1
 34 -125 l 1
 79 -125 l 2
 92 -125 104 -110 104 -98 c 2
 104 362 l 1
 61 385 l 1
 61 405 l 1
 210 465 l 1
 210 424 l 1
 244 453 283 470 330 472 c 0
 452 476 576 412 576 243 c 0
456 239 m 0
 456 399 356 459 323 454 c 0
 237 442 210 391 210 331 c 2
 210 -45 l 1
 308 0 456 73 456 239 c 0
EndSplineSet
EndChar

StartChar: uni01C0
Encoding: 448 448 384
Width: 188
Flags: W
LayerCount: 2
Back
Fore
SplineSet
130 -19 m 1
 47 -19 l 1
 47 723 l 1
 130 723 l 1
 130 -19 l 1
EndSplineSet
EndChar

StartChar: uni01C1
Encoding: 449 449 385
Width: 303
Flags: W
LayerCount: 2
Back
Fore
SplineSet
130 -19 m 1
 130 723 l 1
 47 723 l 1
 47 -19 l 1
 130 -19 l 1
250 -19 m 1
 250 723 l 1
 167 723 l 1
 167 -19 l 1
 250 -19 l 1
EndSplineSet
EndChar

StartChar: uni01C2
Encoding: 450 450 386
Width: 412
Flags: MW
HStem: -19 20 275 49<33 151 248 362> 383 49<33 151 248 362>
VStem: 151 97<-19 275 324 383 432 723>
LayerCount: 2
Back
Fore
SplineSet
362 275 m 1
 248 275 l 1
 248 -19 l 1
 151 -19 l 1
 151 275 l 1
 33 275 l 1
 33 324 l 1
 151 324 l 1
 151 383 l 1
 33 383 l 1
 33 432 l 1
 151 432 l 1
 151 723 l 1
 248 723 l 1
 248 432 l 1
 362 432 l 1
 362 383 l 1
 248 383 l 1
 248 324 l 1
 362 324 l 1
 362 275 l 1
EndSplineSet
EndChar

StartChar: uni01C3
Encoding: 451 451 387
Width: 319
Flags: W
LayerCount: 2
Back
Fore
SplineSet
195 657 m 1
 166 124 l 1
 92 124 l 1
 67 657 l 1
 195 657 l 1
162 78 m 0
 228 35 163 -62 98 -19 c 0
 33 24 97 121 162 78 c 0
EndSplineSet
EndChar

StartChar: uni01C4
Encoding: 452 452 388
Width: 1315
Flags: W
LayerCount: 2
Back
Fore
SplineSet
719 347 m 0
 720 172 557 0 329 0 c 2
 23 0 l 1
 23 30 l 1
 76 30 l 2
 94 30 111 50 111 67 c 2
 111 594 l 2
 111 611 94 631 76 631 c 2
 23 631 l 1
 23 661 l 1
 429 661 l 2
 637 661 718 484 719 347 c 0
607 359 m 0
 598 493 530 625 396 625 c 2
 253 625 l 2
 228 625 216 596 216 575 c 2
 216 86 l 2
 216 65 228 36 253 36 c 2
 347 36 l 2
 510 36 617 196 607 359 c 0
1304 206 m 1
 1245 0 l 1
 759 0 l 1
 759 21 l 1
 1158 630 l 1
 988 630 l 2
 921 630 836 584 817 515 c 2
 804 469 l 1
 777 469 l 1
 822 661 l 1
 1281 661 l 1
 1281 639 l 1
 890 31 l 1
 1074 31 l 2
 1151 31 1225 88 1257 157 c 2
 1279 204 l 1
 1304 206 l 1
1147 785 m 1
 1052 692 l 1
 1035 692 l 1
 940 785 l 1
 965 785 l 1
 1041 728 l 1
 1048 728 l 1
 1125 785 l 1
 1147 785 l 1
EndSplineSet
EndChar

StartChar: uni01C5
Encoding: 453 453 389
Width: 1123
Flags: W
LayerCount: 2
Back
Fore
SplineSet
719 347 m 0
 720 172 557 0 329 0 c 2
 23 0 l 1
 23 30 l 1
 76 30 l 2
 94 30 111 50 111 67 c 2
 111 594 l 2
 111 611 94 631 76 631 c 2
 23 631 l 1
 23 661 l 1
 429 661 l 2
 637 661 718 484 719 347 c 0
607 359 m 0
 598 493 530 625 396 625 c 2
 253 625 l 2
 228 625 216 596 216 575 c 2
 216 86 l 2
 216 65 228 36 253 36 c 2
 347 36 l 2
 510 36 617 196 607 359 c 0
1124 463 m 1
 851 24 l 1
 963 24 l 2
 1021 24 1070 81 1088 132 c 1
 1109 125 l 1
 1071 -2 l 1
 722 -2 l 1
 992 439 l 1
 871 439 l 2
 815 439 782 369 776 321 c 1
 754 331 l 1
 777 463 l 1
 1124 463 l 1
1049 656 m 1
 954 562 l 1
 938 562 l 1
 842 656 l 1
 867 656 l 1
 943 598 l 1
 950 598 l 1
 1027 656 l 1
 1049 656 l 1
EndSplineSet
EndChar

StartChar: uni01C6
Encoding: 454 454 390
Width: 1011
Flags: W
LayerCount: 2
Back
Fore
SplineSet
536 45 m 1
 407 -9 l 1
 407 21 l 1
 374 1 331 -8 289 -9 c 0
 168 -13 45 51 40 228 c 0
 36 386 166 471 289 472 c 0
 336 473 376 459 407 432 c 1
 407 589 l 1
 359 599 l 1
 362 621 l 1
 513 680 l 1
 513 82 l 1
 536 72 l 1
 536 45 l 1
407 127 m 1
 407 292 l 2
 407 419 386 448 289 448 c 0
 191 447 166 336 163 239 c 0
 161 135 188 5 291 14 c 0
 367 20 397 51 407 127 c 1
963 463 m 1
 690 24 l 1
 802 24 l 2
 860 24 910 81 927 132 c 1
 948 125 l 1
 910 -2 l 1
 561 -2 l 1
 831 439 l 1
 710 439 l 2
 655 439 621 369 615 321 c 1
 593 331 l 1
 616 463 l 1
 963 463 l 1
889 655 m 1
 794 562 l 1
 777 562 l 1
 682 655 l 1
 707 655 l 1
 783 598 l 1
 790 598 l 1
 866 655 l 1
 889 655 l 1
EndSplineSet
EndChar

StartChar: uni01C7
Encoding: 455 455 391
Width: 960
Flags: W
LayerCount: 2
Back
Fore
SplineSet
940 631 m 1
 887 631 l 2
 868 631 852 613 852 594 c 2
 852 133 l 2
 852 18 797 -106 661 -106 c 0
 613 -106 570 -84 570 -36 c 0
 570 -12 598 23 623 23 c 0
 650 23 676 -12 676 -30 c 0
 676 -59 653 -70 630 -76 c 1
 637 -82 655 -89 672 -85 c 0
 737 -69 747 11 747 71 c 2
 747 594 l 2
 747 611 730 631 712 631 c 2
 659 631 l 1
 659 661 l 1
 940 661 l 1
 940 631 l 1
589 179 m 1
 539 0 l 1
 28 0 l 1
 28 30 l 1
 81 30 l 2
 109 30 117 59 117 82 c 2
 117 594 l 2
 117 612 99 631 81 631 c 2
 28 631 l 1
 28 661 l 1
 309 661 l 1
 309 631 l 1
 256 631 l 2
 237 631 222 612 222 594 c 2
 222 79 l 2
 222 56 234 29 260 29 c 2
 380 29 l 2
 460 29 546 103 568 179 c 1
 589 179 l 1
EndSplineSet
EndChar

StartChar: uni01C8
Encoding: 456 456 392
Width: 854
Flags: W
LayerCount: 2
Back
Fore
SplineSet
589 179 m 1
 539 0 l 1
 28 0 l 1
 28 30 l 1
 81 30 l 2
 109 30 117 59 117 82 c 2
 117 594 l 2
 117 612 99 631 81 631 c 2
 28 631 l 1
 28 661 l 1
 309 661 l 1
 309 631 l 1
 256 631 l 2
 237 631 222 612 222 594 c 2
 222 79 l 2
 222 56 234 29 260 29 c 2
 380 29 l 2
 460 29 546 103 568 179 c 1
 589 179 l 1
780 583 m 0
 780 523 690 523 690 583 c 0
 690 644 780 644 780 583 c 0
804 -35 m 2
 804 -118 707 -151 652 -150 c 0
 532 -147 569 -34 620 -33 c 0
 654 -32 684 -96 651 -117 c 0
 643 -122 637 -128 629 -132 c 1
 640 -132 658 -130 668 -125 c 0
 690 -113 698 -94 698 -69 c 2
 698 383 l 1
 658 396 l 1
 658 417 l 1
 804 474 l 1
 804 -35 l 2
EndSplineSet
EndChar

StartChar: uni01C9
Encoding: 457 457 393
Width: 549
Flags: W
LayerCount: 2
Back
Fore
SplineSet
475 583 m 0
 475 523 385 523 385 583 c 0
 385 644 475 644 475 583 c 0
499 -35 m 2
 499 -118 402 -151 347 -150 c 0
 227 -147 264 -34 315 -33 c 0
 349 -32 379 -96 346 -117 c 0
 338 -122 332 -128 324 -132 c 1
 335 -132 353 -130 363 -125 c 0
 385 -113 393 -94 393 -69 c 2
 393 383 l 1
 353 396 l 1
 353 417 l 1
 499 474 l 1
 499 -35 l 2
277 0 m 1
 31 0 l 1
 31 24 l 1
 76 24 l 2
 89 24 101 39 101 51 c 2
 101 566 l 1
 46 581 l 1
 46 603 l 1
 207 670 l 1
 207 51 l 2
 207 38 219 24 232 24 c 2
 277 24 l 1
 277 0 l 1
EndSplineSet
EndChar

StartChar: uni01CA
Encoding: 458 458 394
Width: 1106
Flags: W
LayerCount: 2
Back
Fore
SplineSet
1103 631 m 1
 1050 631 l 2
 1031 631 1015 613 1015 594 c 2
 1015 133 l 2
 1015 18 960 -106 824 -106 c 0
 776 -106 733 -84 733 -36 c 0
 733 -12 761 23 786 23 c 0
 813 23 839 -12 839 -30 c 0
 839 -59 816 -70 793 -76 c 1
 800 -82 818 -89 835 -85 c 0
 900 -69 910 11 910 71 c 2
 910 594 l 2
 910 611 893 631 875 631 c 2
 822 631 l 1
 822 661 l 1
 1103 661 l 1
 1103 631 l 1
769 630 m 1
 721 630 l 2
 676 630 656 575 656 538 c 2
 656 0 l 1
 564 0 l 1
 176 598 l 1
 176 123 l 2
 176 88 198 31 241 31 c 2
 279 31 l 1
 279 0 l 1
 37 0 l 1
 37 31 l 1
 86 31 l 2
 128 31 151 88 151 123 c 2
 151 594 l 2
 151 612 133 631 115 631 c 2
 63 631 l 1
 63 661 l 1
 247 661 l 1
 630 80 l 1
 630 538 l 2
 630 575 611 630 566 630 c 2
 528 630 l 1
 528 661 l 1
 769 661 l 1
 769 630 l 1
EndSplineSet
EndChar

StartChar: uni01CB
Encoding: 459 459 395
Width: 1017
Flags: W
LayerCount: 2
Back
Fore
SplineSet
769 630 m 1
 721 630 l 2
 676 630 656 575 656 538 c 2
 656 0 l 1
 564 0 l 1
 176 598 l 1
 176 123 l 2
 176 88 198 31 241 31 c 2
 279 31 l 1
 279 0 l 1
 37 0 l 1
 37 31 l 1
 86 31 l 2
 128 31 151 88 151 123 c 2
 151 594 l 2
 151 612 133 631 115 631 c 2
 63 631 l 1
 63 661 l 1
 247 661 l 1
 630 80 l 1
 630 538 l 2
 630 575 611 630 566 630 c 2
 528 630 l 1
 528 661 l 1
 769 661 l 1
 769 630 l 1
943 583 m 0
 943 523 853 523 853 583 c 0
 853 644 943 644 943 583 c 0
967 -35 m 2
 967 -118 870 -151 815 -150 c 0
 695 -147 732 -34 783 -33 c 0
 817 -32 847 -96 814 -117 c 0
 806 -122 800 -128 792 -132 c 1
 803 -132 821 -130 831 -125 c 0
 853 -113 861 -94 861 -69 c 2
 861 383 l 1
 821 396 l 1
 821 417 l 1
 967 474 l 1
 967 -35 l 2
EndSplineSet
EndChar

StartChar: uni01CC
Encoding: 460 460 396
Width: 797
Flags: W
LayerCount: 2
Back
Fore
SplineSet
723 583 m 0
 723 523 633 523 633 583 c 0
 633 644 723 644 723 583 c 0
747 -35 m 2
 747 -118 650 -151 595 -150 c 0
 475 -147 512 -34 563 -33 c 0
 597 -32 627 -96 594 -117 c 0
 586 -122 580 -128 572 -132 c 1
 583 -132 601 -130 611 -125 c 0
 633 -113 641 -94 641 -69 c 2
 641 383 l 1
 601 396 l 1
 601 417 l 1
 747 474 l 1
 747 -35 l 2
588 0 m 1
 342 0 l 1
 342 24 l 1
 387 24 l 2
 400 24 412 38 412 51 c 2
 412 360 l 2
 412 403 375 441 332 439 c 0
 283 437 231 399 204 370 c 1
 204 51 l 2
 204 38 217 24 230 24 c 2
 274 24 l 1
 274 0 l 1
 28 0 l 1
 28 24 l 1
 73 24 l 2
 87 24 98 38 98 51 c 2
 98 370 l 1
 44 385 l 1
 44 407 l 1
 204 474 l 1
 204 403 l 1
 236 435 291 469 346 472 c 0
 401 476 518 463 518 397 c 2
 518 51 l 2
 518 39 530 24 543 24 c 2
 588 24 l 1
 588 0 l 1
EndSplineSet
EndChar

StartChar: uni01D5
Encoding: 469 469 405
Width: 717
Flags: W
LayerCount: 2
Back
Fore
SplineSet
714 631 m 1
 661 631 l 2
 642 631 626 613 626 594 c 2
 626 220 l 2
 626 104 498 -15 386 -14 c 0
 240 -12 128 20 128 181 c 2
 128 594 l 2
 128 611 111 631 93 631 c 2
 40 631 l 1
 40 661 l 1
 321 661 l 1
 321 631 l 1
 268 631 l 2
 249 631 233 613 233 594 c 2
 233 132 l 2
 233 54 300 11 383 11 c 0
 481 11 576 107 576 209 c 2
 576 594 l 2
 576 612 559 631 540 631 c 2
 488 631 l 1
 488 661 l 1
 714 661 l 1
 714 631 l 1
493 671 m 0
 433 671 433 763 493 763 c 0
 554 763 554 671 493 671 c 0
305 671 m 0
 245 671 245 763 305 763 c 0
 367 763 367 671 305 671 c 0
508 770 m 1
 293 770 l 1
 293 823 l 1
 508 823 l 1
 508 770 l 1
EndSplineSet
EndChar

StartChar: uni01D6
Encoding: 470 470 406
Width: 626
Flags: W
LayerCount: 2
Back
Fore
SplineSet
391 642 m 1
 176 642 l 1
 176 695 l 1
 391 695 l 1
 391 642 l 1
577 61 m 1
 413 -9 l 1
 413 65 l 1
 383 28 328 -9 261 -9 c 0
 207 -9 85 -20 85 119 c 2
 85 412 l 2
 85 424 73 439 60 439 c 2
 15 439 l 1
 15 463 l 1
 191 463 l 1
 191 114 l 2
 191 56 230 27 276 30 c 0
 331 33 385 70 413 102 c 1
 413 412 l 2
 413 424 401 439 388 439 c 2
 343 439 l 1
 343 463 l 1
 519 463 l 1
 519 100 l 1
 577 84 l 1
 577 61 l 1
384 521 m 0
 324 521 324 613 384 613 c 0
 445 613 445 521 384 521 c 0
197 521 m 0
 137 521 137 613 197 613 c 0
 258 613 258 521 197 521 c 0
EndSplineSet
EndChar

StartChar: uni01D7
Encoding: 471 471 407
Width: 717
Flags: W
LayerCount: 2
Back
Fore
SplineSet
714 631 m 1
 661 631 l 2
 642 631 626 613 626 594 c 2
 626 220 l 2
 626 104 498 -15 386 -14 c 0
 240 -12 128 20 128 181 c 2
 128 594 l 2
 128 611 111 631 93 631 c 2
 40 631 l 1
 40 661 l 1
 321 661 l 1
 321 631 l 1
 268 631 l 2
 249 631 233 613 233 594 c 2
 233 132 l 2
 233 54 300 11 383 11 c 0
 481 11 576 107 576 209 c 2
 576 594 l 2
 576 612 559 631 540 631 c 2
 488 631 l 1
 488 661 l 1
 714 661 l 1
 714 631 l 1
490 671 m 0
 430 671 430 763 490 763 c 0
 552 763 552 671 490 671 c 0
303 671 m 0
 243 671 243 763 303 763 c 0
 364 763 364 671 303 671 c 0
489 883 m 1
 361 774 l 1
 310 774 l 1
 395 883 l 1
 489 883 l 1
EndSplineSet
EndChar

StartChar: uni01D8
Encoding: 472 472 408
Width: 626
Flags: W
LayerCount: 2
Back
Fore
SplineSet
393 755 m 1
 265 646 l 1
 214 646 l 1
 299 755 l 1
 393 755 l 1
577 61 m 1
 413 -9 l 1
 413 65 l 1
 383 28 328 -9 261 -9 c 0
 207 -9 85 -20 85 119 c 2
 85 412 l 2
 85 424 73 439 60 439 c 2
 15 439 l 1
 15 463 l 1
 191 463 l 1
 191 114 l 2
 191 56 230 27 276 30 c 0
 331 33 385 70 413 102 c 1
 413 412 l 2
 413 424 401 439 388 439 c 2
 343 439 l 1
 343 463 l 1
 519 463 l 1
 519 100 l 1
 577 84 l 1
 577 61 l 1
384 521 m 0
 324 521 324 613 384 613 c 0
 445 613 445 521 384 521 c 0
197 521 m 0
 137 521 137 613 197 613 c 0
 258 613 258 521 197 521 c 0
EndSplineSet
EndChar

StartChar: uni01D9
Encoding: 473 473 409
Width: 717
Flags: W
LayerCount: 2
Back
Fore
SplineSet
714 631 m 1
 661 631 l 2
 642 631 626 613 626 594 c 2
 626 220 l 2
 626 104 498 -15 386 -14 c 0
 240 -12 128 20 128 181 c 2
 128 594 l 2
 128 611 111 631 93 631 c 2
 40 631 l 1
 40 661 l 1
 321 661 l 1
 321 631 l 1
 268 631 l 2
 249 631 233 613 233 594 c 2
 233 132 l 2
 233 54 300 11 383 11 c 0
 481 11 576 107 576 209 c 2
 576 594 l 2
 576 612 559 631 540 631 c 2
 488 631 l 1
 488 661 l 1
 714 661 l 1
 714 631 l 1
497 671 m 0
 437 671 437 763 497 763 c 0
 559 763 559 671 497 671 c 0
310 671 m 0
 250 671 250 763 310 763 c 0
 371 763 371 671 310 671 c 0
505 839 m 1
 410 745 l 1
 393 745 l 1
 298 839 l 1
 323 839 l 1
 399 781 l 1
 406 781 l 1
 482 839 l 1
 505 839 l 1
EndSplineSet
EndChar

StartChar: uni01DA
Encoding: 474 474 410
Width: 626
Flags: W
LayerCount: 2
Back
Fore
SplineSet
577 61 m 1
 413 -9 l 1
 413 65 l 1
 383 28 328 -9 261 -9 c 0
 207 -9 85 -20 85 119 c 2
 85 412 l 2
 85 424 73 439 60 439 c 2
 15 439 l 1
 15 463 l 1
 191 463 l 1
 191 114 l 2
 191 56 230 27 276 30 c 0
 331 33 385 70 413 102 c 1
 413 412 l 2
 413 424 401 439 388 439 c 2
 343 439 l 1
 343 463 l 1
 519 463 l 1
 519 100 l 1
 577 84 l 1
 577 61 l 1
384 521 m 0
 324 521 324 613 384 613 c 0
 445 613 445 521 384 521 c 0
197 521 m 0
 137 521 137 613 197 613 c 0
 258 613 258 521 197 521 c 0
389 723 m 1
 294 630 l 1
 277 630 l 1
 181 723 l 1
 207 723 l 1
 282 666 l 1
 290 666 l 1
 366 723 l 1
 389 723 l 1
EndSplineSet
EndChar

StartChar: uni01DB
Encoding: 475 475 411
Width: 717
Flags: W
LayerCount: 2
Back
Fore
SplineSet
714 631 m 1
 661 631 l 2
 642 631 626 613 626 594 c 2
 626 220 l 2
 626 104 498 -15 386 -14 c 0
 240 -12 128 20 128 181 c 2
 128 594 l 2
 128 611 111 631 93 631 c 2
 40 631 l 1
 40 661 l 1
 321 661 l 1
 321 631 l 1
 268 631 l 2
 249 631 233 613 233 594 c 2
 233 132 l 2
 233 54 300 11 383 11 c 0
 481 11 576 107 576 209 c 2
 576 594 l 2
 576 612 559 631 540 631 c 2
 488 631 l 1
 488 661 l 1
 714 661 l 1
 714 631 l 1
496 671 m 0
 436 671 436 763 496 763 c 0
 557 763 557 671 496 671 c 0
309 671 m 0
 249 671 249 763 309 763 c 0
 370 763 370 671 309 671 c 0
493 878 m 1
 365 769 l 1
 314 769 l 1
 399 878 l 1
 493 878 l 1
EndSplineSet
EndChar

StartChar: uni01DC
Encoding: 476 476 412
Width: 626
Flags: W
LayerCount: 2
Back
Fore
SplineSet
386 736 m 1
 258 627 l 1
 207 627 l 1
 292 736 l 1
 386 736 l 1
577 61 m 1
 413 -9 l 1
 413 65 l 1
 383 28 328 -9 261 -9 c 0
 207 -9 85 -20 85 119 c 2
 85 412 l 2
 85 424 73 439 60 439 c 2
 15 439 l 1
 15 463 l 1
 191 463 l 1
 191 114 l 2
 191 56 230 27 276 30 c 0
 331 33 385 70 413 102 c 1
 413 412 l 2
 413 424 401 439 388 439 c 2
 343 439 l 1
 343 463 l 1
 519 463 l 1
 519 100 l 1
 577 84 l 1
 577 61 l 1
384 521 m 0
 324 521 324 613 384 613 c 0
 445 613 445 521 384 521 c 0
197 521 m 0
 137 521 137 613 197 613 c 0
 258 613 258 521 197 521 c 0
EndSplineSet
EndChar

StartChar: uni01DD
Encoding: 477 477 413
Width: 529
Flags: W
LayerCount: 2
Back
Fore
SplineSet
41 173 m 1
 371 173 l 1
 373 187 379 202 379 217 c 0
 379 301 310 357 253 357 c 0
 170 357 85 334 45 258 c 1
 45 371 l 1
 73 428 185 472 246 472 c 0
 365 472 493 383 487 221 c 0
 483 102 366 -9 240 -9 c 0
 145 -9 41 45 41 173 c 1
148 145 m 1
 148 87 172 7 240 7 c 0
 313 7 350 71 366 145 c 1
 148 145 l 1
EndSplineSet
EndChar

StartChar: uni01DE
Encoding: 478 478 414
Width: 810
Flags: W
LayerCount: 2
Back
Fore
SplineSet
758 0 m 1
 506 0 l 1
 506 31 l 1
 545 31 l 2
 560 31 570 47 565 61 c 2
 479 310 l 1
 279 310 l 1
 199 111 l 2
 186 78 210 31 246 31 c 2
 282 31 l 1
 282 0 l 1
 37 0 l 1
 37 31 l 1
 74 31 l 2
 103 31 129 65 139 89 c 2
 369 625 l 1
 363 647 l 1
 456 686 l 1
 676 71 l 2
 684 48 716 31 739 31 c 2
 758 31 l 1
 758 0 l 1
468 342 m 1
 389 575 l 1
 293 342 l 1
 468 342 l 1
505 671 m 0
 445 671 445 762 505 762 c 0
 567 762 567 671 505 671 c 0
318 671 m 0
 258 671 258 762 318 762 c 0
 379 762 379 671 318 671 c 0
508 767 m 1
 293 767 l 1
 293 820 l 1
 508 820 l 1
 508 767 l 1
EndSplineSet
EndChar

StartChar: uni01DF
Encoding: 479 479 415
Width: 527
Flags: W
LayerCount: 2
Back
Fore
SplineSet
396 642 m 1
 181 642 l 1
 181 695 l 1
 396 695 l 1
 396 642 l 1
489 43 m 2
 489 7 444 -6 415 -9 c 0
 361 -14 316 18 313 72 c 1
 292 33 249 -9 203 -9 c 0
 129 -9 37 26 40 104 c 0
 45 246 233 215 313 280 c 1
 313 380 l 2
 313 416 279 436 246 436 c 0
 223 436 200 435 180 423 c 1
 183 405 178 397 174 379 c 0
 166 346 157 309 124 309 c 0
 31 308 87 475 301 472 c 0
 327 472 419 456 419 389 c 2
 419 77 l 2
 419 58 430 37 450 38 c 0
 467 39 483 65 489 80 c 1
 489 43 l 2
313 124 m 1
 313 245 l 1
 269 210 152 221 146 134 c 0
 139 39 177 38 234 38 c 0
 267 38 300 97 313 124 c 1
372 521 m 0
 312 521 312 613 372 613 c 0
 433 613 433 521 372 521 c 0
184 521 m 0
 124 521 124 613 184 613 c 0
 246 613 246 521 184 521 c 0
EndSplineSet
EndChar

StartChar: uni01E0
Encoding: 480 480 416
Width: 810
Flags: W
LayerCount: 2
Back
Fore
SplineSet
758 0 m 1
 506 0 l 1
 506 31 l 1
 545 31 l 2
 560 31 570 47 565 61 c 2
 479 310 l 1
 279 310 l 1
 199 111 l 2
 186 78 210 31 246 31 c 2
 282 31 l 1
 282 0 l 1
 37 0 l 1
 37 31 l 1
 74 31 l 2
 103 31 129 65 139 89 c 2
 369 625 l 1
 363 647 l 1
 456 686 l 1
 676 71 l 2
 684 48 716 31 739 31 c 2
 758 31 l 1
 758 0 l 1
468 342 m 1
 389 575 l 1
 293 342 l 1
 468 342 l 1
498 786 m 1
 283 786 l 1
 283 839 l 1
 498 839 l 1
 498 786 l 1
429 737 m 0
 429 685 351 685 351 737 c 0
 351 789 429 789 429 737 c 0
EndSplineSet
EndChar

StartChar: uni01E1
Encoding: 481 481 417
Width: 527
Flags: W
LayerCount: 2
Back
Fore
SplineSet
489 43 m 2
 489 7 444 -6 415 -9 c 0
 361 -14 316 18 313 72 c 1
 292 33 249 -9 203 -9 c 0
 129 -9 37 26 40 104 c 0
 45 246 233 215 313 280 c 1
 313 380 l 2
 313 416 279 436 246 436 c 0
 223 436 200 435 180 423 c 1
 183 405 178 397 174 379 c 0
 166 346 157 309 124 309 c 0
 31 308 87 475 301 472 c 0
 327 472 419 456 419 389 c 2
 419 77 l 2
 419 58 430 37 450 38 c 0
 467 39 483 65 489 80 c 1
 489 43 l 2
313 124 m 1
 313 245 l 1
 269 210 152 221 146 134 c 0
 139 39 177 38 234 38 c 0
 267 38 300 97 313 124 c 1
415 637 m 1
 200 637 l 1
 200 690 l 1
 415 690 l 1
 415 637 l 1
340 554 m 0
 340 503 262 503 262 554 c 0
 262 607 340 607 340 554 c 0
EndSplineSet
EndChar

StartChar: uni01E4
Encoding: 484 484 420
Width: 721
Flags: MW
HStem: -6 23<303.384 427.441> 185 53<426 507 612 698> 333 24<443 474 630.5 642 642 687> 641 23
VStem: 35 107<222.991 436.54> 507 105<91 185 238 289>
LayerCount: 2
Back
Fore
SplineSet
698 185 m 1
 612 185 l 1
 612 68 l 1
 567 82 l 1
 520 24 424 -3 350 -6 c 0
 182 -12 34 165 35 332 c 0
 35 496 192 667 342 664 c 0
 414 663 454 645 505 598 c 1
 548 658 l 1
 575 658 l 1
 588 440 l 1
 570 440 l 1
 565 458 561 469 552 486 c 0
 505 579 440 649 337 641 c 0
 213 631 141 461 142 324 c 0
 144 180 213 13 366 17 c 0
 426 19 474 42 507 91 c 1
 507 185 l 1
 426 185 l 1
 426 238 l 1
 507 238 l 1
 507 289 l 2
 507 310 500 333 474 333 c 2
 443 333 l 1
 443 357 l 1
 687 357 l 1
 687 333 l 1
 642 333 l 2
 619 333 612 307 612 289 c 2
 612 238 l 1
 698 238 l 1
 698 185 l 1
EndSplineSet
EndChar

StartChar: uni01E5
Encoding: 485 485 421
Width: 517
Flags: MW
HStem: -212 31<183.5 265.5> -129 45<291 366 449 531> 158 18<215 267.5> 453 13<218 218>
VStem: 38 106 288 98
LayerCount: 2
Back
Fore
SplineSet
531 -129 m 1
 432 -129 l 1
 378 -200 322 -212 231 -212 c 0
 87 -212 12 -172 14 -76 c 0
 15 -39 84 -3 128 17 c 1
 90 30 53 77 53 106 c 0
 53 151 108 167 155 172 c 1
 30 175 -54 458 218 466 c 0
 265 467 328 443 352 415 c 1
 352 436 l 2
 352 441 352 446 353 452 c 0
 359 499 424 498 430 454 c 0
 433 428 414 403 385 409 c 1
 373 413 367 417 360 428 c 1
 360 403 l 1
 420 313 378 158 218 158 c 0
 212 158 206 158 200 159 c 1
 161 156 126 158 126 131 c 0
 126 78 451 102 450 -73 c 0
 450 -77 449 -80 449 -84 c 1
 531 -84 l 1
 531 -129 l 1
218 176 m 0
 317 176 307 453 218 453 c 0
 123 453 115 176 218 176 c 0
374 -84 m 1
 353 -38 238 -12 151 12 c 1
 110 -17 81 -32 82 -76 c 0
 83 -158 136 -181 231 -181 c 0
 300 -181 355 -180 366 -129 c 1
 291 -129 l 1
 291 -84 l 1
 374 -84 l 1
EndSplineSet
EndChar

StartChar: uni01EC
Encoding: 492 492 428
Width: 813
Flags: W
LayerCount: 2
Back
Fore
SplineSet
512 734 m 1
 297 734 l 1
 297 787 l 1
 512 787 l 1
 512 734 l 1
399 -21 m 0
 -90 -21 -91 671 399 671 c 0
 885 671 885 -21 399 -21 c 0
399 0 m 0
 719 0 717 650 399 650 c 0
 82 650 84 0 399 0 c 0
494 -130 m 1
 470 -169 439 -186 394 -185 c 0
 339 -184 284 -150 284 -95 c 0
 284 -59 300 -32 332 -15 c 1
 378 -15 l 1
 342 -21 324 -58 328 -95 c 0
 332 -124 359 -131 389 -136 c 0
 426 -142 451 -132 472 -103 c 1
 494 -130 l 1
EndSplineSet
EndChar

StartChar: uni01ED
Encoding: 493 493 429
Width: 576
Flags: W
LayerCount: 2
Back
Fore
SplineSet
385 546 m 1
 170 546 l 1
 170 599 l 1
 385 599 l 1
 385 546 l 1
285 -9 m 0
 -49 -9 -47 472 285 472 c 0
 625 472 625 -9 285 -9 c 0
285 6 m 0
 460 6 460 455 285 455 c 0
 109 455 109 6 285 6 c 0
363 -118 m 1
 339 -157 308 -174 263 -173 c 0
 208 -172 153 -138 153 -83 c 0
 153 -47 169 -20 201 -3 c 1
 247 -3 l 1
 211 -9 193 -46 197 -83 c 0
 201 -112 228 -119 258 -124 c 0
 295 -130 320 -120 341 -91 c 1
 363 -118 l 1
EndSplineSet
EndChar

StartChar: uni01EE
Encoding: 494 494 430
Width: 535
Flags: W
LayerCount: 2
Back
Fore
SplineSet
498 672 m 1
 308 425 l 1
 620 357 515 0 253 0 c 0
 134 0 73 43 77 104 c 0
 84 205 196 202 192 113 c 0
 191 82 166 65 135 70 c 1
 140 48 169 32 191 32 c 0
 243 32 391 70 391 196 c 0
 391 320 269 371 160 371 c 1
 160 400 l 1
 366 650 l 1
 210 650 l 2
 157 650 121 576 115 530 c 1
 93 540 l 1
 116 672 l 1
 498 672 l 1
369 788 m 1
 274 694 l 1
 258 694 l 1
 162 788 l 1
 187 788 l 1
 263 730 l 1
 270 730 l 1
 347 788 l 1
 369 788 l 1
EndSplineSet
EndChar

StartChar: uni01EF
Encoding: 495 495 431
Width: 535
Flags: W
LayerCount: 2
Back
Fore
SplineSet
35 -116 m 0
 31 -177 92 -224 203 -220 c 0
 460 -212 507 144 265 217 c 1
 413 464 l 1
 68 464 l 1
 45 332 l 1
 65 322 l 1
 71 368 105 442 158 442 c 2
 279 442 l 1
 126 192 l 1
 126 163 l 1
 149 163 l 2
 238 163 311 57 306 -24 c 0
 299 -128 213 -192 141 -192 c 0
 119 -192 90 -172 85 -150 c 1
 116 -156 136 -138 138 -107 c 0
 141 -42 41 -19 35 -116 c 0
329 618 m 1
 234 524 l 1
 218 524 l 1
 122 618 l 1
 147 618 l 1
 223 560 l 1
 230 560 l 1
 307 618 l 1
 329 618 l 1
EndSplineSet
EndChar

StartChar: uni01F0
Encoding: 496 496 432
Width: 297
Flags: MW
HStem: -146 89<37.3988 70.1513>
VStem: 12 75 117 106<-64.5 -35 -35 397 397 397>
LayerCount: 2
Back
Fore
SplineSet
223 -35 m 2
 223 -94 152 -144 71 -146 c 0
 -9 -148 0 -58 51 -57 c 0
 85 -56 98 -92 76 -117 c 0
 70 -124 68 -128 60 -132 c 1
 71 -132 77 -130 87 -125 c 0
 109 -113 117 -94 117 -69 c 2
 117 397 l 1
 77 410 l 1
 77 417 l 1
 223 474 l 1
 223 -35 l 2
245 630 m 1
 150 536 l 1
 133 536 l 1
 37 630 l 1
 62 630 l 1
 138 572 l 1
 146 572 l 1
 222 630 l 1
 245 630 l 1
EndSplineSet
EndChar

StartChar: uni01F1
Encoding: 497 497 433
Width: 1315
Flags: W
LayerCount: 2
Back
Fore
SplineSet
719 347 m 0
 720 172 557 0 329 0 c 2
 23 0 l 1
 23 30 l 1
 76 30 l 2
 94 30 111 50 111 67 c 2
 111 594 l 2
 111 611 94 631 76 631 c 2
 23 631 l 1
 23 661 l 1
 429 661 l 2
 637 661 718 484 719 347 c 0
607 359 m 0
 598 493 530 625 396 625 c 2
 253 625 l 2
 228 625 216 596 216 575 c 2
 216 86 l 2
 216 65 228 36 253 36 c 2
 347 36 l 2
 510 36 617 196 607 359 c 0
1302 206 m 1
 1243 0 l 1
 757 0 l 1
 757 21 l 1
 1156 630 l 1
 986 630 l 2
 918 630 834 584 815 515 c 2
 802 469 l 1
 775 469 l 1
 820 661 l 1
 1279 661 l 1
 1279 639 l 1
 888 31 l 1
 1072 31 l 2
 1149 31 1222 88 1255 157 c 2
 1277 204 l 1
 1302 206 l 1
EndSplineSet
EndChar

StartChar: uni01F2
Encoding: 498 498 434
Width: 1123
Flags: W
LayerCount: 2
Back
Fore
SplineSet
719 347 m 0
 720 172 557 0 329 0 c 2
 23 0 l 1
 23 30 l 1
 76 30 l 2
 94 30 111 50 111 67 c 2
 111 594 l 2
 111 611 94 631 76 631 c 2
 23 631 l 1
 23 661 l 1
 429 661 l 2
 637 661 718 484 719 347 c 0
607 359 m 0
 598 493 530 625 396 625 c 2
 253 625 l 2
 228 625 216 596 216 575 c 2
 216 86 l 2
 216 65 228 36 253 36 c 2
 347 36 l 2
 510 36 617 196 607 359 c 0
1125 463 m 1
 852 24 l 1
 964 24 l 2
 1022 24 1071 81 1089 132 c 1
 1110 125 l 1
 1072 -2 l 1
 723 -2 l 1
 993 439 l 1
 872 439 l 2
 817 439 783 369 777 321 c 1
 755 331 l 1
 778 463 l 1
 1125 463 l 1
EndSplineSet
EndChar

StartChar: uni01F3
Encoding: 499 499 435
Width: 1035
Flags: W
LayerCount: 2
Back
Fore
SplineSet
536 45 m 1
 407 -9 l 1
 407 21 l 1
 374 1 331 -8 289 -9 c 0
 168 -13 45 51 40 228 c 0
 36 386 166 471 289 472 c 0
 336 473 376 459 407 432 c 1
 407 589 l 1
 359 599 l 1
 362 621 l 1
 513 680 l 1
 513 82 l 1
 536 72 l 1
 536 45 l 1
407 127 m 1
 407 292 l 2
 407 419 386 448 289 448 c 0
 191 447 166 336 163 239 c 0
 161 135 188 5 291 14 c 0
 367 20 397 51 407 127 c 1
982 463 m 1
 709 24 l 1
 821 24 l 2
 878 24 928 81 946 132 c 1
 967 125 l 1
 929 -2 l 1
 580 -2 l 1
 850 439 l 1
 729 439 l 2
 673 439 640 369 634 321 c 1
 612 331 l 1
 635 463 l 1
 982 463 l 1
EndSplineSet
EndChar

StartChar: Aringacute
Encoding: 506 506 440
Width: 802
Flags: W
LayerCount: 2
Back
Fore
SplineSet
482 898 m 1
 354 789 l 1
 303 789 l 1
 388 898 l 1
 482 898 l 1
758 0 m 1
 506 0 l 1
 506 31 l 1
 545 31 l 2
 560 31 570 47 565 61 c 2
 479 310 l 1
 279 310 l 1
 199 111 l 2
 186 78 209 31 246 31 c 2
 282 31 l 1
 282 0 l 1
 37 0 l 1
 37 31 l 1
 74 31 l 2
 103 31 129 65 139 89 c 2
 369 625 l 1
 367 633 l 1
 273 645 281 797 383 796 c 0
 455 795 481 729 462 671 c 1
 676 71 l 2
 684 48 716 31 739 31 c 2
 758 31 l 1
 758 0 l 1
384 751 m 0
 338 751 338 683 383 683 c 0
 429 682 429 750 384 751 c 0
468 342 m 1
 389 575 l 1
 293 342 l 1
 468 342 l 1
EndSplineSet
EndChar

StartChar: aringacute
Encoding: 507 507 441
Width: 527
Flags: W
LayerCount: 2
Back
Fore
SplineSet
395 789 m 1
 267 680 l 1
 216 680 l 1
 301 789 l 1
 395 789 l 1
272 659 m 0
 370 657 368 515 270 512 c 0
 172 509 175 660 272 659 c 0
272 630 m 0
 215 631 214 545 271 545 c 0
 328 545 328 630 272 630 c 0
489 43 m 2
 489 7 444 -6 415 -9 c 0
 361 -14 316 18 313 72 c 1
 292 33 249 -9 203 -9 c 0
 129 -9 37 26 40 104 c 0
 45 246 233 215 313 280 c 1
 313 380 l 2
 313 416 279 436 246 436 c 0
 223 436 200 435 180 423 c 1
 183 405 178 397 174 379 c 0
 166 346 157 309 124 309 c 0
 31 308 87 475 301 472 c 0
 327 472 419 456 419 389 c 2
 419 77 l 2
 419 58 430 37 450 38 c 0
 467 39 483 65 489 80 c 1
 489 43 l 2
313 124 m 1
 313 245 l 1
 269 210 152 221 146 134 c 0
 139 39 177 38 234 38 c 0
 267 38 300 97 313 124 c 1
EndSplineSet
EndChar

StartChar: uni0200
Encoding: 512 512 446
Width: 810
Flags: W
LayerCount: 2
Back
Fore
SplineSet
758 0 m 1
 506 0 l 1
 506 31 l 1
 545 31 l 2
 560 31 570 47 565 61 c 2
 479 310 l 1
 279 310 l 1
 199 111 l 2
 186 78 210 31 246 31 c 2
 282 31 l 1
 282 0 l 1
 37 0 l 1
 37 31 l 1
 74 31 l 2
 103 31 129 65 139 89 c 2
 369 625 l 1
 363 647 l 1
 456 686 l 1
 676 71 l 2
 684 48 716 31 739 31 c 2
 758 31 l 1
 758 0 l 1
468 342 m 1
 389 575 l 1
 293 342 l 1
 468 342 l 1
518 699 m 1
 446 791 l 1
 370 791 l 1
 478 699 l 1
 518 699 l 1
387 699 m 1
 314 791 l 1
 238 791 l 1
 347 699 l 1
 387 699 l 1
EndSplineSet
EndChar

StartChar: uni0250
Encoding: 592 592 490
Width: 553
Flags: W
LayerCount: 2
Back
Fore
SplineSet
57 419 m 2
 57 456 101 469 131 471 c 0
 185 477 230 444 233 390 c 1
 253 429 297 471 343 471 c 0
 417 471 508 436 506 358 c 0
 500 216 313 247 233 182 c 1
 233 82 l 2
 233 46 267 26 300 26 c 0
 322 26 346 28 366 39 c 1
 363 57 367 66 372 83 c 1
 379 117 389 153 422 153 c 0
 515 154 459 -13 245 -10 c 0
 219 -9 127 6 127 73 c 2
 127 385 l 2
 127 404 116 426 96 424 c 0
 78 423 62 397 57 382 c 1
 57 419 l 2
233 338 m 1
 233 217 l 1
 276 253 393 241 400 328 c 0
 406 423 369 424 312 424 c 0
 279 424 246 366 233 338 c 1
EndSplineSet
EndChar

StartChar: uni0251
Encoding: 593 593 491
Width: 582
Flags: MW
HStem: -9 21<401 401> 450 22<283 283>
VStem: 34 123<133.551 326.272> 401 106<121 298 298 361.5 432 432>
LayerCount: 2
Back
Fore
SplineSet
530 45 m 1
 401 -9 l 1
 401 21 l 1
 368 1 325 -8 283 -9 c 0
 142 -13 38 89 34 228 c 0
 31 350 132 470 283 472 c 0
 330 473 370 459 401 432 c 1
 507 466 l 1
 507 80 l 1
 530 70 l 1
 530 45 l 1
401 121 m 1
 401 298 l 2
 401 425 380 450 283 450 c 0
 185 449 159 336 157 239 c 0
 154 135 182 3 285 12 c 0
 361 18 391 45 401 121 c 1
EndSplineSet
EndChar

StartChar: uni0252
Encoding: 594 594 492
Width: 575
Flags: W
LayerCount: 2
Back
Fore
SplineSet
31 418 m 1
 160 472 l 1
 160 442 l 1
 193 462 236 471 278 472 c 0
 419 476 523 374 527 235 c 0
 530 113 429 -7 278 -9 c 0
 231 -10 191 4 160 31 c 1
 54 -3 l 1
 54 383 l 1
 31 393 l 1
 31 418 l 1
160 342 m 1
 160 165 l 2
 160 38 181 12 278 13 c 0
 376 13 402 127 404 224 c 0
 407 328 379 460 276 451 c 0
 200 445 170 418 160 342 c 1
EndSplineSet
EndChar

StartChar: uni0253
Encoding: 595 595 493
Width: 595
Flags: MW
HStem: -9 21<70 70> 671 16
VStem: 70 106<120 318 428 592 592 619> 216 76<617.567 668.673> 423 120<152.984 344.589>
LayerCount: 2
Back
Fore
SplineSet
543 243 m 0
 546 109 397 -7 297 -9 c 0
 248 -10 202 3 169 32 c 0
 170 32 70 -9 70 -9 c 1
 70 592 l 2
 70 646 168 687 222 687 c 0
 261 687 291 669 292 637 c 0
 294 581 216 576 216 648 c 0
 216 656 218 662 222 669 c 1
 198 679 176 659 176 634 c 2
 176 428 l 1
 207 456 248 470 297 472 c 0
 419 476 540 411 543 243 c 0
423 239 m 0
 423 399 322 455 289 450 c 0
 199 437 176 382 176 318 c 2
 176 120 l 1
 185 58 215 10 297 12 c 0
 376 14 423 123 423 239 c 0
EndSplineSet
EndChar

StartChar: uni0254
Encoding: 596 596 494
Width: 478
Flags: W
LayerCount: 2
Back
Fore
SplineSet
33 359 m 1
 61 421 117 472 188 472 c 0
 331 472 434 355 432 237 c 0
 431 85 306 -9 171 -9 c 0
 27 -8 -14 151 80 157 c 0
 119 159 143 110 133 67 c 0
 130 54 120 47 112 37 c 1
 133 16 142 16 171 15 c 0
 259 12 308 102 311 187 c 0
 315 294 286 405 177 410 c 0
 109 413 63 361 33 306 c 1
 33 359 l 1
EndSplineSet
EndChar

StartChar: uni0255
Encoding: 597 597 495
Width: 498
Flags: MW
HStem: -5 64<272.5 293.5> 186 42<246.5 311.5> 452 20<280 280>
VStem: 21 119<162.04 322.844> 322 111
LayerCount: 2
Back
Fore
SplineSet
395 60 m 0
 372 31 322 -5 265 -5 c 0
 208 -5 147 26 119 46 c 1
 112 21 95 -28 95 -56 c 0
 95 -64 75 -79 75 -56 c 0
 75 -25 92 31 102 62 c 1
 61 103 22 154 21 226 c 0
 19 352 131 471 280 472 c 0
 424 473 491 317 371 310 c 0
 332 308 315 361 324 400 c 0
 327 413 331 420 339 430 c 1
 318 451 309 451 280 452 c 0
 192 455 143 361 140 276 c 0
 138 217 131 204 157 160 c 1
 194 227 215 228 270 228 c 0
 409 228 466 150 395 60 c 0
270 186 m 0
 223 186 203 192 168 133 c 1
 185 84 249 59 296 59 c 0
 397 59 353 186 270 186 c 0
EndSplineSet
EndChar

StartChar: uni0256
Encoding: 598 598 496
Width: 548
Flags: MW
HStem: -104 17 -9 25 450 22<283 283>
VStem: 34 123<104.716 343.836> 401 106<-9 21 21 21 121 298 298 361.5 432 591 591 591> 551 76<-83.6726 -29.0143>
LayerCount: 2
Back
Fore
SplineSet
627 -54 m 0
 626 -86 596 -104 557 -104 c 0
 503 -104 401 -63 401 -9 c 2
 401 21 l 1
 368 1 325 -8 283 -9 c 0
 120 -14 39 39 34 228 c 0
 30 376 122 470 283 472 c 0
 330 473 370 459 401 432 c 1
 401 591 l 1
 353 601 l 1
 356 621 l 1
 507 680 l 1
 507 -53 l 2
 507 -78 533 -94 557 -84 c 1
 553 -77 551 -71 551 -63 c 0
 551 17 629 14 627 -54 c 0
401 121 m 1
 401 298 l 2
 401 425 380 450 283 450 c 0
 185 449 159 336 157 239 c 0
 154 135 182 7 285 16 c 0
 361 22 391 45 401 121 c 1
EndSplineSet
EndChar

StartChar: uni0257
Encoding: 599 599 497
Width: 546
Flags: MW
HStem: -9 21<401 401> 450 22<283 283> 695 18
VStem: 34 123<138.454 317.285> 401 106<121 298 298 361.5 432 618 618 645> 551 76<638.408 692.673>
LayerCount: 2
Back
Fore
SplineSet
627 659 m 0
 629 591 551 594 551 672 c 0
 551 680 553 686 557 693 c 1
 533 703 507 683 507 658 c 2
 507 80 l 1
 530 70 l 1
 530 45 l 1
 401 -9 l 1
 401 21 l 1
 368 1 325 -8 283 -9 c 0
 162 -13 38 89 34 228 c 0
 31 350 160 471 283 472 c 0
 330 473 370 459 401 432 c 1
 401 618 l 2
 401 672 503 713 557 713 c 0
 596 713 626 691 627 659 c 0
401 121 m 1
 401 298 l 2
 401 425 380 450 283 450 c 0
 185 449 159 336 157 239 c 0
 154 135 182 3 285 12 c 0
 361 18 391 45 401 121 c 1
EndSplineSet
EndChar

StartChar: uni0258
Encoding: 600 600 498
Width: 566
Flags: W
LayerCount: 2
Back
Fore
SplineSet
65 290 m 1
 395 290 l 1
 397 276 403 261 403 246 c 0
 403 162 334 106 277 106 c 0
 194 106 109 129 69 205 c 1
 69 92 l 1
 97 35 209 -9 270 -9 c 0
 389 -9 516 80 511 242 c 0
 506 361 390 472 264 472 c 0
 169 472 65 418 65 290 c 1
172 318 m 1
 172 376 196 456 264 456 c 0
 337 456 374 392 390 318 c 1
 172 318 l 1
EndSplineSet
EndChar

StartChar: uni0259
Encoding: 601 601 499
Width: 582
Flags: W
LayerCount: 2
Back
Fore
SplineSet
71 173 m 1
 401 173 l 1
 403 187 409 202 409 217 c 0
 409 301 340 357 283 357 c 0
 200 357 115 334 75 258 c 1
 75 371 l 1
 103 428 215 472 276 472 c 0
 395 472 523 383 517 221 c 0
 513 102 396 -9 270 -9 c 0
 175 -9 71 45 71 173 c 1
178 145 m 1
 178 87 202 7 270 7 c 0
 343 7 380 71 396 145 c 1
 178 145 l 1
EndSplineSet
EndChar

StartChar: uni025A
Encoding: 602 602 500
Width: 666
Flags: MW
HStem: -9 16<192 262.5> 122 26<553.5 591> 381 91<201.5 290>
VStem: 368 105<132.971 179 235 308.76>
LayerCount: 2
Back
Fore
SplineSet
648 173 m 0
 637 156 615 122 582 122 c 0
 518 122 505 228 505 228 c 1
 498 214 475 216 473 208 c 2
 472 204 l 1
 462 91 346 -9 226 -9 c 0
 131 -9 58 54 46 120 c 1
 368 213 l 1
 368 273 342 381 239 381 c 0
 164 381 102 346 67 280 c 1
 67 369 l 1
 100 436 158 472 232 472 c 0
 348 472 475 391 473 235 c 1
 489 244 509 264 515 279 c 1
 515 279 527 148 580 148 c 0
 602 148 615 167 624 183 c 0
 636 204 656 186 648 173 c 0
363 179 m 1
 138 115 l 1
 140 66 158 7 226 7 c 0
 299 7 351 87 363 179 c 1
EndSplineSet
EndChar

StartChar: uni025B
Encoding: 603 603 501
Width: 464
Flags: W
LayerCount: 2
Back
Fore
SplineSet
34 128 m 0
 34 32 96 -3 264 -3 c 0
 342 -3 407 33 431 108 c 1
 410 115 l 1
 390 61 343 26 284 26 c 0
 217 26 168 69 168 129 c 0
 168 165 186 197 212 212 c 0
 229 221 252 226 286 226 c 2
 305 226 l 1
 305 255 l 1
 286 255 l 2
 219 255 179 287 179 343 c 0
 179 397 217 435 271 435 c 0
 329 435 365 399 388 318 c 1
 411 318 l 1
 408 341 l 1
 402 401 402 415 402 461 c 1
 379 461 l 1
 376 444 370 436 360 436 c 0
 356 436 350 438 343 441 c 2
 337 443 l 2
 301 457 285 461 251 461 c 0
 159 461 50 415 50 345 c 0
 50 292 85 255 143 245 c 2
 148 244 l 2
 151 244 153 243 153 242 c 0
 153 241 151 240 147 239 c 2
 142 238 l 2
 74 225 34 185 34 128 c 0
EndSplineSet
EndChar

StartChar: uni025C
Encoding: 604 604 502
Width: 464
Flags: W
LayerCount: 2
Back
Fore
SplineSet
446 128 m 0
 446 32 384 -3 216 -3 c 0
 138 -3 74 33 49 108 c 1
 70 115 l 1
 91 61 137 26 196 26 c 0
 264 26 312 69 312 129 c 0
 312 165 294 197 269 212 c 1
 251 221 228 226 194 226 c 2
 175 226 l 1
 175 255 l 1
 194 255 l 2
 261 255 301 287 301 343 c 0
 301 397 263 435 209 435 c 0
 151 435 115 399 92 318 c 1
 69 318 l 1
 72 341 l 1
 78 401 78 415 79 461 c 1
 101 461 l 1
 104 444 110 436 120 436 c 0
 124 436 131 438 137 441 c 2
 143 443 l 2
 179 457 195 461 229 461 c 0
 321 461 430 415 430 345 c 0
 430 292 395 255 337 245 c 2
 332 244 l 2
 329 244 327 243 327 242 c 0
 327 241 329 240 333 239 c 2
 338 238 l 2
 406 225 446 185 446 128 c 0
EndSplineSet
EndChar

StartChar: uni025D
Encoding: 605 605 503
Width: 640
Flags: MW
HStem: -3 33<177 230> 224 33<175 194> 263 24<524.5 562> 432 29<154.36 258.4>
VStem: 301 129<286.227 339>
LayerCount: 2
Back
Fore
SplineSet
617 312 m 0
 606 295 586 263 553 263 c 0
 489 263 476 367 476 367 c 1
 469 353 449 344 444 343 c 2
 430 339 l 1
 428 289 393 254 337 245 c 2
 332 244 l 2
 329 244 327 243 327 242 c 0
 327 241 329 240 333 239 c 2
 338 238 l 2
 406 225 446 185 446 128 c 0
 446 52 362 -3 216 -3 c 0
 138 -3 72 31 47 106 c 1
 70 115 l 1
 91 61 137 30 196 30 c 0
 264 30 312 69 312 129 c 0
 312 165 294 195 269 210 c 1
 251 219 228 224 194 224 c 2
 175 224 l 1
 175 257 l 1
 194 257 l 2
 261 257 301 287 301 343 c 0
 301 397 263 431 209 431 c 0
 151 431 115 399 92 318 c 1
 71 318 l 1
 74 341 l 1
 80 401 81 415 81 461 c 1
 101 461 l 1
 104 444 110 436 120 436 c 0
 124 436 131 438 137 441 c 2
 143 443 l 2
 179 457 195 461 229 461 c 0
 352 461 419 423 429 364 c 1
 437 367 l 2
 452 372 479 396 486 414 c 1
 486 414 498 287 551 287 c 0
 573 287 586 306 595 322 c 0
 607 343 625 325 617 312 c 0
EndSplineSet
EndChar

StartChar: uni025E
Encoding: 606 606 504
Width: 645
Flags: MW
HStem: -9 98 202 52<340 340> 372 95
VStem: 27 39<159 287> 383 73<259.429 352.678>
LayerCount: 2
Back
Fore
SplineSet
457 140 m 0
 457 60 385 30 332 7 c 0
 188 -57 27 92 27 225 c 0
 27 349 141 505 311 458 c 0
 377 440 457 397 457 306 c 0
 457 282 450 251 410 232 c 1
 450 214 457 164 457 140 c 0
391 132 m 0
 391 163 384 201 340 202 c 2
 180 204 l 2
 116 205 114 250 180 251 c 2
 340 254 l 2
 384 255 384 295 384 326 c 0
 384 352 339 365 298 370 c 0
 222 379 66 357 66 228 c 0
 66 90 232 77 331 96 c 0
 352 100 391 109 391 132 c 0
EndSplineSet
EndChar

StartChar: uni025F
Encoding: 607 607 505
Width: 287
Flags: MW
HStem: -146 93<27.1241 70.1513> 18 45<59 117 223 277> 454 20<223 223>
VStem: -10 96 117 106<-64.5 -35 -35 18 63 393 393 393>
LayerCount: 2
Back
Fore
SplineSet
277 18 m 1
 223 18 l 1
 223 -35 l 2
 223 -94 126 -144 71 -146 c 0
 -31 -149 -34 -55 51 -53 c 0
 85 -52 98 -92 76 -117 c 0
 70 -124 68 -128 60 -132 c 1
 71 -132 77 -130 87 -125 c 0
 109 -113 117 -94 117 -69 c 2
 117 18 l 1
 59 18 l 1
 59 63 l 1
 117 63 l 1
 117 393 l 1
 77 406 l 1
 77 417 l 1
 223 474 l 1
 223 63 l 1
 277 63 l 1
 277 18 l 1
EndSplineSet
EndChar

StartChar: uni0260
Encoding: 608 608 506
Width: 517
Flags: W
LayerCount: 2
Back
Fore
SplineSet
447 -57 m 0
 446 -163 344 -212 231 -212 c 0
 137 -212 12 -190 14 -94 c 0
 15 -51 82 0 120 17 c 1
 82 30 51 77 51 106 c 0
 51 151 108 167 155 172 c 1
 16 169 -40 466 218 466 c 0
 299 466 322 445 346 419 c 1
 346 440 l 2
 346 445 348 450 347 456 c 0
 338 557 467 532 462 464 c 0
 458 413 412 399 379 413 c 0
 367 417 371 409 364 420 c 1
 364 420 364 396 364 395 c 0
 408 319 400 158 218 158 c 0
 212 158 206 158 200 159 c 1
 161 156 124 158 124 131 c 0
 124 88 448 88 447 -57 c 0
218 176 m 0
 313 176 313 453 218 453 c 0
 121 453 117 176 218 176 c 0
373 -91 m 0
 373 -48 246 -17 149 10 c 1
 111 -17 81 -44 82 -94 c 0
 83 -170 156 -181 231 -181 c 0
 308 -181 374 -168 373 -91 c 0
EndSplineSet
EndChar

StartChar: uni0261
Encoding: 609 609 507
Width: 517
Flags: MW
HStem: -212 31<193.5 269.5> 158 18<215 265.5> 453 13<169.5 265.5>
VStem: 38 106 373 74<-129.553 -60.875>
LayerCount: 2
Back
Fore
SplineSet
447 -57 m 0
 446 -163 344 -212 231 -212 c 0
 137 -212 12 -190 14 -94 c 0
 15 -51 82 0 120 17 c 1
 82 30 51 77 51 106 c 0
 51 151 108 167 155 172 c 1
 16 169 -40 466 218 466 c 0
 441 466 431 158 218 158 c 0
 212 158 206 158 200 159 c 1
 161 156 124 158 124 131 c 0
 124 88 448 88 447 -57 c 0
218 176 m 0
 313 176 313 453 218 453 c 0
 121 453 117 176 218 176 c 0
373 -91 m 0
 373 -48 246 -17 149 10 c 1
 111 -17 81 -44 82 -94 c 0
 83 -170 156 -181 231 -181 c 0
 308 -181 374 -168 373 -91 c 0
EndSplineSet
EndChar

StartChar: uni0262
Encoding: 610 610 508
Width: 569
Flags: MW
HStem: -8 17<249.836 335.595> 233 21<345 384.88 500.201 549> 444 17
VStem: 30 104<131.282 324.37> 389 107<60 203>
LayerCount: 2
Back
Fore
SplineSet
549 234 m 1
 517 234 l 2
 501 234 496 216 496 203 c 2
 496 28 l 1
 443 54 l 1
 410 12 370 -4 280 -8 c 0
 114 -14 30 112 30 229 c 0
 30 344 121 464 274 461 c 0
 341 460 356 449 392 415 c 1
 422 457 l 1
 446 457 l 1
 455 305 l 1
 438 305 l 1
 434 317 431 325 425 337 c 0
 392 402 343 450 271 444 c 0
 184 437 133 319 134 223 c 0
 135 123 184 7 291 10 c 0
 336 11 365 23 389 60 c 1
 389 203 l 2
 389 218 384 234 366 234 c 2
 345 234 l 1
 345 254 l 1
 549 254 l 1
 549 234 l 1
EndSplineSet
EndChar

StartChar: uni0263
Encoding: 611 611 509
Width: 593
Flags: MW
HStem: 0 20 632 29<23 36 200.5 215 215 260 371 396 551.5 578 578 590>
VStem: 219 22 277 95
LayerCount: 2
Back
Fore
SplineSet
590 632 m 1
 578 632 l 2
 525 632 472 555 455 510 c 2
 338 194 l 1
 369 107 l 2
 386 60 329 0 258 0 c 0
 219 0 211 37 225 76 c 2
 249 141 l 1
 91 585 l 2
 82 611 65 632 36 632 c 2
 23 632 l 1
 23 661 l 1
 260 661 l 1
 260 632 l 1
 215 632 l 2
 186 632 193 601 199 583 c 1
 328 221 l 1
 434 502 l 2
 455 558 484 632 396 632 c 2
 371 632 l 1
 371 661 l 1
 590 661 l 1
 590 632 l 1
272 76 m 2
 259 113 l 1
 245 76 l 1
 240 61 236 34 255 32 c 0
 275 30 282 48 272 76 c 2
EndSplineSet
EndChar

